G75*
G70*
%OFA0B0*%
%FSLAX24Y24*%
%IPPOS*%
%LPD*%
%AMOC8*
5,1,8,0,0,1.08239X$1,22.5*
%
%ADD10C,0.0000*%
%ADD11C,0.1700*%
%ADD12R,0.0669X0.0591*%
%ADD13C,0.0600*%
%ADD14C,0.1810*%
%ADD15OC8,0.1810*%
%ADD16R,0.0315X0.0315*%
%ADD17R,0.0433X0.0394*%
%ADD18R,0.0394X0.0433*%
%ADD19R,0.0630X0.0787*%
%ADD20C,0.0100*%
D10*
X000130Y001500D02*
X000130Y019000D01*
X014630Y019000D01*
X014630Y001500D01*
X000130Y001500D01*
X000980Y003000D02*
X000982Y003050D01*
X000988Y003100D01*
X000998Y003150D01*
X001011Y003198D01*
X001028Y003246D01*
X001049Y003292D01*
X001073Y003336D01*
X001101Y003378D01*
X001132Y003418D01*
X001166Y003455D01*
X001203Y003490D01*
X001242Y003521D01*
X001283Y003550D01*
X001327Y003575D01*
X001373Y003597D01*
X001420Y003615D01*
X001468Y003629D01*
X001517Y003640D01*
X001567Y003647D01*
X001617Y003650D01*
X001668Y003649D01*
X001718Y003644D01*
X001768Y003635D01*
X001816Y003623D01*
X001864Y003606D01*
X001910Y003586D01*
X001955Y003563D01*
X001998Y003536D01*
X002038Y003506D01*
X002076Y003473D01*
X002111Y003437D01*
X002144Y003398D01*
X002173Y003357D01*
X002199Y003314D01*
X002222Y003269D01*
X002241Y003222D01*
X002256Y003174D01*
X002268Y003125D01*
X002276Y003075D01*
X002280Y003025D01*
X002280Y002975D01*
X002276Y002925D01*
X002268Y002875D01*
X002256Y002826D01*
X002241Y002778D01*
X002222Y002731D01*
X002199Y002686D01*
X002173Y002643D01*
X002144Y002602D01*
X002111Y002563D01*
X002076Y002527D01*
X002038Y002494D01*
X001998Y002464D01*
X001955Y002437D01*
X001910Y002414D01*
X001864Y002394D01*
X001816Y002377D01*
X001768Y002365D01*
X001718Y002356D01*
X001668Y002351D01*
X001617Y002350D01*
X001567Y002353D01*
X001517Y002360D01*
X001468Y002371D01*
X001420Y002385D01*
X001373Y002403D01*
X001327Y002425D01*
X001283Y002450D01*
X001242Y002479D01*
X001203Y002510D01*
X001166Y002545D01*
X001132Y002582D01*
X001101Y002622D01*
X001073Y002664D01*
X001049Y002708D01*
X001028Y002754D01*
X001011Y002802D01*
X000998Y002850D01*
X000988Y002900D01*
X000982Y002950D01*
X000980Y003000D01*
X000980Y017500D02*
X000982Y017550D01*
X000988Y017600D01*
X000998Y017650D01*
X001011Y017698D01*
X001028Y017746D01*
X001049Y017792D01*
X001073Y017836D01*
X001101Y017878D01*
X001132Y017918D01*
X001166Y017955D01*
X001203Y017990D01*
X001242Y018021D01*
X001283Y018050D01*
X001327Y018075D01*
X001373Y018097D01*
X001420Y018115D01*
X001468Y018129D01*
X001517Y018140D01*
X001567Y018147D01*
X001617Y018150D01*
X001668Y018149D01*
X001718Y018144D01*
X001768Y018135D01*
X001816Y018123D01*
X001864Y018106D01*
X001910Y018086D01*
X001955Y018063D01*
X001998Y018036D01*
X002038Y018006D01*
X002076Y017973D01*
X002111Y017937D01*
X002144Y017898D01*
X002173Y017857D01*
X002199Y017814D01*
X002222Y017769D01*
X002241Y017722D01*
X002256Y017674D01*
X002268Y017625D01*
X002276Y017575D01*
X002280Y017525D01*
X002280Y017475D01*
X002276Y017425D01*
X002268Y017375D01*
X002256Y017326D01*
X002241Y017278D01*
X002222Y017231D01*
X002199Y017186D01*
X002173Y017143D01*
X002144Y017102D01*
X002111Y017063D01*
X002076Y017027D01*
X002038Y016994D01*
X001998Y016964D01*
X001955Y016937D01*
X001910Y016914D01*
X001864Y016894D01*
X001816Y016877D01*
X001768Y016865D01*
X001718Y016856D01*
X001668Y016851D01*
X001617Y016850D01*
X001567Y016853D01*
X001517Y016860D01*
X001468Y016871D01*
X001420Y016885D01*
X001373Y016903D01*
X001327Y016925D01*
X001283Y016950D01*
X001242Y016979D01*
X001203Y017010D01*
X001166Y017045D01*
X001132Y017082D01*
X001101Y017122D01*
X001073Y017164D01*
X001049Y017208D01*
X001028Y017254D01*
X001011Y017302D01*
X000998Y017350D01*
X000988Y017400D01*
X000982Y017450D01*
X000980Y017500D01*
X012480Y017500D02*
X012482Y017550D01*
X012488Y017600D01*
X012498Y017650D01*
X012511Y017698D01*
X012528Y017746D01*
X012549Y017792D01*
X012573Y017836D01*
X012601Y017878D01*
X012632Y017918D01*
X012666Y017955D01*
X012703Y017990D01*
X012742Y018021D01*
X012783Y018050D01*
X012827Y018075D01*
X012873Y018097D01*
X012920Y018115D01*
X012968Y018129D01*
X013017Y018140D01*
X013067Y018147D01*
X013117Y018150D01*
X013168Y018149D01*
X013218Y018144D01*
X013268Y018135D01*
X013316Y018123D01*
X013364Y018106D01*
X013410Y018086D01*
X013455Y018063D01*
X013498Y018036D01*
X013538Y018006D01*
X013576Y017973D01*
X013611Y017937D01*
X013644Y017898D01*
X013673Y017857D01*
X013699Y017814D01*
X013722Y017769D01*
X013741Y017722D01*
X013756Y017674D01*
X013768Y017625D01*
X013776Y017575D01*
X013780Y017525D01*
X013780Y017475D01*
X013776Y017425D01*
X013768Y017375D01*
X013756Y017326D01*
X013741Y017278D01*
X013722Y017231D01*
X013699Y017186D01*
X013673Y017143D01*
X013644Y017102D01*
X013611Y017063D01*
X013576Y017027D01*
X013538Y016994D01*
X013498Y016964D01*
X013455Y016937D01*
X013410Y016914D01*
X013364Y016894D01*
X013316Y016877D01*
X013268Y016865D01*
X013218Y016856D01*
X013168Y016851D01*
X013117Y016850D01*
X013067Y016853D01*
X013017Y016860D01*
X012968Y016871D01*
X012920Y016885D01*
X012873Y016903D01*
X012827Y016925D01*
X012783Y016950D01*
X012742Y016979D01*
X012703Y017010D01*
X012666Y017045D01*
X012632Y017082D01*
X012601Y017122D01*
X012573Y017164D01*
X012549Y017208D01*
X012528Y017254D01*
X012511Y017302D01*
X012498Y017350D01*
X012488Y017400D01*
X012482Y017450D01*
X012480Y017500D01*
X012480Y003000D02*
X012482Y003050D01*
X012488Y003100D01*
X012498Y003150D01*
X012511Y003198D01*
X012528Y003246D01*
X012549Y003292D01*
X012573Y003336D01*
X012601Y003378D01*
X012632Y003418D01*
X012666Y003455D01*
X012703Y003490D01*
X012742Y003521D01*
X012783Y003550D01*
X012827Y003575D01*
X012873Y003597D01*
X012920Y003615D01*
X012968Y003629D01*
X013017Y003640D01*
X013067Y003647D01*
X013117Y003650D01*
X013168Y003649D01*
X013218Y003644D01*
X013268Y003635D01*
X013316Y003623D01*
X013364Y003606D01*
X013410Y003586D01*
X013455Y003563D01*
X013498Y003536D01*
X013538Y003506D01*
X013576Y003473D01*
X013611Y003437D01*
X013644Y003398D01*
X013673Y003357D01*
X013699Y003314D01*
X013722Y003269D01*
X013741Y003222D01*
X013756Y003174D01*
X013768Y003125D01*
X013776Y003075D01*
X013780Y003025D01*
X013780Y002975D01*
X013776Y002925D01*
X013768Y002875D01*
X013756Y002826D01*
X013741Y002778D01*
X013722Y002731D01*
X013699Y002686D01*
X013673Y002643D01*
X013644Y002602D01*
X013611Y002563D01*
X013576Y002527D01*
X013538Y002494D01*
X013498Y002464D01*
X013455Y002437D01*
X013410Y002414D01*
X013364Y002394D01*
X013316Y002377D01*
X013268Y002365D01*
X013218Y002356D01*
X013168Y002351D01*
X013117Y002350D01*
X013067Y002353D01*
X013017Y002360D01*
X012968Y002371D01*
X012920Y002385D01*
X012873Y002403D01*
X012827Y002425D01*
X012783Y002450D01*
X012742Y002479D01*
X012703Y002510D01*
X012666Y002545D01*
X012632Y002582D01*
X012601Y002622D01*
X012573Y002664D01*
X012549Y002708D01*
X012528Y002754D01*
X012511Y002802D01*
X012498Y002850D01*
X012488Y002900D01*
X012482Y002950D01*
X012480Y003000D01*
D11*
X010980Y004713D03*
X009130Y005894D03*
X009130Y003531D03*
D12*
X005402Y004996D03*
X005402Y007004D03*
X001858Y007004D03*
X001858Y004996D03*
D13*
X010330Y008500D02*
X010930Y008500D01*
X010930Y009500D02*
X010330Y009500D01*
X010330Y010500D02*
X010930Y010500D01*
X013330Y010950D02*
X013930Y010950D01*
X013930Y012050D02*
X013330Y012050D01*
X013330Y008550D02*
X013930Y008550D01*
X013930Y007450D02*
X013330Y007450D01*
X010180Y017700D02*
X010180Y018300D01*
X009080Y018300D02*
X009080Y017700D01*
X006680Y017700D02*
X006680Y018300D01*
X005580Y018300D02*
X005580Y017700D01*
D14*
X004130Y010500D03*
D15*
X004130Y014500D03*
D16*
X008335Y015500D03*
X008925Y015500D03*
D17*
X010195Y015550D03*
X010865Y015550D03*
D18*
X012380Y010435D03*
X012380Y009765D03*
D19*
X010931Y013400D03*
X009829Y013400D03*
D20*
X009890Y013340D01*
X009610Y012620D01*
X009610Y010540D01*
X010630Y010500D01*
X010690Y010460D01*
X012370Y010460D01*
X012380Y010435D01*
X012380Y009765D02*
X012370Y009740D01*
X010690Y009740D01*
X010630Y009500D01*
X010690Y009500D01*
X010690Y009740D01*
X008370Y009740D01*
X008370Y015500D01*
X008335Y015500D01*
X008290Y015500D01*
X006690Y017100D01*
X004130Y014540D01*
X004130Y014500D01*
X004130Y014460D01*
X000830Y011660D01*
X000830Y005500D01*
X001810Y005020D01*
X001858Y004996D01*
X001858Y007004D02*
X001890Y007020D01*
X003410Y008540D01*
X010610Y008540D01*
X010630Y008500D01*
X009090Y006940D02*
X009090Y005900D01*
X009130Y005894D01*
X009170Y005900D01*
X013470Y009600D01*
X013520Y010090D01*
X013570Y010940D01*
X013630Y010950D01*
X013650Y011020D01*
X013650Y011980D01*
X013630Y012050D01*
X010931Y013400D02*
X010930Y013420D01*
X010930Y015500D01*
X010865Y015550D01*
X010850Y015580D01*
X010210Y016220D01*
X010210Y017980D01*
X010180Y018000D01*
X010130Y018060D01*
X009090Y018060D01*
X009080Y018000D01*
X008925Y015500D02*
X010130Y015500D01*
X010195Y015550D01*
X006690Y017100D02*
X006690Y017980D01*
X006680Y018000D01*
X006610Y018060D01*
X005650Y018060D01*
X005580Y018000D01*
X004130Y010500D02*
X004130Y009260D01*
X003410Y008540D01*
X005402Y007004D02*
X005410Y006940D01*
X009090Y006940D01*
X008690Y004700D02*
X010930Y004700D01*
X010980Y004713D01*
X011010Y004780D01*
X011010Y004860D01*
X013570Y007420D01*
X013630Y007450D01*
X013650Y007500D01*
X013650Y008540D01*
X013630Y008550D01*
X008690Y003980D02*
X009090Y003580D01*
X009130Y003531D01*
X008690Y003980D02*
X008690Y004700D01*
X006690Y004940D01*
X005410Y004940D01*
X005402Y004996D01*
M02*
