G75*
G70*
%OFA0B0*%
%FSLAX24Y24*%
%IPPOS*%
%LPD*%
%AMOC8*
5,1,8,0,0,1.08239X$1,22.5*
%
%ADD10C,0.0080*%
%ADD11C,0.0100*%
%ADD12C,0.0040*%
%ADD13C,0.0060*%
%ADD14R,0.2000X0.0500*%
%ADD15R,0.0180X0.0300*%
%ADD16C,0.0050*%
%ADD17C,0.0220*%
D10*
X003810Y002040D02*
X003670Y002320D01*
X003950Y002320D02*
X003810Y002040D01*
X004130Y002040D02*
X004411Y002040D01*
X004271Y002040D02*
X004271Y002460D01*
X004130Y002320D01*
X004591Y002110D02*
X004591Y002040D01*
X004661Y002040D01*
X004661Y002110D01*
X004591Y002110D01*
X004821Y002110D02*
X004821Y002390D01*
X004891Y002460D01*
X005031Y002460D01*
X005101Y002390D01*
X004821Y002110D01*
X004891Y002040D01*
X005031Y002040D01*
X005101Y002110D01*
X005101Y002390D01*
X007358Y001681D02*
X010902Y001681D01*
X010902Y003768D01*
X010902Y005618D02*
X010902Y005894D01*
X010075Y005894D01*
X011599Y007256D02*
X008449Y007256D01*
X008449Y011744D01*
X011599Y011744D01*
X011599Y007256D01*
X012170Y007211D02*
X012520Y007211D01*
X012590Y007281D01*
X012590Y007421D01*
X012520Y007491D01*
X012170Y007491D01*
X012170Y007671D02*
X012170Y007951D01*
X012170Y007811D02*
X012590Y007811D01*
X012590Y008132D02*
X012170Y008132D01*
X012170Y008342D01*
X012240Y008412D01*
X012380Y008412D01*
X012450Y008342D01*
X012450Y008132D01*
X012450Y008272D02*
X012590Y008412D01*
X012590Y008592D02*
X012310Y008592D01*
X012170Y008732D01*
X012310Y008872D01*
X012590Y008872D01*
X012590Y009052D02*
X012590Y009333D01*
X012590Y009052D02*
X012170Y009052D01*
X012380Y008872D02*
X012380Y008592D01*
X013130Y008890D02*
X013240Y009000D01*
X013630Y009000D01*
X014020Y009000D01*
X014130Y008890D01*
X013630Y008900D02*
X013630Y009000D01*
X013270Y009540D02*
X013340Y009610D01*
X013340Y009750D01*
X013270Y009820D01*
X013340Y010000D02*
X013060Y010281D01*
X012990Y010281D01*
X012920Y010211D01*
X012920Y010070D01*
X012990Y010000D01*
X012990Y009820D02*
X012920Y009750D01*
X012920Y009610D01*
X012990Y009540D01*
X013270Y009540D01*
X013340Y010000D02*
X013340Y010281D01*
X013240Y010500D02*
X013130Y010610D01*
X013240Y010500D02*
X013630Y010500D01*
X014020Y010500D01*
X014130Y010610D01*
X013630Y010600D02*
X013630Y010500D01*
X013630Y011350D02*
X013630Y011650D01*
X013630Y012400D02*
X013630Y012500D01*
X013240Y012500D01*
X013130Y012390D01*
X013630Y012500D02*
X014020Y012500D01*
X014130Y012390D01*
X012590Y012001D02*
X012170Y012001D01*
X012170Y011861D02*
X012170Y012141D01*
X012240Y011681D02*
X012170Y011611D01*
X012170Y011470D01*
X012240Y011400D01*
X012520Y011400D01*
X012590Y011470D01*
X012590Y011611D01*
X012520Y011681D01*
X012240Y011681D01*
X012170Y011220D02*
X012590Y011220D01*
X012380Y011220D02*
X012380Y010940D01*
X012590Y010940D02*
X012170Y010940D01*
X013630Y008150D02*
X013630Y007850D01*
X013630Y007100D02*
X013630Y007000D01*
X014020Y007000D01*
X014130Y007110D01*
X013630Y007000D02*
X013240Y007000D01*
X013130Y007110D01*
X012590Y007031D02*
X012590Y006750D01*
X012170Y006750D01*
X012170Y007031D01*
X012380Y006891D02*
X012380Y006750D01*
X012590Y006570D02*
X012170Y006570D01*
X012170Y006290D02*
X012590Y006570D01*
X012590Y006290D02*
X012170Y006290D01*
X008185Y005894D02*
X007358Y005894D01*
X007358Y001681D01*
X007989Y014490D02*
X008269Y014490D01*
X008449Y014490D02*
X008729Y014490D01*
X008910Y014490D02*
X009120Y014490D01*
X009190Y014560D01*
X009190Y014840D01*
X009120Y014910D01*
X008910Y014910D01*
X008910Y014490D01*
X008589Y014700D02*
X008449Y014700D01*
X008449Y014910D02*
X008449Y014490D01*
X008449Y014910D02*
X008729Y014910D01*
X008563Y015319D02*
X008563Y015500D01*
X008685Y015622D01*
X008685Y015374D01*
X008559Y015500D01*
X008563Y015500D02*
X008563Y015681D01*
X007989Y014910D02*
X007989Y014490D01*
X008990Y016590D02*
X008920Y016660D01*
X008990Y016590D02*
X009130Y016590D01*
X009200Y016660D01*
X009200Y016730D01*
X009130Y016800D01*
X009060Y016800D01*
X009130Y016800D02*
X009200Y016870D01*
X009200Y016940D01*
X009130Y017010D01*
X008990Y017010D01*
X008920Y016940D01*
X009380Y016660D02*
X009380Y016590D01*
X009450Y016590D01*
X009450Y016660D01*
X009380Y016660D01*
X009611Y016660D02*
X009681Y016590D01*
X009821Y016590D01*
X009891Y016660D01*
X009891Y016730D01*
X009821Y016800D01*
X009751Y016800D01*
X009821Y016800D02*
X009891Y016870D01*
X009891Y016940D01*
X009821Y017010D01*
X009681Y017010D01*
X009611Y016940D01*
X010071Y017010D02*
X010071Y016730D01*
X010211Y016590D01*
X010351Y016730D01*
X010351Y017010D01*
X010520Y017500D02*
X010630Y017610D01*
X010630Y018000D01*
X010630Y018390D01*
X010520Y018500D01*
X010530Y018000D02*
X010630Y018000D01*
X009780Y018000D02*
X009480Y018000D01*
X008730Y018000D02*
X008630Y018000D01*
X008630Y017610D01*
X008740Y017500D01*
X008630Y018000D02*
X008630Y018390D01*
X008740Y018500D01*
X007130Y018390D02*
X007130Y018000D01*
X007130Y017610D01*
X007020Y017500D01*
X006651Y017010D02*
X006441Y017010D01*
X006441Y016590D01*
X006651Y016590D01*
X006721Y016660D01*
X006721Y016940D01*
X006651Y017010D01*
X006261Y017010D02*
X006261Y016590D01*
X005980Y017010D01*
X005980Y016590D01*
X005800Y016660D02*
X005800Y016800D01*
X005660Y016800D01*
X005520Y016660D02*
X005590Y016590D01*
X005730Y016590D01*
X005800Y016660D01*
X005800Y016940D02*
X005730Y017010D01*
X005590Y017010D01*
X005520Y016940D01*
X005520Y016660D01*
X005240Y017500D02*
X005130Y017610D01*
X005130Y018000D01*
X005130Y018390D01*
X005240Y018500D01*
X005230Y018000D02*
X005130Y018000D01*
X005980Y018000D02*
X006280Y018000D01*
X007030Y018000D02*
X007130Y018000D01*
X007130Y018390D02*
X007020Y018500D01*
X010220Y014910D02*
X010220Y014490D01*
X010220Y014630D02*
X010430Y014630D01*
X010500Y014700D01*
X010500Y014840D01*
X010430Y014910D01*
X010220Y014910D01*
X010360Y014630D02*
X010500Y014490D01*
X010680Y014490D02*
X010961Y014490D01*
X010821Y014490D02*
X010821Y014910D01*
X010680Y014770D01*
D11*
X002410Y007594D02*
X002410Y004406D01*
X004850Y004406D01*
X004850Y007594D01*
X002410Y007594D01*
X003380Y011150D02*
X003380Y011650D01*
X003130Y011400D02*
X003630Y011400D01*
X003130Y011880D02*
X003130Y012330D01*
X005130Y012330D01*
X005130Y011880D01*
X004130Y011880D01*
X003130Y011880D01*
X004130Y011880D02*
X004130Y011500D01*
X004130Y012750D02*
X004130Y013500D01*
D12*
X004319Y007034D02*
X004335Y007031D01*
X004349Y007025D01*
X004362Y007016D01*
X004373Y007004D01*
X004381Y006991D01*
X004386Y006976D01*
X004388Y006960D01*
X004386Y006944D01*
X004381Y006929D01*
X004373Y006916D01*
X004362Y006904D01*
X004349Y006895D01*
X004335Y006889D01*
X004319Y006886D01*
X004303Y006883D01*
X004289Y006877D01*
X004276Y006868D01*
X004265Y006856D01*
X004257Y006843D01*
X004252Y006828D01*
X004250Y006812D01*
X004252Y006796D01*
X004257Y006781D01*
X004265Y006768D01*
X004276Y006756D01*
X004289Y006747D01*
X004303Y006741D01*
X004319Y006738D01*
X004319Y005262D02*
X004335Y005259D01*
X004349Y005253D01*
X004362Y005244D01*
X004373Y005232D01*
X004381Y005219D01*
X004386Y005204D01*
X004388Y005188D01*
X004386Y005172D01*
X004381Y005157D01*
X004373Y005144D01*
X004362Y005132D01*
X004349Y005123D01*
X004335Y005117D01*
X004319Y005114D01*
X004303Y005111D01*
X004289Y005105D01*
X004276Y005096D01*
X004265Y005084D01*
X004257Y005071D01*
X004252Y005056D01*
X004250Y005040D01*
X004252Y005024D01*
X004257Y005009D01*
X004265Y004996D01*
X004276Y004984D01*
X004289Y004975D01*
X004303Y004969D01*
X004319Y004966D01*
X002971Y005000D02*
X002971Y005217D01*
X002971Y006787D02*
X002971Y007004D01*
X002872Y006896D02*
X003079Y006896D01*
D13*
X001130Y012500D02*
X001134Y012647D01*
X001144Y012794D01*
X001162Y012940D01*
X001188Y013085D01*
X001220Y013229D01*
X001259Y013371D01*
X001305Y013511D01*
X001358Y013648D01*
X001418Y013783D01*
X001484Y013914D01*
X001557Y014042D01*
X001636Y014167D01*
X001720Y014287D01*
X001811Y014403D01*
X001907Y014515D01*
X002009Y014621D01*
X002115Y014723D01*
X002227Y014819D01*
X002343Y014910D01*
X002463Y014994D01*
X002588Y015073D01*
X002716Y015146D01*
X002847Y015212D01*
X002982Y015272D01*
X003119Y015325D01*
X003259Y015371D01*
X003401Y015410D01*
X003545Y015442D01*
X003690Y015468D01*
X003836Y015486D01*
X003983Y015496D01*
X004130Y015500D01*
X004277Y015496D01*
X004424Y015486D01*
X004570Y015468D01*
X004715Y015442D01*
X004859Y015410D01*
X005001Y015371D01*
X005141Y015325D01*
X005278Y015272D01*
X005413Y015212D01*
X005544Y015146D01*
X005672Y015073D01*
X005797Y014994D01*
X005917Y014910D01*
X006033Y014819D01*
X006145Y014723D01*
X006251Y014621D01*
X006353Y014515D01*
X006449Y014403D01*
X006540Y014287D01*
X006624Y014167D01*
X006703Y014042D01*
X006776Y013914D01*
X006842Y013783D01*
X006902Y013648D01*
X006955Y013511D01*
X007001Y013371D01*
X007040Y013229D01*
X007072Y013085D01*
X007098Y012940D01*
X007116Y012794D01*
X007126Y012647D01*
X007130Y012500D01*
X007126Y012353D01*
X007116Y012206D01*
X007098Y012060D01*
X007072Y011915D01*
X007040Y011771D01*
X007001Y011629D01*
X006955Y011489D01*
X006902Y011352D01*
X006842Y011217D01*
X006776Y011086D01*
X006703Y010958D01*
X006624Y010833D01*
X006540Y010713D01*
X006449Y010597D01*
X006353Y010485D01*
X006251Y010379D01*
X006145Y010277D01*
X006033Y010181D01*
X005917Y010090D01*
X005797Y010006D01*
X005672Y009927D01*
X005544Y009854D01*
X005413Y009788D01*
X005278Y009728D01*
X005141Y009675D01*
X005001Y009629D01*
X004859Y009590D01*
X004715Y009558D01*
X004570Y009532D01*
X004424Y009514D01*
X004277Y009504D01*
X004130Y009500D01*
X003983Y009504D01*
X003836Y009514D01*
X003690Y009532D01*
X003545Y009558D01*
X003401Y009590D01*
X003259Y009629D01*
X003119Y009675D01*
X002982Y009728D01*
X002847Y009788D01*
X002716Y009854D01*
X002588Y009927D01*
X002463Y010006D01*
X002343Y010090D01*
X002227Y010181D01*
X002115Y010277D01*
X002009Y010379D01*
X001907Y010485D01*
X001811Y010597D01*
X001720Y010713D01*
X001636Y010833D01*
X001557Y010958D01*
X001484Y011086D01*
X001418Y011217D01*
X001358Y011352D01*
X001305Y011489D01*
X001259Y011629D01*
X001220Y011771D01*
X001188Y011915D01*
X001162Y012060D01*
X001144Y012206D01*
X001134Y012353D01*
X001130Y012500D01*
X000130Y012500D02*
X000135Y012696D01*
X000149Y012892D01*
X000173Y013087D01*
X000207Y013280D01*
X000250Y013472D01*
X000302Y013661D01*
X000364Y013848D01*
X000434Y014031D01*
X000514Y014210D01*
X000602Y014386D01*
X000699Y014556D01*
X000804Y014722D01*
X000917Y014883D01*
X001038Y015038D01*
X001166Y015186D01*
X001302Y015328D01*
X001444Y015464D01*
X001592Y015592D01*
X001747Y015713D01*
X001908Y015826D01*
X002074Y015931D01*
X002244Y016028D01*
X002420Y016116D01*
X002599Y016196D01*
X002782Y016266D01*
X002969Y016328D01*
X003158Y016380D01*
X003350Y016423D01*
X003543Y016457D01*
X003738Y016481D01*
X003934Y016495D01*
X004130Y016500D01*
X004326Y016495D01*
X004522Y016481D01*
X004717Y016457D01*
X004910Y016423D01*
X005102Y016380D01*
X005291Y016328D01*
X005478Y016266D01*
X005661Y016196D01*
X005840Y016116D01*
X006016Y016028D01*
X006186Y015931D01*
X006352Y015826D01*
X006513Y015713D01*
X006668Y015592D01*
X006816Y015464D01*
X006958Y015328D01*
X007094Y015186D01*
X007222Y015038D01*
X007343Y014883D01*
X007456Y014722D01*
X007561Y014556D01*
X007658Y014386D01*
X007746Y014210D01*
X007826Y014031D01*
X007896Y013848D01*
X007958Y013661D01*
X008010Y013472D01*
X008053Y013280D01*
X008087Y013087D01*
X008111Y012892D01*
X008125Y012696D01*
X008130Y012500D01*
X008125Y012304D01*
X008111Y012108D01*
X008087Y011913D01*
X008053Y011720D01*
X008010Y011528D01*
X007958Y011339D01*
X007896Y011152D01*
X007826Y010969D01*
X007746Y010790D01*
X007658Y010614D01*
X007561Y010444D01*
X007456Y010278D01*
X007343Y010117D01*
X007222Y009962D01*
X007094Y009814D01*
X006958Y009672D01*
X006816Y009536D01*
X006668Y009408D01*
X006513Y009287D01*
X006352Y009174D01*
X006186Y009069D01*
X006016Y008972D01*
X005840Y008884D01*
X005661Y008804D01*
X005478Y008734D01*
X005291Y008672D01*
X005102Y008620D01*
X004910Y008577D01*
X004717Y008543D01*
X004522Y008519D01*
X004326Y008505D01*
X004130Y008500D01*
X003934Y008505D01*
X003738Y008519D01*
X003543Y008543D01*
X003350Y008577D01*
X003158Y008620D01*
X002969Y008672D01*
X002782Y008734D01*
X002599Y008804D01*
X002420Y008884D01*
X002244Y008972D01*
X002074Y009069D01*
X001908Y009174D01*
X001747Y009287D01*
X001592Y009408D01*
X001444Y009536D01*
X001302Y009672D01*
X001166Y009814D01*
X001038Y009962D01*
X000917Y010117D01*
X000804Y010278D01*
X000699Y010444D01*
X000602Y010614D01*
X000514Y010790D01*
X000434Y010969D01*
X000364Y011152D01*
X000302Y011339D01*
X000250Y011528D01*
X000207Y011720D01*
X000173Y011913D01*
X000149Y012108D01*
X000135Y012304D01*
X000130Y012500D01*
D14*
X004130Y012880D03*
D15*
X010530Y015550D03*
D16*
X011780Y014700D02*
X011782Y014730D01*
X011787Y014760D01*
X011796Y014789D01*
X011809Y014816D01*
X011824Y014842D01*
X011843Y014866D01*
X011864Y014887D01*
X011888Y014906D01*
X011914Y014921D01*
X011941Y014934D01*
X011970Y014943D01*
X012000Y014948D01*
X012030Y014950D01*
X012060Y014948D01*
X012090Y014943D01*
X012119Y014934D01*
X012146Y014921D01*
X012172Y014906D01*
X012196Y014887D01*
X012217Y014866D01*
X012236Y014842D01*
X012251Y014816D01*
X012264Y014789D01*
X012273Y014760D01*
X012278Y014730D01*
X012280Y014700D01*
X012780Y014700D02*
X012780Y013700D01*
X013280Y013700D01*
X013280Y014700D01*
X013305Y014727D01*
X013326Y014756D01*
X013344Y014787D01*
X013359Y014820D01*
X013371Y014854D01*
X013379Y014890D01*
X013383Y014926D01*
X013384Y014962D01*
X013381Y014998D01*
X013374Y015034D01*
X013364Y015069D01*
X013350Y015102D01*
X013332Y015134D01*
X013312Y015164D01*
X013289Y015192D01*
X013263Y015217D01*
X013234Y015239D01*
X013203Y015259D01*
X013171Y015275D01*
X013137Y015287D01*
X013102Y015297D01*
X013066Y015302D01*
X013030Y015304D01*
X012994Y015302D01*
X012958Y015297D01*
X012923Y015287D01*
X012889Y015275D01*
X012857Y015259D01*
X012826Y015239D01*
X012797Y015217D01*
X012771Y015192D01*
X012748Y015164D01*
X012728Y015134D01*
X012710Y015102D01*
X012696Y015069D01*
X012686Y015034D01*
X012679Y014998D01*
X012676Y014962D01*
X012677Y014926D01*
X012681Y014890D01*
X012689Y014854D01*
X012701Y014820D01*
X012716Y014787D01*
X012734Y014756D01*
X012755Y014727D01*
X012780Y014700D01*
X011780Y014700D02*
X011755Y014632D01*
X011734Y014564D01*
X011716Y014494D01*
X011703Y014423D01*
X011693Y014352D01*
X011686Y014280D01*
X011684Y014208D01*
X011685Y014137D01*
X011691Y014065D01*
X011700Y013993D01*
X011713Y013923D01*
X011730Y013853D01*
X011750Y013784D01*
X011774Y013716D01*
X011802Y013649D01*
X011833Y013585D01*
X011868Y013522D01*
X011905Y013460D01*
X011947Y013401D01*
X011991Y013345D01*
X012038Y013290D01*
X012088Y013239D01*
X012141Y013190D01*
X012196Y013144D01*
X012254Y013100D01*
X012314Y013061D01*
X012375Y013024D01*
X012439Y012991D01*
X012505Y012961D01*
X012572Y012934D01*
X012640Y012912D01*
X012709Y012893D01*
X012780Y012877D01*
X012851Y012866D01*
X012922Y012858D01*
X012994Y012854D01*
X013066Y012854D01*
X013138Y012858D01*
X013209Y012866D01*
X013280Y012877D01*
X013351Y012893D01*
X013420Y012912D01*
X013488Y012934D01*
X013555Y012961D01*
X013621Y012991D01*
X013685Y013024D01*
X013746Y013061D01*
X013806Y013100D01*
X013864Y013144D01*
X013919Y013190D01*
X013972Y013239D01*
X014022Y013290D01*
X014069Y013345D01*
X014113Y013401D01*
X014155Y013460D01*
X014192Y013522D01*
X014227Y013585D01*
X014258Y013649D01*
X014286Y013716D01*
X014310Y013784D01*
X014330Y013853D01*
X014347Y013923D01*
X014360Y013993D01*
X014369Y014065D01*
X014375Y014137D01*
X014376Y014208D01*
X014374Y014280D01*
X014367Y014352D01*
X014357Y014423D01*
X014344Y014494D01*
X014326Y014564D01*
X014305Y014632D01*
X014280Y014700D01*
X014278Y014730D01*
X014273Y014760D01*
X014264Y014789D01*
X014251Y014816D01*
X014236Y014842D01*
X014217Y014866D01*
X014196Y014887D01*
X014172Y014906D01*
X014146Y014921D01*
X014119Y014934D01*
X014090Y014943D01*
X014060Y014948D01*
X014030Y014950D01*
X014000Y014948D01*
X013970Y014943D01*
X013941Y014934D01*
X013914Y014921D01*
X013888Y014906D01*
X013864Y014887D01*
X013843Y014866D01*
X013824Y014842D01*
X013809Y014816D01*
X013796Y014789D01*
X013787Y014760D01*
X013782Y014730D01*
X013780Y014700D01*
X013811Y014650D01*
X013838Y014598D01*
X013863Y014544D01*
X013883Y014489D01*
X013901Y014432D01*
X013914Y014375D01*
X013923Y014317D01*
X013929Y014258D01*
X013931Y014199D01*
X013929Y014140D01*
X013923Y014082D01*
X013914Y014024D01*
X013900Y013966D01*
X013883Y013910D01*
X013862Y013855D01*
X013838Y013801D01*
X013810Y013749D01*
X013779Y013699D01*
X013745Y013651D01*
X013707Y013606D01*
X013667Y013563D01*
X013624Y013522D01*
X013578Y013485D01*
X013530Y013451D01*
X013480Y013420D01*
X013428Y013392D01*
X013375Y013368D01*
X013319Y013347D01*
X013263Y013330D01*
X013206Y013316D01*
X013148Y013307D01*
X013089Y013301D01*
X013030Y013299D01*
X012971Y013301D01*
X012912Y013307D01*
X012854Y013316D01*
X012797Y013330D01*
X012741Y013347D01*
X012685Y013368D01*
X012632Y013392D01*
X012580Y013420D01*
X012530Y013451D01*
X012482Y013485D01*
X012436Y013522D01*
X012393Y013563D01*
X012353Y013606D01*
X012315Y013651D01*
X012281Y013699D01*
X012250Y013749D01*
X012222Y013801D01*
X012198Y013855D01*
X012177Y013910D01*
X012160Y013966D01*
X012146Y014024D01*
X012137Y014082D01*
X012131Y014140D01*
X012129Y014199D01*
X012131Y014258D01*
X012137Y014317D01*
X012146Y014375D01*
X012159Y014432D01*
X012177Y014489D01*
X012197Y014544D01*
X012222Y014598D01*
X012249Y014650D01*
X012280Y014700D01*
X012530Y015450D02*
X012543Y015492D01*
X012559Y015533D01*
X012578Y015573D01*
X012601Y015610D01*
X012627Y015646D01*
X012656Y015679D01*
X012688Y015710D01*
X012722Y015738D01*
X012758Y015762D01*
X012797Y015784D01*
X012837Y015802D01*
X012878Y015817D01*
X012921Y015828D01*
X012964Y015836D01*
X013008Y015840D01*
X013052Y015840D01*
X013096Y015836D01*
X013139Y015828D01*
X013182Y015817D01*
X013223Y015802D01*
X013263Y015784D01*
X013302Y015762D01*
X013338Y015738D01*
X013372Y015710D01*
X013404Y015679D01*
X013433Y015646D01*
X013459Y015610D01*
X013482Y015573D01*
X013501Y015533D01*
X013517Y015492D01*
X013530Y015450D01*
X013780Y015450D02*
X013769Y015504D01*
X013754Y015556D01*
X013735Y015608D01*
X013713Y015658D01*
X013687Y015706D01*
X013658Y015753D01*
X013626Y015797D01*
X013590Y015838D01*
X013552Y015878D01*
X013511Y015914D01*
X013467Y015947D01*
X013421Y015977D01*
X013373Y016003D01*
X013323Y016026D01*
X013272Y016045D01*
X013220Y016061D01*
X013166Y016073D01*
X013112Y016081D01*
X013057Y016085D01*
X013003Y016085D01*
X012948Y016081D01*
X012894Y016073D01*
X012840Y016061D01*
X012788Y016045D01*
X012737Y016026D01*
X012687Y016003D01*
X012639Y015977D01*
X012593Y015947D01*
X012549Y015914D01*
X012508Y015878D01*
X012470Y015838D01*
X012434Y015797D01*
X012402Y015753D01*
X012373Y015706D01*
X012347Y015658D01*
X012325Y015608D01*
X012306Y015556D01*
X012291Y015504D01*
X012280Y015450D01*
X012780Y015450D02*
X012796Y015478D01*
X012815Y015505D01*
X012838Y015528D01*
X012863Y015549D01*
X012890Y015567D01*
X012919Y015582D01*
X012950Y015593D01*
X012981Y015601D01*
X013014Y015605D01*
X013046Y015605D01*
X013079Y015601D01*
X013110Y015593D01*
X013141Y015582D01*
X013170Y015567D01*
X013197Y015549D01*
X013222Y015528D01*
X013245Y015505D01*
X013264Y015478D01*
X013280Y015450D01*
D17*
X012392Y010100D02*
X012368Y010100D01*
M02*
