%
M48
M72
T01C0.0400
T02C0.0790
T03C0.1180
T04C0.1300
%
T01
X10630Y8500
X10630Y9500
X10630Y10500
X13630Y10950
X13630Y12050
X13630Y8550
X13630Y7450
X10180Y18000
X9080Y18000
X6680Y18000
X5580Y18000
T02
X4130Y14500
X4130Y10500
T03
X9130Y5894
X9130Y3531
X10980Y4713
T04
X1630Y3000
X1630Y17500
X13130Y17500
X13130Y3000
M30
