G75*
G70*
%OFA0B0*%
%FSLAX24Y24*%
%IPPOS*%
%LPD*%
%AMOC8*
5,1,8,0,0,1.08239X$1,22.5*
%
%ADD10C,0.0980*%
%ADD11C,0.0820*%
%ADD12C,0.0434*%
%ADD13C,0.1780*%
%ADD14C,0.0720*%
%ADD15OC8,0.1320*%
%ADD16C,0.1320*%
%ADD17C,0.0631*%
%ADD18C,0.0940*%
D10*
X003574Y008241D03*
X003574Y039501D03*
X051074Y039501D03*
X051074Y008241D03*
D11*
X033974Y016600D03*
X033874Y017600D03*
X033974Y018600D03*
X033874Y019600D03*
X033974Y020600D03*
D12*
X016891Y005500D03*
X015158Y005500D03*
D13*
X046824Y005431D03*
X048675Y006613D03*
X046824Y007794D03*
D14*
X040544Y018600D02*
X039904Y018600D01*
X039904Y019600D02*
X040544Y019600D01*
X040544Y020600D02*
X039904Y020600D01*
D15*
X046324Y018200D03*
D16*
X046324Y021200D03*
D17*
X043037Y005400D03*
X033612Y005400D03*
D18*
X033757Y037800D03*
X031757Y037800D03*
X029757Y037800D03*
X027757Y037800D03*
X025657Y037800D03*
X023657Y037800D03*
X021657Y037800D03*
X019657Y037800D03*
X017557Y037800D03*
X015557Y037800D03*
X013557Y037800D03*
X011557Y037800D03*
X011557Y041800D03*
X013557Y041800D03*
X015557Y041800D03*
X017557Y041800D03*
X019657Y041800D03*
X021657Y041800D03*
X023657Y041800D03*
X025657Y041800D03*
X027757Y041800D03*
X029757Y041800D03*
X031757Y041800D03*
X033757Y041800D03*
X035857Y041800D03*
X037857Y041800D03*
X039857Y041800D03*
X041857Y041800D03*
X041857Y037800D03*
X039857Y037800D03*
X037857Y037800D03*
X035857Y037800D03*
M02*
