G75*
G70*
%OFA0B0*%
%FSLAX24Y24*%
%IPPOS*%
%LPD*%
%AMOC8*
5,1,8,0,0,1.08239X$1,22.5*
%
%ADD10C,0.0000*%
%ADD11R,0.0059X0.0551*%
%ADD12R,0.0551X0.0059*%
%ADD13R,0.0433X0.0394*%
%ADD14R,0.0472X0.0984*%
%ADD15R,0.0394X0.0433*%
%ADD16R,0.0315X0.0315*%
%ADD17R,0.0748X0.0433*%
%ADD18R,0.0335X0.0315*%
%ADD19R,0.0701X0.0598*%
%ADD20R,0.0480X0.0880*%
%ADD21R,0.1417X0.0866*%
%ADD22R,0.0197X0.0984*%
%ADD23R,0.0787X0.0984*%
%ADD24R,0.0591X0.0669*%
%ADD25R,0.0630X0.0787*%
%ADD26R,0.0512X0.0866*%
%ADD27R,0.0354X0.0827*%
%ADD28R,0.0315X0.0472*%
%ADD29R,0.0445X0.0354*%
%ADD30R,0.0445X0.0591*%
%ADD31R,0.1701X0.1260*%
%ADD32R,0.0551X0.0630*%
%ADD33R,0.1500X0.1669*%
D10*
X002324Y003400D02*
X002324Y043160D01*
X052324Y043160D01*
X052324Y003400D01*
X002324Y003400D01*
X003124Y008241D02*
X003126Y008283D01*
X003132Y008325D01*
X003142Y008366D01*
X003155Y008406D01*
X003173Y008444D01*
X003193Y008481D01*
X003218Y008516D01*
X003245Y008548D01*
X003275Y008577D01*
X003308Y008604D01*
X003343Y008627D01*
X003380Y008647D01*
X003419Y008663D01*
X003459Y008676D01*
X003500Y008685D01*
X003542Y008690D01*
X003585Y008691D01*
X003627Y008688D01*
X003668Y008681D01*
X003709Y008670D01*
X003749Y008656D01*
X003787Y008638D01*
X003823Y008616D01*
X003857Y008591D01*
X003888Y008563D01*
X003917Y008532D01*
X003943Y008499D01*
X003965Y008463D01*
X003985Y008425D01*
X004000Y008386D01*
X004012Y008346D01*
X004020Y008304D01*
X004024Y008262D01*
X004024Y008220D01*
X004020Y008178D01*
X004012Y008136D01*
X004000Y008096D01*
X003985Y008057D01*
X003965Y008019D01*
X003943Y007983D01*
X003917Y007950D01*
X003888Y007919D01*
X003857Y007891D01*
X003823Y007866D01*
X003787Y007844D01*
X003749Y007826D01*
X003709Y007812D01*
X003668Y007801D01*
X003627Y007794D01*
X003585Y007791D01*
X003542Y007792D01*
X003500Y007797D01*
X003459Y007806D01*
X003419Y007819D01*
X003380Y007835D01*
X003343Y007855D01*
X003308Y007878D01*
X003275Y007905D01*
X003245Y007934D01*
X003218Y007966D01*
X003193Y008001D01*
X003173Y008038D01*
X003155Y008076D01*
X003142Y008116D01*
X003132Y008157D01*
X003126Y008199D01*
X003124Y008241D01*
X014981Y005500D02*
X014983Y005526D01*
X014989Y005552D01*
X014999Y005577D01*
X015012Y005600D01*
X015028Y005620D01*
X015048Y005638D01*
X015070Y005653D01*
X015093Y005665D01*
X015119Y005673D01*
X015145Y005677D01*
X015171Y005677D01*
X015197Y005673D01*
X015223Y005665D01*
X015247Y005653D01*
X015268Y005638D01*
X015288Y005620D01*
X015304Y005600D01*
X015317Y005577D01*
X015327Y005552D01*
X015333Y005526D01*
X015335Y005500D01*
X015333Y005474D01*
X015327Y005448D01*
X015317Y005423D01*
X015304Y005400D01*
X015288Y005380D01*
X015268Y005362D01*
X015246Y005347D01*
X015223Y005335D01*
X015197Y005327D01*
X015171Y005323D01*
X015145Y005323D01*
X015119Y005327D01*
X015093Y005335D01*
X015069Y005347D01*
X015048Y005362D01*
X015028Y005380D01*
X015012Y005400D01*
X014999Y005423D01*
X014989Y005448D01*
X014983Y005474D01*
X014981Y005500D01*
X016714Y005500D02*
X016716Y005526D01*
X016722Y005552D01*
X016732Y005577D01*
X016745Y005600D01*
X016761Y005620D01*
X016781Y005638D01*
X016803Y005653D01*
X016826Y005665D01*
X016852Y005673D01*
X016878Y005677D01*
X016904Y005677D01*
X016930Y005673D01*
X016956Y005665D01*
X016980Y005653D01*
X017001Y005638D01*
X017021Y005620D01*
X017037Y005600D01*
X017050Y005577D01*
X017060Y005552D01*
X017066Y005526D01*
X017068Y005500D01*
X017066Y005474D01*
X017060Y005448D01*
X017050Y005423D01*
X017037Y005400D01*
X017021Y005380D01*
X017001Y005362D01*
X016979Y005347D01*
X016956Y005335D01*
X016930Y005327D01*
X016904Y005323D01*
X016878Y005323D01*
X016852Y005327D01*
X016826Y005335D01*
X016802Y005347D01*
X016781Y005362D01*
X016761Y005380D01*
X016745Y005400D01*
X016732Y005423D01*
X016722Y005448D01*
X016716Y005474D01*
X016714Y005500D01*
X033336Y005400D02*
X033338Y005433D01*
X033344Y005465D01*
X033353Y005496D01*
X033366Y005526D01*
X033383Y005554D01*
X033403Y005580D01*
X033426Y005604D01*
X033451Y005624D01*
X033479Y005642D01*
X033508Y005656D01*
X033539Y005666D01*
X033571Y005673D01*
X033604Y005676D01*
X033637Y005675D01*
X033669Y005670D01*
X033700Y005661D01*
X033731Y005649D01*
X033759Y005633D01*
X033786Y005614D01*
X033810Y005592D01*
X033831Y005567D01*
X033850Y005540D01*
X033865Y005511D01*
X033876Y005481D01*
X033884Y005449D01*
X033888Y005416D01*
X033888Y005384D01*
X033884Y005351D01*
X033876Y005319D01*
X033865Y005289D01*
X033850Y005260D01*
X033831Y005233D01*
X033810Y005208D01*
X033786Y005186D01*
X033759Y005167D01*
X033731Y005151D01*
X033700Y005139D01*
X033669Y005130D01*
X033637Y005125D01*
X033604Y005124D01*
X033571Y005127D01*
X033539Y005134D01*
X033508Y005144D01*
X033479Y005158D01*
X033451Y005176D01*
X033426Y005196D01*
X033403Y005220D01*
X033383Y005246D01*
X033366Y005274D01*
X033353Y005304D01*
X033344Y005335D01*
X033338Y005367D01*
X033336Y005400D01*
X042761Y005400D02*
X042763Y005433D01*
X042769Y005465D01*
X042778Y005496D01*
X042791Y005526D01*
X042808Y005554D01*
X042828Y005580D01*
X042851Y005604D01*
X042876Y005624D01*
X042904Y005642D01*
X042933Y005656D01*
X042964Y005666D01*
X042996Y005673D01*
X043029Y005676D01*
X043062Y005675D01*
X043094Y005670D01*
X043125Y005661D01*
X043156Y005649D01*
X043184Y005633D01*
X043211Y005614D01*
X043235Y005592D01*
X043256Y005567D01*
X043275Y005540D01*
X043290Y005511D01*
X043301Y005481D01*
X043309Y005449D01*
X043313Y005416D01*
X043313Y005384D01*
X043309Y005351D01*
X043301Y005319D01*
X043290Y005289D01*
X043275Y005260D01*
X043256Y005233D01*
X043235Y005208D01*
X043211Y005186D01*
X043184Y005167D01*
X043156Y005151D01*
X043125Y005139D01*
X043094Y005130D01*
X043062Y005125D01*
X043029Y005124D01*
X042996Y005127D01*
X042964Y005134D01*
X042933Y005144D01*
X042904Y005158D01*
X042876Y005176D01*
X042851Y005196D01*
X042828Y005220D01*
X042808Y005246D01*
X042791Y005274D01*
X042778Y005304D01*
X042769Y005335D01*
X042763Y005367D01*
X042761Y005400D01*
X050624Y008241D02*
X050626Y008283D01*
X050632Y008325D01*
X050642Y008366D01*
X050655Y008406D01*
X050673Y008444D01*
X050693Y008481D01*
X050718Y008516D01*
X050745Y008548D01*
X050775Y008577D01*
X050808Y008604D01*
X050843Y008627D01*
X050880Y008647D01*
X050919Y008663D01*
X050959Y008676D01*
X051000Y008685D01*
X051042Y008690D01*
X051085Y008691D01*
X051127Y008688D01*
X051168Y008681D01*
X051209Y008670D01*
X051249Y008656D01*
X051287Y008638D01*
X051323Y008616D01*
X051357Y008591D01*
X051388Y008563D01*
X051417Y008532D01*
X051443Y008499D01*
X051465Y008463D01*
X051485Y008425D01*
X051500Y008386D01*
X051512Y008346D01*
X051520Y008304D01*
X051524Y008262D01*
X051524Y008220D01*
X051520Y008178D01*
X051512Y008136D01*
X051500Y008096D01*
X051485Y008057D01*
X051465Y008019D01*
X051443Y007983D01*
X051417Y007950D01*
X051388Y007919D01*
X051357Y007891D01*
X051323Y007866D01*
X051287Y007844D01*
X051249Y007826D01*
X051209Y007812D01*
X051168Y007801D01*
X051127Y007794D01*
X051085Y007791D01*
X051042Y007792D01*
X051000Y007797D01*
X050959Y007806D01*
X050919Y007819D01*
X050880Y007835D01*
X050843Y007855D01*
X050808Y007878D01*
X050775Y007905D01*
X050745Y007934D01*
X050718Y007966D01*
X050693Y008001D01*
X050673Y008038D01*
X050655Y008076D01*
X050642Y008116D01*
X050632Y008157D01*
X050626Y008199D01*
X050624Y008241D01*
X050624Y039501D02*
X050626Y039543D01*
X050632Y039585D01*
X050642Y039626D01*
X050655Y039666D01*
X050673Y039704D01*
X050693Y039741D01*
X050718Y039776D01*
X050745Y039808D01*
X050775Y039837D01*
X050808Y039864D01*
X050843Y039887D01*
X050880Y039907D01*
X050919Y039923D01*
X050959Y039936D01*
X051000Y039945D01*
X051042Y039950D01*
X051085Y039951D01*
X051127Y039948D01*
X051168Y039941D01*
X051209Y039930D01*
X051249Y039916D01*
X051287Y039898D01*
X051323Y039876D01*
X051357Y039851D01*
X051388Y039823D01*
X051417Y039792D01*
X051443Y039759D01*
X051465Y039723D01*
X051485Y039685D01*
X051500Y039646D01*
X051512Y039606D01*
X051520Y039564D01*
X051524Y039522D01*
X051524Y039480D01*
X051520Y039438D01*
X051512Y039396D01*
X051500Y039356D01*
X051485Y039317D01*
X051465Y039279D01*
X051443Y039243D01*
X051417Y039210D01*
X051388Y039179D01*
X051357Y039151D01*
X051323Y039126D01*
X051287Y039104D01*
X051249Y039086D01*
X051209Y039072D01*
X051168Y039061D01*
X051127Y039054D01*
X051085Y039051D01*
X051042Y039052D01*
X051000Y039057D01*
X050959Y039066D01*
X050919Y039079D01*
X050880Y039095D01*
X050843Y039115D01*
X050808Y039138D01*
X050775Y039165D01*
X050745Y039194D01*
X050718Y039226D01*
X050693Y039261D01*
X050673Y039298D01*
X050655Y039336D01*
X050642Y039376D01*
X050632Y039417D01*
X050626Y039459D01*
X050624Y039501D01*
X003124Y039501D02*
X003126Y039543D01*
X003132Y039585D01*
X003142Y039626D01*
X003155Y039666D01*
X003173Y039704D01*
X003193Y039741D01*
X003218Y039776D01*
X003245Y039808D01*
X003275Y039837D01*
X003308Y039864D01*
X003343Y039887D01*
X003380Y039907D01*
X003419Y039923D01*
X003459Y039936D01*
X003500Y039945D01*
X003542Y039950D01*
X003585Y039951D01*
X003627Y039948D01*
X003668Y039941D01*
X003709Y039930D01*
X003749Y039916D01*
X003787Y039898D01*
X003823Y039876D01*
X003857Y039851D01*
X003888Y039823D01*
X003917Y039792D01*
X003943Y039759D01*
X003965Y039723D01*
X003985Y039685D01*
X004000Y039646D01*
X004012Y039606D01*
X004020Y039564D01*
X004024Y039522D01*
X004024Y039480D01*
X004020Y039438D01*
X004012Y039396D01*
X004000Y039356D01*
X003985Y039317D01*
X003965Y039279D01*
X003943Y039243D01*
X003917Y039210D01*
X003888Y039179D01*
X003857Y039151D01*
X003823Y039126D01*
X003787Y039104D01*
X003749Y039086D01*
X003709Y039072D01*
X003668Y039061D01*
X003627Y039054D01*
X003585Y039051D01*
X003542Y039052D01*
X003500Y039057D01*
X003459Y039066D01*
X003419Y039079D01*
X003380Y039095D01*
X003343Y039115D01*
X003308Y039138D01*
X003275Y039165D01*
X003245Y039194D01*
X003218Y039226D01*
X003193Y039261D01*
X003173Y039298D01*
X003155Y039336D01*
X003142Y039376D01*
X003132Y039417D01*
X003126Y039459D01*
X003124Y039501D01*
D11*
X021635Y017338D03*
X021792Y017338D03*
X021950Y017338D03*
X022107Y017338D03*
X022265Y017338D03*
X022422Y017338D03*
X022580Y017338D03*
X022737Y017338D03*
X022894Y017338D03*
X023052Y017338D03*
X023209Y017338D03*
X023367Y017338D03*
X023524Y017338D03*
X023682Y017338D03*
X023839Y017338D03*
X023997Y017338D03*
X024154Y017338D03*
X024312Y017338D03*
X024469Y017338D03*
X024627Y017338D03*
X024784Y017338D03*
X024942Y017338D03*
X025099Y017338D03*
X025257Y017338D03*
X025414Y017338D03*
X025414Y012062D03*
X025257Y012062D03*
X025099Y012062D03*
X024942Y012062D03*
X024784Y012062D03*
X024627Y012062D03*
X024469Y012062D03*
X024312Y012062D03*
X024154Y012062D03*
X023997Y012062D03*
X023839Y012062D03*
X023682Y012062D03*
X023524Y012062D03*
X023367Y012062D03*
X023209Y012062D03*
X023052Y012062D03*
X022894Y012062D03*
X022737Y012062D03*
X022580Y012062D03*
X022422Y012062D03*
X022265Y012062D03*
X022107Y012062D03*
X021950Y012062D03*
X021792Y012062D03*
X021635Y012062D03*
D12*
X020887Y012810D03*
X020887Y012968D03*
X020887Y013125D03*
X020887Y013283D03*
X020887Y013440D03*
X020887Y013598D03*
X020887Y013755D03*
X020887Y013913D03*
X020887Y014070D03*
X020887Y014228D03*
X020887Y014385D03*
X020887Y014543D03*
X020887Y014700D03*
X020887Y014857D03*
X020887Y015015D03*
X020887Y015172D03*
X020887Y015330D03*
X020887Y015487D03*
X020887Y015645D03*
X020887Y015802D03*
X020887Y015960D03*
X020887Y016117D03*
X020887Y016275D03*
X020887Y016432D03*
X020887Y016590D03*
X026162Y016590D03*
X026162Y016432D03*
X026162Y016275D03*
X026162Y016117D03*
X026162Y015960D03*
X026162Y015802D03*
X026162Y015645D03*
X026162Y015487D03*
X026162Y015330D03*
X026162Y015172D03*
X026162Y015015D03*
X026162Y014857D03*
X026162Y014700D03*
X026162Y014543D03*
X026162Y014385D03*
X026162Y014228D03*
X026162Y014070D03*
X026162Y013913D03*
X026162Y013755D03*
X026162Y013598D03*
X026162Y013440D03*
X026162Y013283D03*
X026162Y013125D03*
X026162Y012968D03*
X026162Y012810D03*
D13*
X026590Y012100D03*
X027259Y012100D03*
X027290Y015300D03*
X027959Y015300D03*
X026859Y017400D03*
X026190Y017400D03*
X024859Y020700D03*
X024190Y020700D03*
X022859Y020700D03*
X022190Y020700D03*
X017459Y016000D03*
X016790Y016000D03*
X017590Y013300D03*
X018259Y013300D03*
X018990Y013300D03*
X019659Y013300D03*
X019490Y009700D03*
X020159Y009700D03*
X020790Y009700D03*
X021459Y009700D03*
X021459Y007900D03*
X020790Y007900D03*
X020159Y007900D03*
X019490Y007900D03*
X018859Y007900D03*
X018190Y007900D03*
X010359Y018500D03*
X009690Y018500D03*
X008659Y018500D03*
X007990Y018500D03*
X005759Y018500D03*
X005090Y018500D03*
X004159Y018500D03*
X003490Y018500D03*
X003759Y013700D03*
X003090Y013700D03*
X003090Y012200D03*
X003759Y012200D03*
X003859Y031100D03*
X003190Y031100D03*
X007190Y031100D03*
X007859Y031100D03*
X011190Y031100D03*
X011859Y031100D03*
X015190Y031100D03*
X015859Y031100D03*
X019190Y031100D03*
X019859Y031100D03*
X023190Y031100D03*
X023859Y031100D03*
X027240Y031100D03*
X027909Y031100D03*
X031240Y031100D03*
X031909Y031100D03*
X035190Y031100D03*
X035859Y031100D03*
X039240Y031100D03*
X039909Y031100D03*
X043340Y031100D03*
X044009Y031100D03*
X047340Y031100D03*
X048009Y031100D03*
X037559Y020200D03*
X036890Y020200D03*
X036159Y015600D03*
X035490Y015600D03*
D14*
X018074Y014800D03*
X016775Y014800D03*
D15*
X019224Y012135D03*
X019224Y011465D03*
X020224Y011465D03*
X020224Y012135D03*
X020024Y019565D03*
X020024Y020235D03*
X021424Y020235D03*
X021424Y019565D03*
X016724Y020765D03*
X016724Y021435D03*
X015324Y021435D03*
X015324Y020765D03*
X013924Y020765D03*
X013924Y021435D03*
X012524Y021435D03*
X012524Y020765D03*
X010124Y017235D03*
X010124Y016565D03*
X008924Y016565D03*
X008924Y017235D03*
X007724Y017235D03*
X007724Y016565D03*
X006724Y016565D03*
X006724Y017235D03*
X007424Y024765D03*
X007424Y025435D03*
X011424Y025435D03*
X011424Y024765D03*
X015424Y024765D03*
X015424Y025435D03*
X019424Y025435D03*
X019424Y024765D03*
X023424Y024765D03*
X023424Y025435D03*
X027424Y025435D03*
X027424Y024765D03*
X031424Y024765D03*
X031424Y025435D03*
X035424Y025435D03*
X035424Y024765D03*
X039424Y024765D03*
X039424Y025435D03*
X043424Y025435D03*
X043424Y024765D03*
X047424Y024765D03*
X047424Y025435D03*
X038024Y019285D03*
X038024Y018615D03*
X003424Y024765D03*
X003424Y025435D03*
D16*
X012524Y019795D03*
X012524Y019205D03*
X013924Y019205D03*
X013924Y019795D03*
X015324Y019795D03*
X015324Y019205D03*
X016724Y019205D03*
X016724Y019795D03*
X036929Y021200D03*
X037520Y021200D03*
D17*
X024253Y019653D03*
X024253Y018747D03*
X022796Y018747D03*
X022796Y019653D03*
D18*
X013013Y015219D03*
X013013Y014719D03*
X013013Y014219D03*
X013013Y013719D03*
X013013Y013219D03*
X013013Y012719D03*
X013013Y012219D03*
X013013Y011719D03*
X013013Y011219D03*
X013013Y010719D03*
X013013Y010219D03*
X013013Y009719D03*
X013013Y009219D03*
X013013Y008719D03*
X013013Y008219D03*
X013013Y007719D03*
X013013Y007219D03*
X013013Y006719D03*
X004903Y006719D03*
X004903Y007219D03*
X004903Y007719D03*
X004903Y008219D03*
X004903Y008719D03*
X004903Y009219D03*
X004903Y009719D03*
X004903Y010219D03*
X004903Y010719D03*
X004903Y011219D03*
X004903Y011719D03*
X004903Y012219D03*
X004903Y012719D03*
X004903Y013219D03*
X004903Y013719D03*
X004903Y014219D03*
X004903Y014719D03*
X004903Y015219D03*
D19*
X004424Y026271D03*
X003424Y026271D03*
X005424Y026271D03*
X007424Y026271D03*
X008424Y026271D03*
X009424Y026271D03*
X011424Y026271D03*
X012424Y026271D03*
X013424Y026271D03*
X015424Y026271D03*
X016424Y026271D03*
X017424Y026271D03*
X019424Y026271D03*
X020424Y026271D03*
X021424Y026271D03*
X023424Y026271D03*
X024424Y026271D03*
X025424Y026271D03*
X027424Y026271D03*
X028424Y026271D03*
X029424Y026271D03*
X031424Y026271D03*
X032424Y026271D03*
X033424Y026271D03*
X035424Y026271D03*
X036424Y026271D03*
X037424Y026271D03*
X039424Y026271D03*
X040424Y026271D03*
X041424Y026271D03*
X043424Y026271D03*
X044424Y026271D03*
X045424Y026271D03*
X047424Y026271D03*
X048424Y026271D03*
X049424Y026271D03*
X049424Y029929D03*
X048424Y029929D03*
X047424Y029929D03*
X045424Y029929D03*
X044424Y029929D03*
X043424Y029929D03*
X041424Y029929D03*
X040424Y029929D03*
X039424Y029929D03*
X037424Y029929D03*
X036424Y029929D03*
X035424Y029929D03*
X033424Y029929D03*
X032424Y029929D03*
X031424Y029929D03*
X029424Y029929D03*
X028424Y029929D03*
X027424Y029929D03*
X025424Y029929D03*
X024424Y029929D03*
X023424Y029929D03*
X021424Y029929D03*
X020424Y029929D03*
X019424Y029929D03*
X017424Y029929D03*
X016424Y029929D03*
X015424Y029929D03*
X013424Y029929D03*
X012424Y029929D03*
X011424Y029929D03*
X009424Y029929D03*
X008424Y029929D03*
X007424Y029929D03*
X005424Y029929D03*
X004424Y029929D03*
X003424Y029929D03*
D20*
X003714Y032380D03*
X004624Y032380D03*
X005534Y032380D03*
X007714Y032380D03*
X008624Y032380D03*
X009534Y032380D03*
X011714Y032380D03*
X012624Y032380D03*
X013534Y032380D03*
X015714Y032380D03*
X016624Y032380D03*
X017534Y032380D03*
X019714Y032380D03*
X020624Y032380D03*
X021534Y032380D03*
X023714Y032380D03*
X024624Y032380D03*
X025534Y032380D03*
X027714Y032380D03*
X028624Y032380D03*
X029534Y032380D03*
X031714Y032380D03*
X032624Y032380D03*
X033534Y032380D03*
X035714Y032380D03*
X036624Y032380D03*
X037534Y032380D03*
X039714Y032380D03*
X040624Y032380D03*
X041534Y032380D03*
X043764Y032380D03*
X044674Y032380D03*
X045584Y032380D03*
X047764Y032380D03*
X048674Y032380D03*
X049584Y032380D03*
D21*
X048674Y034820D03*
X044674Y034820D03*
X040624Y034820D03*
X036624Y034820D03*
X032624Y034820D03*
X028624Y034820D03*
X024624Y034820D03*
X020624Y034820D03*
X016624Y034820D03*
X012624Y034820D03*
X008624Y034820D03*
X004624Y034820D03*
D22*
X015394Y006484D03*
X015709Y006484D03*
X016024Y006484D03*
X016339Y006484D03*
X016654Y006484D03*
D23*
X017796Y006484D03*
X017796Y004319D03*
X014253Y004319D03*
X014253Y006484D03*
D24*
X046020Y011778D03*
X048028Y011778D03*
X048028Y015322D03*
X046020Y015322D03*
D25*
X037976Y017700D03*
X036873Y017700D03*
D26*
X021531Y018700D03*
X019917Y018700D03*
D27*
X034242Y014298D03*
X034911Y014298D03*
X035866Y014298D03*
X036850Y014298D03*
X037834Y014298D03*
X038819Y014298D03*
X039803Y014298D03*
X040787Y014298D03*
X041771Y014298D03*
D28*
X033612Y014239D03*
D29*
X033094Y011258D03*
D30*
X033094Y006018D03*
D31*
X033722Y004199D03*
X043084Y004199D03*
D32*
X010310Y019425D03*
X008539Y019425D03*
X005710Y019425D03*
X003939Y019425D03*
X003939Y022575D03*
X005710Y022575D03*
X008539Y022575D03*
X010310Y022575D03*
D33*
X051174Y014704D03*
X051174Y012196D03*
M02*
