G75*
G70*
%OFA0B0*%
%FSLAX24Y24*%
%IPPOS*%
%LPD*%
%AMOC8*
5,1,8,0,0,1.08239X$1,22.5*
%
%ADD10C,0.0980*%
%ADD11R,0.0159X0.0671*%
%ADD12R,0.0671X0.0159*%
%ADD13R,0.0513X0.0474*%
%ADD14R,0.0552X0.1064*%
%ADD15R,0.0474X0.0513*%
%ADD16R,0.0395X0.0395*%
%ADD17R,0.0828X0.0513*%
%ADD18R,0.0415X0.0395*%
%ADD19R,0.0781X0.0678*%
%ADD20R,0.0560X0.0960*%
%ADD21R,0.1497X0.0946*%
%ADD22C,0.0820*%
%ADD23R,0.0277X0.1064*%
%ADD24R,0.0867X0.1064*%
%ADD25C,0.0434*%
%ADD26C,0.1780*%
%ADD27R,0.0671X0.0749*%
%ADD28C,0.0720*%
%ADD29OC8,0.1320*%
%ADD30C,0.1320*%
%ADD31R,0.0710X0.0867*%
%ADD32R,0.0592X0.0946*%
%ADD33R,0.0434X0.0907*%
%ADD34R,0.0395X0.0552*%
%ADD35R,0.0525X0.0434*%
%ADD36R,0.0525X0.0671*%
%ADD37R,0.1781X0.1340*%
%ADD38C,0.0631*%
%ADD39R,0.0631X0.0710*%
%ADD40C,0.0940*%
%ADD41R,0.1580X0.1749*%
D10*
X003574Y008241D03*
X003574Y039501D03*
X051074Y039501D03*
X051074Y008241D03*
D11*
X025414Y012062D03*
X025257Y012062D03*
X025099Y012062D03*
X024942Y012062D03*
X024784Y012062D03*
X024627Y012062D03*
X024469Y012062D03*
X024312Y012062D03*
X024154Y012062D03*
X023997Y012062D03*
X023839Y012062D03*
X023682Y012062D03*
X023524Y012062D03*
X023367Y012062D03*
X023209Y012062D03*
X023052Y012062D03*
X022894Y012062D03*
X022737Y012062D03*
X022580Y012062D03*
X022422Y012062D03*
X022265Y012062D03*
X022107Y012062D03*
X021950Y012062D03*
X021792Y012062D03*
X021635Y012062D03*
X021635Y017338D03*
X021792Y017338D03*
X021950Y017338D03*
X022107Y017338D03*
X022265Y017338D03*
X022422Y017338D03*
X022580Y017338D03*
X022737Y017338D03*
X022894Y017338D03*
X023052Y017338D03*
X023209Y017338D03*
X023367Y017338D03*
X023524Y017338D03*
X023682Y017338D03*
X023839Y017338D03*
X023997Y017338D03*
X024154Y017338D03*
X024312Y017338D03*
X024469Y017338D03*
X024627Y017338D03*
X024784Y017338D03*
X024942Y017338D03*
X025099Y017338D03*
X025257Y017338D03*
X025414Y017338D03*
D12*
X026162Y016590D03*
X026162Y016432D03*
X026162Y016275D03*
X026162Y016117D03*
X026162Y015960D03*
X026162Y015802D03*
X026162Y015645D03*
X026162Y015487D03*
X026162Y015330D03*
X026162Y015172D03*
X026162Y015015D03*
X026162Y014857D03*
X026162Y014700D03*
X026162Y014543D03*
X026162Y014385D03*
X026162Y014228D03*
X026162Y014070D03*
X026162Y013913D03*
X026162Y013755D03*
X026162Y013598D03*
X026162Y013440D03*
X026162Y013283D03*
X026162Y013125D03*
X026162Y012968D03*
X026162Y012810D03*
X020887Y012810D03*
X020887Y012968D03*
X020887Y013125D03*
X020887Y013283D03*
X020887Y013440D03*
X020887Y013598D03*
X020887Y013755D03*
X020887Y013913D03*
X020887Y014070D03*
X020887Y014228D03*
X020887Y014385D03*
X020887Y014543D03*
X020887Y014700D03*
X020887Y014857D03*
X020887Y015015D03*
X020887Y015172D03*
X020887Y015330D03*
X020887Y015487D03*
X020887Y015645D03*
X020887Y015802D03*
X020887Y015960D03*
X020887Y016117D03*
X020887Y016275D03*
X020887Y016432D03*
X020887Y016590D03*
D13*
X017459Y016000D03*
X016790Y016000D03*
X017590Y013300D03*
X018259Y013300D03*
X018990Y013300D03*
X019659Y013300D03*
X019490Y009700D03*
X020159Y009700D03*
X020790Y009700D03*
X021459Y009700D03*
X021459Y007900D03*
X020790Y007900D03*
X020159Y007900D03*
X019490Y007900D03*
X018859Y007900D03*
X018190Y007900D03*
X026590Y012100D03*
X027259Y012100D03*
X027290Y015300D03*
X027959Y015300D03*
X026859Y017400D03*
X026190Y017400D03*
X024859Y020700D03*
X024190Y020700D03*
X022859Y020700D03*
X022190Y020700D03*
X010359Y018500D03*
X009690Y018500D03*
X008659Y018500D03*
X007990Y018500D03*
X005759Y018500D03*
X005090Y018500D03*
X004159Y018500D03*
X003490Y018500D03*
X003759Y013700D03*
X003090Y013700D03*
X003090Y012200D03*
X003759Y012200D03*
X003859Y031100D03*
X003190Y031100D03*
X007190Y031100D03*
X007859Y031100D03*
X011190Y031100D03*
X011859Y031100D03*
X015190Y031100D03*
X015859Y031100D03*
X019190Y031100D03*
X019859Y031100D03*
X023190Y031100D03*
X023859Y031100D03*
X027240Y031100D03*
X027909Y031100D03*
X031240Y031100D03*
X031909Y031100D03*
X035190Y031100D03*
X035859Y031100D03*
X039240Y031100D03*
X039909Y031100D03*
X043340Y031100D03*
X044009Y031100D03*
X047340Y031100D03*
X048009Y031100D03*
X037559Y020200D03*
X036890Y020200D03*
X036159Y015600D03*
X035490Y015600D03*
D14*
X018074Y014800D03*
X016775Y014800D03*
D15*
X019224Y012135D03*
X019224Y011465D03*
X020224Y011465D03*
X020224Y012135D03*
X020024Y019565D03*
X020024Y020235D03*
X021424Y020235D03*
X021424Y019565D03*
X016724Y020765D03*
X016724Y021435D03*
X015324Y021435D03*
X015324Y020765D03*
X013924Y020765D03*
X013924Y021435D03*
X012524Y021435D03*
X012524Y020765D03*
X010124Y017235D03*
X010124Y016565D03*
X008924Y016565D03*
X008924Y017235D03*
X007724Y017235D03*
X007724Y016565D03*
X006724Y016565D03*
X006724Y017235D03*
X007424Y024765D03*
X007424Y025435D03*
X011424Y025435D03*
X011424Y024765D03*
X015424Y024765D03*
X015424Y025435D03*
X019424Y025435D03*
X019424Y024765D03*
X023424Y024765D03*
X023424Y025435D03*
X027424Y025435D03*
X027424Y024765D03*
X031424Y024765D03*
X031424Y025435D03*
X035424Y025435D03*
X035424Y024765D03*
X039424Y024765D03*
X039424Y025435D03*
X043424Y025435D03*
X043424Y024765D03*
X047424Y024765D03*
X047424Y025435D03*
X038024Y019285D03*
X038024Y018615D03*
X003424Y024765D03*
X003424Y025435D03*
D16*
X012524Y019795D03*
X012524Y019205D03*
X013924Y019205D03*
X013924Y019795D03*
X015324Y019795D03*
X015324Y019205D03*
X016724Y019205D03*
X016724Y019795D03*
X036929Y021200D03*
X037520Y021200D03*
D17*
X024253Y019653D03*
X024253Y018747D03*
X022796Y018747D03*
X022796Y019653D03*
D18*
X004903Y006719D03*
X004903Y007219D03*
X004903Y007719D03*
X004903Y008219D03*
X004903Y008719D03*
X004903Y009219D03*
X004903Y009719D03*
X004903Y010219D03*
X004903Y010719D03*
X004903Y011219D03*
X004903Y011719D03*
X004903Y012219D03*
X004903Y012719D03*
X004903Y013219D03*
X004903Y013719D03*
X004903Y014219D03*
X004903Y014719D03*
X004903Y015219D03*
X013013Y015219D03*
X013013Y014719D03*
X013013Y014219D03*
X013013Y013719D03*
X013013Y013219D03*
X013013Y012719D03*
X013013Y012219D03*
X013013Y011719D03*
X013013Y011219D03*
X013013Y010719D03*
X013013Y010219D03*
X013013Y009719D03*
X013013Y009219D03*
X013013Y008719D03*
X013013Y008219D03*
X013013Y007719D03*
X013013Y007219D03*
X013013Y006719D03*
D19*
X013424Y026271D03*
X012424Y026271D03*
X011424Y026271D03*
X009424Y026271D03*
X008424Y026271D03*
X007424Y026271D03*
X005424Y026271D03*
X004424Y026271D03*
X003424Y026271D03*
X003424Y029929D03*
X004424Y029929D03*
X005424Y029929D03*
X007424Y029929D03*
X008424Y029929D03*
X009424Y029929D03*
X011424Y029929D03*
X012424Y029929D03*
X013424Y029929D03*
X015424Y029929D03*
X016424Y029929D03*
X017424Y029929D03*
X019424Y029929D03*
X020424Y029929D03*
X021424Y029929D03*
X023424Y029929D03*
X024424Y029929D03*
X025424Y029929D03*
X027424Y029929D03*
X028424Y029929D03*
X029424Y029929D03*
X031424Y029929D03*
X032424Y029929D03*
X033424Y029929D03*
X035424Y029929D03*
X036424Y029929D03*
X037424Y029929D03*
X039424Y029929D03*
X040424Y029929D03*
X041424Y029929D03*
X043424Y029929D03*
X044424Y029929D03*
X045424Y029929D03*
X047424Y029929D03*
X048424Y029929D03*
X049424Y029929D03*
X049424Y026271D03*
X048424Y026271D03*
X047424Y026271D03*
X045424Y026271D03*
X044424Y026271D03*
X043424Y026271D03*
X041424Y026271D03*
X040424Y026271D03*
X039424Y026271D03*
X037424Y026271D03*
X036424Y026271D03*
X035424Y026271D03*
X033424Y026271D03*
X032424Y026271D03*
X031424Y026271D03*
X029424Y026271D03*
X028424Y026271D03*
X027424Y026271D03*
X025424Y026271D03*
X024424Y026271D03*
X023424Y026271D03*
X021424Y026271D03*
X020424Y026271D03*
X019424Y026271D03*
X017424Y026271D03*
X016424Y026271D03*
X015424Y026271D03*
D20*
X015714Y032380D03*
X016624Y032380D03*
X017534Y032380D03*
X019714Y032380D03*
X020624Y032380D03*
X021534Y032380D03*
X023714Y032380D03*
X024624Y032380D03*
X025534Y032380D03*
X027714Y032380D03*
X028624Y032380D03*
X029534Y032380D03*
X031714Y032380D03*
X032624Y032380D03*
X033534Y032380D03*
X035714Y032380D03*
X036624Y032380D03*
X037534Y032380D03*
X039714Y032380D03*
X040624Y032380D03*
X041534Y032380D03*
X043764Y032380D03*
X044674Y032380D03*
X045584Y032380D03*
X047764Y032380D03*
X048674Y032380D03*
X049584Y032380D03*
X013534Y032380D03*
X012624Y032380D03*
X011714Y032380D03*
X009534Y032380D03*
X008624Y032380D03*
X007714Y032380D03*
X005534Y032380D03*
X004624Y032380D03*
X003714Y032380D03*
D21*
X004624Y034820D03*
X008624Y034820D03*
X012624Y034820D03*
X016624Y034820D03*
X020624Y034820D03*
X024624Y034820D03*
X028624Y034820D03*
X032624Y034820D03*
X036624Y034820D03*
X040624Y034820D03*
X044674Y034820D03*
X048674Y034820D03*
D22*
X033974Y020600D03*
X033874Y019600D03*
X033974Y018600D03*
X033874Y017600D03*
X033974Y016600D03*
D23*
X016654Y006484D03*
X016339Y006484D03*
X016024Y006484D03*
X015709Y006484D03*
X015394Y006484D03*
D24*
X014253Y006484D03*
X014253Y004319D03*
X017796Y004319D03*
X017796Y006484D03*
D25*
X016891Y005500D03*
X015158Y005500D03*
D26*
X046824Y005431D03*
X048675Y006613D03*
X046824Y007794D03*
D27*
X046020Y011778D03*
X048028Y011778D03*
X048028Y015322D03*
X046020Y015322D03*
D28*
X040544Y018600D02*
X039904Y018600D01*
X039904Y019600D02*
X040544Y019600D01*
X040544Y020600D02*
X039904Y020600D01*
D29*
X046324Y018200D03*
D30*
X046324Y021200D03*
D31*
X037976Y017700D03*
X036873Y017700D03*
D32*
X021531Y018700D03*
X019917Y018700D03*
D33*
X034242Y014298D03*
X034911Y014298D03*
X035866Y014298D03*
X036850Y014298D03*
X037834Y014298D03*
X038819Y014298D03*
X039803Y014298D03*
X040787Y014298D03*
X041771Y014298D03*
D34*
X033612Y014239D03*
D35*
X033094Y011258D03*
D36*
X033094Y006018D03*
D37*
X033722Y004199D03*
X043084Y004199D03*
D38*
X043037Y005400D03*
X033612Y005400D03*
D39*
X010310Y019425D03*
X008539Y019425D03*
X005710Y019425D03*
X003939Y019425D03*
X003939Y022575D03*
X005710Y022575D03*
X008539Y022575D03*
X010310Y022575D03*
D40*
X011557Y037800D03*
X013557Y037800D03*
X015557Y037800D03*
X017557Y037800D03*
X019657Y037800D03*
X021657Y037800D03*
X023657Y037800D03*
X025657Y037800D03*
X027757Y037800D03*
X029757Y037800D03*
X031757Y037800D03*
X033757Y037800D03*
X035857Y037800D03*
X037857Y037800D03*
X039857Y037800D03*
X041857Y037800D03*
X041857Y041800D03*
X039857Y041800D03*
X037857Y041800D03*
X035857Y041800D03*
X033757Y041800D03*
X031757Y041800D03*
X029757Y041800D03*
X027757Y041800D03*
X025657Y041800D03*
X023657Y041800D03*
X021657Y041800D03*
X019657Y041800D03*
X017557Y041800D03*
X015557Y041800D03*
X013557Y041800D03*
X011557Y041800D03*
D41*
X051174Y014704D03*
X051174Y012196D03*
M02*
