G75*
G70*
%OFA0B0*%
%FSLAX24Y24*%
%IPPOS*%
%LPD*%
%AMOC8*
5,1,8,0,0,1.08239X$1,22.5*
%
%ADD10C,0.0060*%
%ADD11C,0.0080*%
%ADD12C,0.0217*%
%ADD13R,0.0180X0.0300*%
%ADD14R,0.0300X0.0180*%
%ADD15C,0.0100*%
%ADD16C,0.0040*%
%ADD17R,0.1500X0.0250*%
%ADD18C,0.0220*%
%ADD19C,0.0050*%
%ADD20C,0.0160*%
D10*
X021606Y012998D02*
X021822Y012781D01*
X025443Y012781D01*
X025443Y016619D01*
X021606Y016619D01*
X021606Y012998D01*
X021674Y013243D02*
X021676Y013282D01*
X021682Y013321D01*
X021692Y013359D01*
X021705Y013396D01*
X021722Y013431D01*
X021742Y013465D01*
X021766Y013496D01*
X021793Y013525D01*
X021822Y013551D01*
X021854Y013574D01*
X021888Y013594D01*
X021924Y013610D01*
X021961Y013622D01*
X022000Y013631D01*
X022039Y013636D01*
X022078Y013637D01*
X022117Y013634D01*
X022156Y013627D01*
X022193Y013616D01*
X022230Y013602D01*
X022265Y013584D01*
X022298Y013563D01*
X022329Y013538D01*
X022357Y013511D01*
X022382Y013481D01*
X022404Y013448D01*
X022423Y013414D01*
X022438Y013378D01*
X022450Y013340D01*
X022458Y013302D01*
X022462Y013263D01*
X022462Y013223D01*
X022458Y013184D01*
X022450Y013146D01*
X022438Y013108D01*
X022423Y013072D01*
X022404Y013038D01*
X022382Y013005D01*
X022357Y012975D01*
X022329Y012948D01*
X022298Y012923D01*
X022265Y012902D01*
X022230Y012884D01*
X022193Y012870D01*
X022156Y012859D01*
X022117Y012852D01*
X022078Y012849D01*
X022039Y012850D01*
X022000Y012855D01*
X021961Y012864D01*
X021924Y012876D01*
X021888Y012892D01*
X021854Y012912D01*
X021822Y012935D01*
X021793Y012961D01*
X021766Y012990D01*
X021742Y013021D01*
X021722Y013055D01*
X021705Y013090D01*
X021692Y013127D01*
X021682Y013165D01*
X021676Y013204D01*
X021674Y013243D01*
X022141Y026848D02*
X018698Y026848D01*
X018698Y029352D01*
X022141Y029352D01*
X022141Y027051D01*
X018737Y027051D01*
X018141Y027051D02*
X014737Y027051D01*
X014698Y026848D02*
X014698Y029352D01*
X018141Y029352D01*
X018141Y027051D01*
X018141Y026848D01*
X014698Y026848D01*
X014141Y026848D02*
X010698Y026848D01*
X010698Y029352D01*
X014141Y029352D01*
X014141Y027051D01*
X010737Y027051D01*
X010141Y027051D02*
X006737Y027051D01*
X006698Y026848D02*
X006698Y029352D01*
X010141Y029352D01*
X010141Y027051D01*
X010141Y026848D01*
X006698Y026848D01*
X006141Y026848D02*
X002698Y026848D01*
X002698Y029352D01*
X006141Y029352D01*
X006141Y027051D01*
X002737Y027051D01*
X006141Y027051D02*
X006141Y026848D01*
X014141Y026848D02*
X014141Y027051D01*
X022141Y027051D02*
X022141Y026848D01*
X022698Y026848D02*
X022698Y029352D01*
X026141Y029352D01*
X026141Y027051D01*
X022737Y027051D01*
X022698Y026848D02*
X026141Y026848D01*
X026141Y027051D01*
X026698Y026848D02*
X026698Y029352D01*
X030141Y029352D01*
X030141Y027051D01*
X026737Y027051D01*
X026698Y026848D02*
X030141Y026848D01*
X030141Y027051D01*
X030698Y026848D02*
X030698Y029352D01*
X034141Y029352D01*
X034141Y027051D01*
X030737Y027051D01*
X030698Y026848D02*
X034141Y026848D01*
X034141Y027051D01*
X034698Y026848D02*
X034698Y029352D01*
X038141Y029352D01*
X038141Y027051D01*
X034737Y027051D01*
X034698Y026848D02*
X038141Y026848D01*
X038141Y027051D01*
X038698Y026848D02*
X038698Y029352D01*
X042141Y029352D01*
X042141Y027051D01*
X038737Y027051D01*
X038698Y026848D02*
X042141Y026848D01*
X042141Y027051D01*
X042698Y026848D02*
X042698Y029352D01*
X046141Y029352D01*
X046141Y027051D01*
X042737Y027051D01*
X042698Y026848D02*
X046141Y026848D01*
X046141Y027051D01*
X046698Y026848D02*
X046698Y029352D01*
X050141Y029352D01*
X050141Y027051D01*
X046737Y027051D01*
X046698Y026848D02*
X050141Y026848D01*
X050141Y027051D01*
X046324Y022650D02*
X046324Y022050D01*
X046024Y022350D02*
X046624Y022350D01*
X046324Y020500D02*
X046324Y020050D01*
X045574Y020050D01*
X045574Y019800D01*
X047074Y019800D01*
X047074Y020050D01*
X046324Y020050D01*
X042824Y019700D02*
X042828Y019872D01*
X042841Y020043D01*
X042862Y020214D01*
X042891Y020383D01*
X042929Y020550D01*
X042975Y020716D01*
X043029Y020879D01*
X043090Y021039D01*
X043160Y021196D01*
X043237Y021350D01*
X043322Y021499D01*
X043414Y021644D01*
X043513Y021785D01*
X043618Y021920D01*
X043731Y022050D01*
X043849Y022175D01*
X043974Y022293D01*
X044104Y022406D01*
X044239Y022511D01*
X044380Y022610D01*
X044525Y022702D01*
X044674Y022787D01*
X044828Y022864D01*
X044985Y022934D01*
X045145Y022995D01*
X045308Y023049D01*
X045474Y023095D01*
X045641Y023133D01*
X045810Y023162D01*
X045981Y023183D01*
X046152Y023196D01*
X046324Y023200D01*
X046496Y023196D01*
X046667Y023183D01*
X046838Y023162D01*
X047007Y023133D01*
X047174Y023095D01*
X047340Y023049D01*
X047503Y022995D01*
X047663Y022934D01*
X047820Y022864D01*
X047974Y022787D01*
X048123Y022702D01*
X048268Y022610D01*
X048409Y022511D01*
X048544Y022406D01*
X048674Y022293D01*
X048799Y022175D01*
X048917Y022050D01*
X049030Y021920D01*
X049135Y021785D01*
X049234Y021644D01*
X049326Y021499D01*
X049411Y021350D01*
X049488Y021196D01*
X049558Y021039D01*
X049619Y020879D01*
X049673Y020716D01*
X049719Y020550D01*
X049757Y020383D01*
X049786Y020214D01*
X049807Y020043D01*
X049820Y019872D01*
X049824Y019700D01*
X049820Y019528D01*
X049807Y019357D01*
X049786Y019186D01*
X049757Y019017D01*
X049719Y018850D01*
X049673Y018684D01*
X049619Y018521D01*
X049558Y018361D01*
X049488Y018204D01*
X049411Y018050D01*
X049326Y017901D01*
X049234Y017756D01*
X049135Y017615D01*
X049030Y017480D01*
X048917Y017350D01*
X048799Y017225D01*
X048674Y017107D01*
X048544Y016994D01*
X048409Y016889D01*
X048268Y016790D01*
X048123Y016698D01*
X047974Y016613D01*
X047820Y016536D01*
X047663Y016466D01*
X047503Y016405D01*
X047340Y016351D01*
X047174Y016305D01*
X047007Y016267D01*
X046838Y016238D01*
X046667Y016217D01*
X046496Y016204D01*
X046324Y016200D01*
X046152Y016204D01*
X045981Y016217D01*
X045810Y016238D01*
X045641Y016267D01*
X045474Y016305D01*
X045308Y016351D01*
X045145Y016405D01*
X044985Y016466D01*
X044828Y016536D01*
X044674Y016613D01*
X044525Y016698D01*
X044380Y016790D01*
X044239Y016889D01*
X044104Y016994D01*
X043974Y017107D01*
X043849Y017225D01*
X043731Y017350D01*
X043618Y017480D01*
X043513Y017615D01*
X043414Y017756D01*
X043322Y017901D01*
X043237Y018050D01*
X043160Y018204D01*
X043090Y018361D01*
X043029Y018521D01*
X042975Y018684D01*
X042929Y018850D01*
X042891Y019017D01*
X042862Y019186D01*
X042841Y019357D01*
X042828Y019528D01*
X042824Y019700D01*
X046324Y019450D02*
X046324Y018900D01*
D11*
X004824Y006057D02*
X004824Y003695D01*
X013092Y003695D01*
X013092Y006057D01*
X014528Y005815D02*
X014528Y004988D01*
X014804Y006799D02*
X015158Y006799D01*
X016891Y006799D02*
X017245Y006799D01*
X017520Y005815D02*
X017520Y004988D01*
X017070Y014170D02*
X016401Y014170D01*
X016401Y015410D01*
X017070Y015410D01*
X017818Y015410D02*
X018291Y015410D01*
X018448Y015292D01*
X018448Y014328D01*
X018291Y014190D01*
X017818Y014190D01*
X013092Y015900D02*
X004824Y015900D01*
X012343Y019433D02*
X012524Y019433D01*
X012402Y019555D01*
X012650Y019555D01*
X012524Y019429D01*
X012524Y019433D02*
X012706Y019433D01*
X013743Y019433D02*
X013924Y019433D01*
X013802Y019555D01*
X014050Y019555D01*
X013924Y019429D01*
X013924Y019433D02*
X014106Y019433D01*
X015143Y019433D02*
X015324Y019433D01*
X015202Y019555D01*
X015450Y019555D01*
X015324Y019429D01*
X015324Y019433D02*
X015506Y019433D01*
X016543Y019433D02*
X016724Y019433D01*
X016602Y019555D01*
X016850Y019555D01*
X016724Y019429D01*
X016724Y019433D02*
X016906Y019433D01*
X022540Y019318D02*
X022540Y019082D01*
X023288Y018570D02*
X023761Y018570D01*
X024509Y019082D02*
X024509Y019318D01*
X023761Y019830D02*
X023288Y019830D01*
X033424Y019850D02*
X033424Y019350D01*
X033674Y019100D01*
X033424Y018850D01*
X033424Y018350D01*
X033674Y018100D01*
X033424Y017850D01*
X033424Y017350D01*
X033674Y017100D01*
X033424Y016850D01*
X033424Y016350D01*
X033674Y016100D01*
X034174Y016100D01*
X034424Y016350D01*
X034424Y016850D01*
X034174Y017100D01*
X034424Y017350D01*
X034424Y017850D01*
X034174Y018100D01*
X034424Y018350D01*
X034424Y018850D01*
X034174Y019100D01*
X034424Y019350D01*
X034424Y019850D01*
X034174Y020100D01*
X034424Y020350D01*
X034424Y020850D01*
X034174Y021100D01*
X033674Y021100D01*
X033424Y020850D01*
X033424Y020350D01*
X033674Y020100D01*
X033424Y019850D01*
X037157Y021019D02*
X037157Y021200D01*
X037280Y021322D01*
X037280Y021074D01*
X037154Y021200D01*
X037157Y021200D02*
X037157Y021381D01*
X039256Y021844D02*
X042406Y021844D01*
X042406Y017356D01*
X039256Y017356D01*
X039256Y021844D01*
X039334Y032950D02*
X039334Y034250D01*
X041914Y034250D01*
X041914Y032950D01*
X039334Y032950D01*
X037914Y032950D02*
X037914Y034250D01*
X035334Y034250D01*
X035334Y032950D01*
X037914Y032950D01*
X033914Y032950D02*
X031334Y032950D01*
X031334Y034250D01*
X033914Y034250D01*
X033914Y032950D01*
X029914Y032950D02*
X027334Y032950D01*
X027334Y034250D01*
X029914Y034250D01*
X029914Y032950D01*
X025914Y032950D02*
X023334Y032950D01*
X023334Y034250D01*
X025914Y034250D01*
X025914Y032950D01*
X021914Y032950D02*
X019334Y032950D01*
X019334Y034250D01*
X021914Y034250D01*
X021914Y032950D01*
X017914Y032950D02*
X015334Y032950D01*
X015334Y034250D01*
X017914Y034250D01*
X017914Y032950D01*
X013914Y032950D02*
X011334Y032950D01*
X011334Y034250D01*
X013914Y034250D01*
X013914Y032950D01*
X009914Y032950D02*
X007334Y032950D01*
X007334Y034250D01*
X009914Y034250D01*
X009914Y032950D01*
X005914Y032950D02*
X003334Y032950D01*
X003334Y034250D01*
X005914Y034250D01*
X005914Y032950D01*
X043384Y032950D02*
X043384Y034250D01*
X045964Y034250D01*
X045964Y032950D01*
X043384Y032950D01*
X047384Y032950D02*
X047384Y034250D01*
X049964Y034250D01*
X049964Y032950D01*
X047384Y032950D01*
X047769Y007794D02*
X048596Y007794D01*
X048596Y007518D01*
X048596Y005668D02*
X048596Y003581D01*
X045053Y003581D01*
X045053Y007794D01*
X045880Y007794D01*
D12*
X047046Y027313D03*
X043046Y027313D03*
X039046Y027313D03*
X035046Y027313D03*
X031046Y027313D03*
X027046Y027313D03*
X023046Y027313D03*
X019046Y027313D03*
X015046Y027313D03*
X011046Y027313D03*
X007046Y027313D03*
X003046Y027313D03*
D13*
X003524Y031100D03*
X007524Y031100D03*
X011524Y031100D03*
X015524Y031100D03*
X019524Y031100D03*
X023524Y031100D03*
X027574Y031100D03*
X031574Y031100D03*
X035524Y031100D03*
X039574Y031100D03*
X043674Y031100D03*
X047674Y031100D03*
X037224Y020200D03*
X035824Y015600D03*
X021124Y009700D03*
X019824Y009700D03*
X019824Y007900D03*
X018524Y007900D03*
X021124Y007900D03*
X019324Y013300D03*
X017924Y013300D03*
X003424Y013700D03*
X003424Y012200D03*
D14*
X006724Y016900D03*
X007724Y016900D03*
X008924Y016900D03*
X010124Y016900D03*
X012524Y021100D03*
X013924Y021100D03*
X015324Y021100D03*
X016724Y021100D03*
X015424Y025100D03*
X011424Y025100D03*
X007424Y025100D03*
X003424Y025100D03*
X019424Y025100D03*
X023424Y025100D03*
X027424Y025100D03*
X031424Y025100D03*
X035424Y025100D03*
X039424Y025100D03*
X043424Y025100D03*
X047424Y025100D03*
D15*
X048619Y014770D02*
X045430Y014770D01*
X045430Y012330D01*
X048619Y012330D01*
X048619Y014770D01*
D16*
X047920Y014308D02*
X047920Y014101D01*
X048028Y014209D02*
X047812Y014209D01*
X047762Y012861D02*
X047765Y012877D01*
X047771Y012891D01*
X047780Y012904D01*
X047792Y012915D01*
X047805Y012923D01*
X047820Y012928D01*
X047836Y012930D01*
X047852Y012928D01*
X047867Y012923D01*
X047880Y012915D01*
X047892Y012904D01*
X047901Y012891D01*
X047907Y012877D01*
X047910Y012861D01*
X047913Y012845D01*
X047919Y012831D01*
X047928Y012818D01*
X047940Y012807D01*
X047953Y012799D01*
X047968Y012794D01*
X047984Y012792D01*
X048000Y012794D01*
X048015Y012799D01*
X048028Y012807D01*
X048040Y012818D01*
X048049Y012831D01*
X048055Y012845D01*
X048058Y012861D01*
X046286Y012861D02*
X046283Y012845D01*
X046277Y012831D01*
X046268Y012818D01*
X046256Y012807D01*
X046243Y012799D01*
X046228Y012794D01*
X046212Y012792D01*
X046196Y012794D01*
X046181Y012799D01*
X046168Y012807D01*
X046156Y012818D01*
X046147Y012831D01*
X046141Y012845D01*
X046138Y012861D01*
X046139Y012861D02*
X046136Y012877D01*
X046130Y012891D01*
X046121Y012904D01*
X046109Y012915D01*
X046096Y012923D01*
X046081Y012928D01*
X046065Y012930D01*
X046049Y012928D01*
X046034Y012923D01*
X046021Y012915D01*
X046009Y012904D01*
X046000Y012891D01*
X045994Y012877D01*
X045991Y012861D01*
X046024Y014209D02*
X046241Y014209D01*
D17*
X046324Y019475D03*
D18*
X038036Y018950D02*
X038012Y018950D01*
D19*
X042261Y014455D02*
X043980Y014455D01*
X043980Y014416D02*
X043980Y004969D01*
X041474Y004219D02*
X040687Y004219D01*
X040578Y004352D01*
X040462Y004478D01*
X040341Y004599D01*
X040214Y004714D01*
X040081Y004822D01*
X039943Y004924D01*
X039800Y005019D01*
X039653Y005107D01*
X039502Y005187D01*
X039347Y005260D01*
X039188Y005326D01*
X039027Y005383D01*
X038863Y005433D01*
X038696Y005474D01*
X038528Y005508D01*
X038359Y005533D01*
X038188Y005550D01*
X038017Y005558D01*
X037845Y005558D01*
X037674Y005550D01*
X037503Y005533D01*
X037334Y005508D01*
X037166Y005474D01*
X036999Y005433D01*
X036835Y005383D01*
X036674Y005326D01*
X036515Y005260D01*
X036360Y005187D01*
X036209Y005107D01*
X036062Y005019D01*
X035919Y004924D01*
X035781Y004822D01*
X035648Y004714D01*
X035521Y004599D01*
X035400Y004478D01*
X035284Y004352D01*
X035175Y004219D01*
X032669Y004469D02*
X032669Y014416D01*
X032669Y014455D02*
X033206Y014455D01*
X021118Y018306D02*
X020331Y018306D01*
X020528Y018503D02*
X020528Y018897D01*
X020646Y018818D02*
X020843Y018818D01*
X020843Y018582D01*
X020646Y018582D01*
X020646Y018818D01*
X020961Y018897D02*
X020961Y018503D01*
X021118Y019094D02*
X020331Y019094D01*
X010665Y019898D02*
X010665Y022102D01*
X010212Y021787D02*
X010212Y020213D01*
X009621Y020646D02*
X009267Y021000D01*
X008637Y021000D01*
X008637Y020213D01*
X008184Y019898D02*
X008184Y022102D01*
X008637Y021787D02*
X008637Y021000D01*
X009818Y021000D02*
X010212Y021000D01*
X009818Y019425D02*
X009031Y019425D01*
X006065Y019898D02*
X006065Y022102D01*
X005612Y021787D02*
X005612Y020213D01*
X005021Y020646D02*
X004667Y021000D01*
X004037Y021000D01*
X004037Y020213D01*
X003584Y019898D02*
X003584Y022102D01*
X004037Y021787D02*
X004037Y021000D01*
X005218Y021000D02*
X005612Y021000D01*
X005218Y019425D02*
X004431Y019425D01*
X004431Y022575D02*
X005218Y022575D01*
X009031Y022575D02*
X009818Y022575D01*
X011124Y036461D02*
X011124Y043139D01*
X019124Y043139D01*
X019124Y036461D01*
X011124Y036461D01*
X019224Y036461D02*
X019224Y043139D01*
X027224Y043139D01*
X027224Y036461D01*
X019224Y036461D01*
X027324Y036461D02*
X027324Y043139D01*
X035324Y043139D01*
X035324Y036461D01*
X027324Y036461D01*
X035424Y036461D02*
X035424Y043139D01*
X043424Y043139D01*
X043424Y036461D01*
X035424Y036461D01*
D20*
X035424Y039013D02*
X035426Y039052D01*
X035432Y039091D01*
X035442Y039129D01*
X035455Y039166D01*
X035472Y039201D01*
X035492Y039235D01*
X035516Y039266D01*
X035543Y039295D01*
X035572Y039321D01*
X035604Y039344D01*
X035638Y039364D01*
X035674Y039380D01*
X035711Y039392D01*
X035750Y039401D01*
X035789Y039406D01*
X035828Y039407D01*
X035867Y039404D01*
X035906Y039397D01*
X035943Y039386D01*
X035980Y039372D01*
X036015Y039354D01*
X036048Y039333D01*
X036079Y039308D01*
X036107Y039281D01*
X036132Y039251D01*
X036154Y039218D01*
X036173Y039184D01*
X036188Y039148D01*
X036200Y039110D01*
X036208Y039072D01*
X036212Y039033D01*
X036212Y038993D01*
X036208Y038954D01*
X036200Y038916D01*
X036188Y038878D01*
X036173Y038842D01*
X036154Y038808D01*
X036132Y038775D01*
X036107Y038745D01*
X036079Y038718D01*
X036048Y038693D01*
X036015Y038672D01*
X035980Y038654D01*
X035943Y038640D01*
X035906Y038629D01*
X035867Y038622D01*
X035828Y038619D01*
X035789Y038620D01*
X035750Y038625D01*
X035711Y038634D01*
X035674Y038646D01*
X035638Y038662D01*
X035604Y038682D01*
X035572Y038705D01*
X035543Y038731D01*
X035516Y038760D01*
X035492Y038791D01*
X035472Y038825D01*
X035455Y038860D01*
X035442Y038897D01*
X035432Y038935D01*
X035426Y038974D01*
X035424Y039013D01*
X033230Y039013D02*
X033232Y039052D01*
X033238Y039091D01*
X033248Y039129D01*
X033261Y039166D01*
X033278Y039201D01*
X033298Y039235D01*
X033322Y039266D01*
X033349Y039295D01*
X033378Y039321D01*
X033410Y039344D01*
X033444Y039364D01*
X033480Y039380D01*
X033517Y039392D01*
X033556Y039401D01*
X033595Y039406D01*
X033634Y039407D01*
X033673Y039404D01*
X033712Y039397D01*
X033749Y039386D01*
X033786Y039372D01*
X033821Y039354D01*
X033854Y039333D01*
X033885Y039308D01*
X033913Y039281D01*
X033938Y039251D01*
X033960Y039218D01*
X033979Y039184D01*
X033994Y039148D01*
X034006Y039110D01*
X034014Y039072D01*
X034018Y039033D01*
X034018Y038993D01*
X034014Y038954D01*
X034006Y038916D01*
X033994Y038878D01*
X033979Y038842D01*
X033960Y038808D01*
X033938Y038775D01*
X033913Y038745D01*
X033885Y038718D01*
X033854Y038693D01*
X033821Y038672D01*
X033786Y038654D01*
X033749Y038640D01*
X033712Y038629D01*
X033673Y038622D01*
X033634Y038619D01*
X033595Y038620D01*
X033556Y038625D01*
X033517Y038634D01*
X033480Y038646D01*
X033444Y038662D01*
X033410Y038682D01*
X033378Y038705D01*
X033349Y038731D01*
X033322Y038760D01*
X033298Y038791D01*
X033278Y038825D01*
X033261Y038860D01*
X033248Y038897D01*
X033238Y038935D01*
X033232Y038974D01*
X033230Y039013D01*
X031261Y039013D02*
X031263Y039052D01*
X031269Y039091D01*
X031279Y039129D01*
X031292Y039166D01*
X031309Y039201D01*
X031329Y039235D01*
X031353Y039266D01*
X031380Y039295D01*
X031409Y039321D01*
X031441Y039344D01*
X031475Y039364D01*
X031511Y039380D01*
X031548Y039392D01*
X031587Y039401D01*
X031626Y039406D01*
X031665Y039407D01*
X031704Y039404D01*
X031743Y039397D01*
X031780Y039386D01*
X031817Y039372D01*
X031852Y039354D01*
X031885Y039333D01*
X031916Y039308D01*
X031944Y039281D01*
X031969Y039251D01*
X031991Y039218D01*
X032010Y039184D01*
X032025Y039148D01*
X032037Y039110D01*
X032045Y039072D01*
X032049Y039033D01*
X032049Y038993D01*
X032045Y038954D01*
X032037Y038916D01*
X032025Y038878D01*
X032010Y038842D01*
X031991Y038808D01*
X031969Y038775D01*
X031944Y038745D01*
X031916Y038718D01*
X031885Y038693D01*
X031852Y038672D01*
X031817Y038654D01*
X031780Y038640D01*
X031743Y038629D01*
X031704Y038622D01*
X031665Y038619D01*
X031626Y038620D01*
X031587Y038625D01*
X031548Y038634D01*
X031511Y038646D01*
X031475Y038662D01*
X031441Y038682D01*
X031409Y038705D01*
X031380Y038731D01*
X031353Y038760D01*
X031329Y038791D01*
X031309Y038825D01*
X031292Y038860D01*
X031279Y038897D01*
X031269Y038935D01*
X031263Y038974D01*
X031261Y039013D01*
X030474Y039800D02*
X030868Y040194D01*
X030474Y039800D02*
X030080Y040194D01*
X030474Y039800D02*
X030474Y041375D01*
X029293Y039013D02*
X029295Y039052D01*
X029301Y039091D01*
X029311Y039129D01*
X029324Y039166D01*
X029341Y039201D01*
X029361Y039235D01*
X029385Y039266D01*
X029412Y039295D01*
X029441Y039321D01*
X029473Y039344D01*
X029507Y039364D01*
X029543Y039380D01*
X029580Y039392D01*
X029619Y039401D01*
X029658Y039406D01*
X029697Y039407D01*
X029736Y039404D01*
X029775Y039397D01*
X029812Y039386D01*
X029849Y039372D01*
X029884Y039354D01*
X029917Y039333D01*
X029948Y039308D01*
X029976Y039281D01*
X030001Y039251D01*
X030023Y039218D01*
X030042Y039184D01*
X030057Y039148D01*
X030069Y039110D01*
X030077Y039072D01*
X030081Y039033D01*
X030081Y038993D01*
X030077Y038954D01*
X030069Y038916D01*
X030057Y038878D01*
X030042Y038842D01*
X030023Y038808D01*
X030001Y038775D01*
X029976Y038745D01*
X029948Y038718D01*
X029917Y038693D01*
X029884Y038672D01*
X029849Y038654D01*
X029812Y038640D01*
X029775Y038629D01*
X029736Y038622D01*
X029697Y038619D01*
X029658Y038620D01*
X029619Y038625D01*
X029580Y038634D01*
X029543Y038646D01*
X029507Y038662D01*
X029473Y038682D01*
X029441Y038705D01*
X029412Y038731D01*
X029385Y038760D01*
X029361Y038791D01*
X029341Y038825D01*
X029324Y038860D01*
X029311Y038897D01*
X029301Y038935D01*
X029295Y038974D01*
X029293Y039013D01*
X027324Y039013D02*
X027326Y039052D01*
X027332Y039091D01*
X027342Y039129D01*
X027355Y039166D01*
X027372Y039201D01*
X027392Y039235D01*
X027416Y039266D01*
X027443Y039295D01*
X027472Y039321D01*
X027504Y039344D01*
X027538Y039364D01*
X027574Y039380D01*
X027611Y039392D01*
X027650Y039401D01*
X027689Y039406D01*
X027728Y039407D01*
X027767Y039404D01*
X027806Y039397D01*
X027843Y039386D01*
X027880Y039372D01*
X027915Y039354D01*
X027948Y039333D01*
X027979Y039308D01*
X028007Y039281D01*
X028032Y039251D01*
X028054Y039218D01*
X028073Y039184D01*
X028088Y039148D01*
X028100Y039110D01*
X028108Y039072D01*
X028112Y039033D01*
X028112Y038993D01*
X028108Y038954D01*
X028100Y038916D01*
X028088Y038878D01*
X028073Y038842D01*
X028054Y038808D01*
X028032Y038775D01*
X028007Y038745D01*
X027979Y038718D01*
X027948Y038693D01*
X027915Y038672D01*
X027880Y038654D01*
X027843Y038640D01*
X027806Y038629D01*
X027767Y038622D01*
X027728Y038619D01*
X027689Y038620D01*
X027650Y038625D01*
X027611Y038634D01*
X027574Y038646D01*
X027538Y038662D01*
X027504Y038682D01*
X027472Y038705D01*
X027443Y038731D01*
X027416Y038760D01*
X027392Y038791D01*
X027372Y038825D01*
X027355Y038860D01*
X027342Y038897D01*
X027332Y038935D01*
X027326Y038974D01*
X027324Y039013D01*
X025130Y039013D02*
X025132Y039052D01*
X025138Y039091D01*
X025148Y039129D01*
X025161Y039166D01*
X025178Y039201D01*
X025198Y039235D01*
X025222Y039266D01*
X025249Y039295D01*
X025278Y039321D01*
X025310Y039344D01*
X025344Y039364D01*
X025380Y039380D01*
X025417Y039392D01*
X025456Y039401D01*
X025495Y039406D01*
X025534Y039407D01*
X025573Y039404D01*
X025612Y039397D01*
X025649Y039386D01*
X025686Y039372D01*
X025721Y039354D01*
X025754Y039333D01*
X025785Y039308D01*
X025813Y039281D01*
X025838Y039251D01*
X025860Y039218D01*
X025879Y039184D01*
X025894Y039148D01*
X025906Y039110D01*
X025914Y039072D01*
X025918Y039033D01*
X025918Y038993D01*
X025914Y038954D01*
X025906Y038916D01*
X025894Y038878D01*
X025879Y038842D01*
X025860Y038808D01*
X025838Y038775D01*
X025813Y038745D01*
X025785Y038718D01*
X025754Y038693D01*
X025721Y038672D01*
X025686Y038654D01*
X025649Y038640D01*
X025612Y038629D01*
X025573Y038622D01*
X025534Y038619D01*
X025495Y038620D01*
X025456Y038625D01*
X025417Y038634D01*
X025380Y038646D01*
X025344Y038662D01*
X025310Y038682D01*
X025278Y038705D01*
X025249Y038731D01*
X025222Y038760D01*
X025198Y038791D01*
X025178Y038825D01*
X025161Y038860D01*
X025148Y038897D01*
X025138Y038935D01*
X025132Y038974D01*
X025130Y039013D01*
X023161Y039013D02*
X023163Y039052D01*
X023169Y039091D01*
X023179Y039129D01*
X023192Y039166D01*
X023209Y039201D01*
X023229Y039235D01*
X023253Y039266D01*
X023280Y039295D01*
X023309Y039321D01*
X023341Y039344D01*
X023375Y039364D01*
X023411Y039380D01*
X023448Y039392D01*
X023487Y039401D01*
X023526Y039406D01*
X023565Y039407D01*
X023604Y039404D01*
X023643Y039397D01*
X023680Y039386D01*
X023717Y039372D01*
X023752Y039354D01*
X023785Y039333D01*
X023816Y039308D01*
X023844Y039281D01*
X023869Y039251D01*
X023891Y039218D01*
X023910Y039184D01*
X023925Y039148D01*
X023937Y039110D01*
X023945Y039072D01*
X023949Y039033D01*
X023949Y038993D01*
X023945Y038954D01*
X023937Y038916D01*
X023925Y038878D01*
X023910Y038842D01*
X023891Y038808D01*
X023869Y038775D01*
X023844Y038745D01*
X023816Y038718D01*
X023785Y038693D01*
X023752Y038672D01*
X023717Y038654D01*
X023680Y038640D01*
X023643Y038629D01*
X023604Y038622D01*
X023565Y038619D01*
X023526Y038620D01*
X023487Y038625D01*
X023448Y038634D01*
X023411Y038646D01*
X023375Y038662D01*
X023341Y038682D01*
X023309Y038705D01*
X023280Y038731D01*
X023253Y038760D01*
X023229Y038791D01*
X023209Y038825D01*
X023192Y038860D01*
X023179Y038897D01*
X023169Y038935D01*
X023163Y038974D01*
X023161Y039013D01*
X022374Y039800D02*
X022768Y040194D01*
X022374Y039800D02*
X021980Y040194D01*
X022374Y039800D02*
X022374Y041375D01*
X021193Y039013D02*
X021195Y039052D01*
X021201Y039091D01*
X021211Y039129D01*
X021224Y039166D01*
X021241Y039201D01*
X021261Y039235D01*
X021285Y039266D01*
X021312Y039295D01*
X021341Y039321D01*
X021373Y039344D01*
X021407Y039364D01*
X021443Y039380D01*
X021480Y039392D01*
X021519Y039401D01*
X021558Y039406D01*
X021597Y039407D01*
X021636Y039404D01*
X021675Y039397D01*
X021712Y039386D01*
X021749Y039372D01*
X021784Y039354D01*
X021817Y039333D01*
X021848Y039308D01*
X021876Y039281D01*
X021901Y039251D01*
X021923Y039218D01*
X021942Y039184D01*
X021957Y039148D01*
X021969Y039110D01*
X021977Y039072D01*
X021981Y039033D01*
X021981Y038993D01*
X021977Y038954D01*
X021969Y038916D01*
X021957Y038878D01*
X021942Y038842D01*
X021923Y038808D01*
X021901Y038775D01*
X021876Y038745D01*
X021848Y038718D01*
X021817Y038693D01*
X021784Y038672D01*
X021749Y038654D01*
X021712Y038640D01*
X021675Y038629D01*
X021636Y038622D01*
X021597Y038619D01*
X021558Y038620D01*
X021519Y038625D01*
X021480Y038634D01*
X021443Y038646D01*
X021407Y038662D01*
X021373Y038682D01*
X021341Y038705D01*
X021312Y038731D01*
X021285Y038760D01*
X021261Y038791D01*
X021241Y038825D01*
X021224Y038860D01*
X021211Y038897D01*
X021201Y038935D01*
X021195Y038974D01*
X021193Y039013D01*
X019224Y039013D02*
X019226Y039052D01*
X019232Y039091D01*
X019242Y039129D01*
X019255Y039166D01*
X019272Y039201D01*
X019292Y039235D01*
X019316Y039266D01*
X019343Y039295D01*
X019372Y039321D01*
X019404Y039344D01*
X019438Y039364D01*
X019474Y039380D01*
X019511Y039392D01*
X019550Y039401D01*
X019589Y039406D01*
X019628Y039407D01*
X019667Y039404D01*
X019706Y039397D01*
X019743Y039386D01*
X019780Y039372D01*
X019815Y039354D01*
X019848Y039333D01*
X019879Y039308D01*
X019907Y039281D01*
X019932Y039251D01*
X019954Y039218D01*
X019973Y039184D01*
X019988Y039148D01*
X020000Y039110D01*
X020008Y039072D01*
X020012Y039033D01*
X020012Y038993D01*
X020008Y038954D01*
X020000Y038916D01*
X019988Y038878D01*
X019973Y038842D01*
X019954Y038808D01*
X019932Y038775D01*
X019907Y038745D01*
X019879Y038718D01*
X019848Y038693D01*
X019815Y038672D01*
X019780Y038654D01*
X019743Y038640D01*
X019706Y038629D01*
X019667Y038622D01*
X019628Y038619D01*
X019589Y038620D01*
X019550Y038625D01*
X019511Y038634D01*
X019474Y038646D01*
X019438Y038662D01*
X019404Y038682D01*
X019372Y038705D01*
X019343Y038731D01*
X019316Y038760D01*
X019292Y038791D01*
X019272Y038825D01*
X019255Y038860D01*
X019242Y038897D01*
X019232Y038935D01*
X019226Y038974D01*
X019224Y039013D01*
X017030Y039013D02*
X017032Y039052D01*
X017038Y039091D01*
X017048Y039129D01*
X017061Y039166D01*
X017078Y039201D01*
X017098Y039235D01*
X017122Y039266D01*
X017149Y039295D01*
X017178Y039321D01*
X017210Y039344D01*
X017244Y039364D01*
X017280Y039380D01*
X017317Y039392D01*
X017356Y039401D01*
X017395Y039406D01*
X017434Y039407D01*
X017473Y039404D01*
X017512Y039397D01*
X017549Y039386D01*
X017586Y039372D01*
X017621Y039354D01*
X017654Y039333D01*
X017685Y039308D01*
X017713Y039281D01*
X017738Y039251D01*
X017760Y039218D01*
X017779Y039184D01*
X017794Y039148D01*
X017806Y039110D01*
X017814Y039072D01*
X017818Y039033D01*
X017818Y038993D01*
X017814Y038954D01*
X017806Y038916D01*
X017794Y038878D01*
X017779Y038842D01*
X017760Y038808D01*
X017738Y038775D01*
X017713Y038745D01*
X017685Y038718D01*
X017654Y038693D01*
X017621Y038672D01*
X017586Y038654D01*
X017549Y038640D01*
X017512Y038629D01*
X017473Y038622D01*
X017434Y038619D01*
X017395Y038620D01*
X017356Y038625D01*
X017317Y038634D01*
X017280Y038646D01*
X017244Y038662D01*
X017210Y038682D01*
X017178Y038705D01*
X017149Y038731D01*
X017122Y038760D01*
X017098Y038791D01*
X017078Y038825D01*
X017061Y038860D01*
X017048Y038897D01*
X017038Y038935D01*
X017032Y038974D01*
X017030Y039013D01*
X015061Y039013D02*
X015063Y039052D01*
X015069Y039091D01*
X015079Y039129D01*
X015092Y039166D01*
X015109Y039201D01*
X015129Y039235D01*
X015153Y039266D01*
X015180Y039295D01*
X015209Y039321D01*
X015241Y039344D01*
X015275Y039364D01*
X015311Y039380D01*
X015348Y039392D01*
X015387Y039401D01*
X015426Y039406D01*
X015465Y039407D01*
X015504Y039404D01*
X015543Y039397D01*
X015580Y039386D01*
X015617Y039372D01*
X015652Y039354D01*
X015685Y039333D01*
X015716Y039308D01*
X015744Y039281D01*
X015769Y039251D01*
X015791Y039218D01*
X015810Y039184D01*
X015825Y039148D01*
X015837Y039110D01*
X015845Y039072D01*
X015849Y039033D01*
X015849Y038993D01*
X015845Y038954D01*
X015837Y038916D01*
X015825Y038878D01*
X015810Y038842D01*
X015791Y038808D01*
X015769Y038775D01*
X015744Y038745D01*
X015716Y038718D01*
X015685Y038693D01*
X015652Y038672D01*
X015617Y038654D01*
X015580Y038640D01*
X015543Y038629D01*
X015504Y038622D01*
X015465Y038619D01*
X015426Y038620D01*
X015387Y038625D01*
X015348Y038634D01*
X015311Y038646D01*
X015275Y038662D01*
X015241Y038682D01*
X015209Y038705D01*
X015180Y038731D01*
X015153Y038760D01*
X015129Y038791D01*
X015109Y038825D01*
X015092Y038860D01*
X015079Y038897D01*
X015069Y038935D01*
X015063Y038974D01*
X015061Y039013D01*
X014274Y039800D02*
X014668Y040194D01*
X014274Y039800D02*
X013880Y040194D01*
X014274Y039800D02*
X014274Y041375D01*
X013093Y039013D02*
X013095Y039052D01*
X013101Y039091D01*
X013111Y039129D01*
X013124Y039166D01*
X013141Y039201D01*
X013161Y039235D01*
X013185Y039266D01*
X013212Y039295D01*
X013241Y039321D01*
X013273Y039344D01*
X013307Y039364D01*
X013343Y039380D01*
X013380Y039392D01*
X013419Y039401D01*
X013458Y039406D01*
X013497Y039407D01*
X013536Y039404D01*
X013575Y039397D01*
X013612Y039386D01*
X013649Y039372D01*
X013684Y039354D01*
X013717Y039333D01*
X013748Y039308D01*
X013776Y039281D01*
X013801Y039251D01*
X013823Y039218D01*
X013842Y039184D01*
X013857Y039148D01*
X013869Y039110D01*
X013877Y039072D01*
X013881Y039033D01*
X013881Y038993D01*
X013877Y038954D01*
X013869Y038916D01*
X013857Y038878D01*
X013842Y038842D01*
X013823Y038808D01*
X013801Y038775D01*
X013776Y038745D01*
X013748Y038718D01*
X013717Y038693D01*
X013684Y038672D01*
X013649Y038654D01*
X013612Y038640D01*
X013575Y038629D01*
X013536Y038622D01*
X013497Y038619D01*
X013458Y038620D01*
X013419Y038625D01*
X013380Y038634D01*
X013343Y038646D01*
X013307Y038662D01*
X013273Y038682D01*
X013241Y038705D01*
X013212Y038731D01*
X013185Y038760D01*
X013161Y038791D01*
X013141Y038825D01*
X013124Y038860D01*
X013111Y038897D01*
X013101Y038935D01*
X013095Y038974D01*
X013093Y039013D01*
X011124Y039013D02*
X011126Y039052D01*
X011132Y039091D01*
X011142Y039129D01*
X011155Y039166D01*
X011172Y039201D01*
X011192Y039235D01*
X011216Y039266D01*
X011243Y039295D01*
X011272Y039321D01*
X011304Y039344D01*
X011338Y039364D01*
X011374Y039380D01*
X011411Y039392D01*
X011450Y039401D01*
X011489Y039406D01*
X011528Y039407D01*
X011567Y039404D01*
X011606Y039397D01*
X011643Y039386D01*
X011680Y039372D01*
X011715Y039354D01*
X011748Y039333D01*
X011779Y039308D01*
X011807Y039281D01*
X011832Y039251D01*
X011854Y039218D01*
X011873Y039184D01*
X011888Y039148D01*
X011900Y039110D01*
X011908Y039072D01*
X011912Y039033D01*
X011912Y038993D01*
X011908Y038954D01*
X011900Y038916D01*
X011888Y038878D01*
X011873Y038842D01*
X011854Y038808D01*
X011832Y038775D01*
X011807Y038745D01*
X011779Y038718D01*
X011748Y038693D01*
X011715Y038672D01*
X011680Y038654D01*
X011643Y038640D01*
X011606Y038629D01*
X011567Y038622D01*
X011528Y038619D01*
X011489Y038620D01*
X011450Y038625D01*
X011411Y038634D01*
X011374Y038646D01*
X011338Y038662D01*
X011304Y038682D01*
X011272Y038705D01*
X011243Y038731D01*
X011216Y038760D01*
X011192Y038791D01*
X011172Y038825D01*
X011155Y038860D01*
X011142Y038897D01*
X011132Y038935D01*
X011126Y038974D01*
X011124Y039013D01*
X037393Y039013D02*
X037395Y039052D01*
X037401Y039091D01*
X037411Y039129D01*
X037424Y039166D01*
X037441Y039201D01*
X037461Y039235D01*
X037485Y039266D01*
X037512Y039295D01*
X037541Y039321D01*
X037573Y039344D01*
X037607Y039364D01*
X037643Y039380D01*
X037680Y039392D01*
X037719Y039401D01*
X037758Y039406D01*
X037797Y039407D01*
X037836Y039404D01*
X037875Y039397D01*
X037912Y039386D01*
X037949Y039372D01*
X037984Y039354D01*
X038017Y039333D01*
X038048Y039308D01*
X038076Y039281D01*
X038101Y039251D01*
X038123Y039218D01*
X038142Y039184D01*
X038157Y039148D01*
X038169Y039110D01*
X038177Y039072D01*
X038181Y039033D01*
X038181Y038993D01*
X038177Y038954D01*
X038169Y038916D01*
X038157Y038878D01*
X038142Y038842D01*
X038123Y038808D01*
X038101Y038775D01*
X038076Y038745D01*
X038048Y038718D01*
X038017Y038693D01*
X037984Y038672D01*
X037949Y038654D01*
X037912Y038640D01*
X037875Y038629D01*
X037836Y038622D01*
X037797Y038619D01*
X037758Y038620D01*
X037719Y038625D01*
X037680Y038634D01*
X037643Y038646D01*
X037607Y038662D01*
X037573Y038682D01*
X037541Y038705D01*
X037512Y038731D01*
X037485Y038760D01*
X037461Y038791D01*
X037441Y038825D01*
X037424Y038860D01*
X037411Y038897D01*
X037401Y038935D01*
X037395Y038974D01*
X037393Y039013D01*
X038180Y040194D02*
X038574Y039800D01*
X038968Y040194D01*
X038574Y039800D02*
X038574Y041375D01*
X039361Y039013D02*
X039363Y039052D01*
X039369Y039091D01*
X039379Y039129D01*
X039392Y039166D01*
X039409Y039201D01*
X039429Y039235D01*
X039453Y039266D01*
X039480Y039295D01*
X039509Y039321D01*
X039541Y039344D01*
X039575Y039364D01*
X039611Y039380D01*
X039648Y039392D01*
X039687Y039401D01*
X039726Y039406D01*
X039765Y039407D01*
X039804Y039404D01*
X039843Y039397D01*
X039880Y039386D01*
X039917Y039372D01*
X039952Y039354D01*
X039985Y039333D01*
X040016Y039308D01*
X040044Y039281D01*
X040069Y039251D01*
X040091Y039218D01*
X040110Y039184D01*
X040125Y039148D01*
X040137Y039110D01*
X040145Y039072D01*
X040149Y039033D01*
X040149Y038993D01*
X040145Y038954D01*
X040137Y038916D01*
X040125Y038878D01*
X040110Y038842D01*
X040091Y038808D01*
X040069Y038775D01*
X040044Y038745D01*
X040016Y038718D01*
X039985Y038693D01*
X039952Y038672D01*
X039917Y038654D01*
X039880Y038640D01*
X039843Y038629D01*
X039804Y038622D01*
X039765Y038619D01*
X039726Y038620D01*
X039687Y038625D01*
X039648Y038634D01*
X039611Y038646D01*
X039575Y038662D01*
X039541Y038682D01*
X039509Y038705D01*
X039480Y038731D01*
X039453Y038760D01*
X039429Y038791D01*
X039409Y038825D01*
X039392Y038860D01*
X039379Y038897D01*
X039369Y038935D01*
X039363Y038974D01*
X039361Y039013D01*
X041330Y039013D02*
X041332Y039052D01*
X041338Y039091D01*
X041348Y039129D01*
X041361Y039166D01*
X041378Y039201D01*
X041398Y039235D01*
X041422Y039266D01*
X041449Y039295D01*
X041478Y039321D01*
X041510Y039344D01*
X041544Y039364D01*
X041580Y039380D01*
X041617Y039392D01*
X041656Y039401D01*
X041695Y039406D01*
X041734Y039407D01*
X041773Y039404D01*
X041812Y039397D01*
X041849Y039386D01*
X041886Y039372D01*
X041921Y039354D01*
X041954Y039333D01*
X041985Y039308D01*
X042013Y039281D01*
X042038Y039251D01*
X042060Y039218D01*
X042079Y039184D01*
X042094Y039148D01*
X042106Y039110D01*
X042114Y039072D01*
X042118Y039033D01*
X042118Y038993D01*
X042114Y038954D01*
X042106Y038916D01*
X042094Y038878D01*
X042079Y038842D01*
X042060Y038808D01*
X042038Y038775D01*
X042013Y038745D01*
X041985Y038718D01*
X041954Y038693D01*
X041921Y038672D01*
X041886Y038654D01*
X041849Y038640D01*
X041812Y038629D01*
X041773Y038622D01*
X041734Y038619D01*
X041695Y038620D01*
X041656Y038625D01*
X041617Y038634D01*
X041580Y038646D01*
X041544Y038662D01*
X041510Y038682D01*
X041478Y038705D01*
X041449Y038731D01*
X041422Y038760D01*
X041398Y038791D01*
X041378Y038825D01*
X041361Y038860D01*
X041348Y038897D01*
X041338Y038935D01*
X041332Y038974D01*
X041330Y039013D01*
M02*
