%
M48
M72
T01C0.0150
T02C0.0197
T03C0.0236
T04C0.0354
T05C0.0400
T06C0.0512
T07C0.0551
T08C0.0900
T09C0.1180
%
T01
X5724Y8800
X3124Y11700
X5524Y12200
X7424Y18500
X11824Y21400
X11424Y24200
X7424Y24000
X3424Y23700
X2924Y18500
X13924Y15000
X14124Y14500
X13924Y11800
X15924Y11800
X17024Y13300
X19124Y14800
X19624Y14400
X20124Y15800
X19624Y15900
X19124Y16000
X18624Y16200
X18124Y16200
X21924Y14700
X22824Y14000
X23124Y12800
X23974Y12850
X24474Y12850
X25124Y12850
X25824Y12100
X24724Y10300
X23924Y11000
X23624Y11400
X23324Y11000
X23024Y11350
X22574Y11200
X22574Y10300
X22124Y9700
X23024Y9500
X23324Y9900
X23624Y9100
X24424Y8300
X25124Y8700
X22524Y12750
X23124Y15200
X23624Y15800
X23124Y16100
X22324Y15800
X22324Y16400
X24324Y16000
X24924Y15600
X27224Y14500
X26524Y18400
X22724Y18200
X22274Y18250
X23424Y24200
X19424Y24200
X15424Y24200
X15024Y32400
X11024Y32400
X7024Y32400
X3024Y32400
X19024Y32400
X23024Y32400
X27124Y32400
X31024Y32400
X35024Y32400
X39024Y32400
X43024Y32400
X47024Y32400
X31424Y24200
X27424Y24200
X36824Y18600
X19524Y9200
X16824Y8300
X16424Y7300
X15624Y7300
X15624Y7900
X13824Y7800
X13724Y8700
T02
X10824Y17200
T03
X46024Y10800
T04
X16891Y5500
X15158Y5500
T05
X33974Y16600
X33874Y17600
X33974Y18600
X33874Y19600
X33974Y20600
X40224Y20600
X40224Y19600
X40224Y18600
X46324Y18200
X46324Y21200
T06
X41857Y37800
X39857Y37800
X37857Y37800
X35857Y37800
X33757Y37800
X31757Y37800
X29757Y37800
X27757Y37800
X25657Y37800
X23657Y37800
X21657Y37800
X19657Y37800
X17557Y37800
X15557Y37800
X13557Y37800
X11557Y37800
X11557Y41800
X13557Y41800
X15557Y41800
X17557Y41800
X19657Y41800
X21657Y41800
X23657Y41800
X25657Y41800
X27757Y41800
X29757Y41800
X31757Y41800
X33757Y41800
X35857Y41800
X37857Y41800
X39857Y41800
X41857Y41800
T07
X43037Y5400
X33612Y5400
T08
X3574Y8241
X3574Y39501
X51074Y39501
X51074Y8241
T09
X48675Y6613
X46824Y7794
X46824Y5431
M30
