G75*
G70*
%OFA0B0*%
%FSLAX24Y24*%
%IPPOS*%
%LPD*%
%AMOC8*
5,1,8,0,0,1.08239X$1,22.5*
%
%ADD10C,0.0740*%
%ADD11C,0.1700*%
%ADD12C,0.0640*%
%ADD13OC8,0.1240*%
%ADD14C,0.1240*%
%ADD15C,0.0860*%
%ADD16C,0.0350*%
%ADD17C,0.0080*%
%ADD18C,0.0397*%
%ADD19C,0.0500*%
%ADD20C,0.1000*%
%ADD21C,0.0436*%
D10*
X033974Y016600D03*
X033874Y017600D03*
X033974Y018600D03*
X033874Y019600D03*
X033974Y020600D03*
D11*
X046824Y007794D03*
X048675Y006613D03*
X046824Y005431D03*
D12*
X040544Y018600D02*
X039904Y018600D01*
X039904Y019600D02*
X040544Y019600D01*
X040544Y020600D02*
X039904Y020600D01*
D13*
X046324Y018200D03*
D14*
X046324Y021200D03*
D15*
X041857Y037800D03*
X039857Y037800D03*
X037857Y037800D03*
X035857Y037800D03*
X033757Y037800D03*
X031757Y037800D03*
X029757Y037800D03*
X027757Y037800D03*
X025657Y037800D03*
X023657Y037800D03*
X021657Y037800D03*
X019657Y037800D03*
X017557Y037800D03*
X015557Y037800D03*
X013557Y037800D03*
X011557Y037800D03*
X011557Y041800D03*
X013557Y041800D03*
X015557Y041800D03*
X017557Y041800D03*
X019657Y041800D03*
X021657Y041800D03*
X023657Y041800D03*
X025657Y041800D03*
X027757Y041800D03*
X029757Y041800D03*
X031757Y041800D03*
X033757Y041800D03*
X035857Y041800D03*
X037857Y041800D03*
X039857Y041800D03*
X041857Y041800D03*
D16*
X043024Y032400D03*
X047024Y032400D03*
X039024Y032400D03*
X035024Y032400D03*
X031024Y032400D03*
X027124Y032400D03*
X023024Y032400D03*
X019024Y032400D03*
X015024Y032400D03*
X011024Y032400D03*
X007024Y032400D03*
X003024Y032400D03*
X007424Y024000D03*
X011424Y024200D03*
X011824Y021400D03*
X015424Y024200D03*
X019424Y024200D03*
X023424Y024200D03*
X027424Y024200D03*
X031424Y024200D03*
X026524Y018400D03*
X024924Y015600D03*
X024324Y016000D03*
X023624Y015800D03*
X023124Y016100D03*
X022324Y015800D03*
X022324Y016400D03*
X023124Y015200D03*
X022824Y014000D03*
X021924Y014700D03*
X020124Y015800D03*
X019624Y015900D03*
X019124Y016000D03*
X018624Y016200D03*
X018124Y016200D03*
X019124Y014800D03*
X019624Y014400D03*
X017024Y013300D03*
X015924Y011800D03*
X013924Y011800D03*
X014124Y014500D03*
X013924Y015000D03*
X007424Y018500D03*
X002924Y018500D03*
X003424Y023700D03*
X005524Y012200D03*
X003124Y011700D03*
X005724Y008800D03*
X013724Y008700D03*
X013824Y007800D03*
X015624Y007900D03*
X015624Y007300D03*
X016424Y007300D03*
X016824Y008300D03*
X019524Y009200D03*
X022124Y009700D03*
X022574Y010300D03*
X023324Y009900D03*
X023024Y009500D03*
X023624Y009100D03*
X024424Y008300D03*
X025124Y008700D03*
X024724Y010300D03*
X023924Y011000D03*
X023624Y011400D03*
X023324Y011000D03*
X023024Y011350D03*
X022574Y011200D03*
X022524Y012750D03*
X023124Y012800D03*
X023974Y012850D03*
X024474Y012850D03*
X025124Y012850D03*
X025824Y012100D03*
X027224Y014500D03*
X022724Y018200D03*
X022274Y018250D03*
X036824Y018600D03*
D17*
X004724Y010400D02*
X004724Y008100D01*
X010124Y008100D01*
X010124Y003540D01*
X044324Y003540D01*
X044324Y014800D01*
X047584Y014800D01*
X049824Y017140D01*
X049824Y028100D01*
X002464Y028100D01*
X002464Y010400D01*
X004724Y010400D01*
X004724Y010387D02*
X016085Y010387D01*
X016163Y010465D02*
X002464Y010465D01*
X002464Y010544D02*
X016242Y010544D01*
X016320Y010622D02*
X002464Y010622D01*
X002464Y010701D02*
X016399Y010701D01*
X016477Y010779D02*
X002464Y010779D01*
X002464Y010858D02*
X016556Y010858D01*
X016634Y010936D02*
X002464Y010936D01*
X002464Y011015D02*
X016713Y011015D01*
X016791Y011093D02*
X002464Y011093D01*
X002464Y011172D02*
X016870Y011172D01*
X016948Y011250D02*
X002464Y011250D01*
X002464Y011329D02*
X017027Y011329D01*
X017105Y011407D02*
X002464Y011407D01*
X002464Y011486D02*
X017184Y011486D01*
X017262Y011564D02*
X016106Y011564D01*
X016092Y011550D02*
X016174Y011633D01*
X016219Y011741D01*
X016219Y011859D01*
X016174Y011967D01*
X016102Y012040D01*
X017491Y012040D01*
X017584Y012134D01*
X019559Y014108D01*
X019566Y014105D01*
X019683Y014105D01*
X019792Y014150D01*
X019874Y014233D01*
X019919Y014341D01*
X019919Y014459D01*
X019874Y014567D01*
X019792Y014650D01*
X019683Y014695D01*
X019566Y014695D01*
X019457Y014650D01*
X019374Y014567D01*
X019329Y014459D01*
X019329Y014341D01*
X019332Y014334D01*
X017358Y012360D01*
X005777Y012360D01*
X005774Y012367D01*
X005692Y012450D01*
X005583Y012495D01*
X005466Y012495D01*
X005357Y012450D01*
X005274Y012367D01*
X005229Y012259D01*
X005229Y012141D01*
X005274Y012033D01*
X005357Y011950D01*
X005466Y011905D01*
X005583Y011905D01*
X005692Y011950D01*
X005774Y012033D01*
X005777Y012040D01*
X013747Y012040D01*
X013674Y011967D01*
X013629Y011859D01*
X013629Y011741D01*
X013674Y011633D01*
X013757Y011550D01*
X013866Y011505D01*
X013983Y011505D01*
X014092Y011550D01*
X014174Y011633D01*
X014177Y011640D01*
X015671Y011640D01*
X015674Y011633D01*
X015757Y011550D01*
X015866Y011505D01*
X015983Y011505D01*
X016092Y011550D01*
X016178Y011643D02*
X017341Y011643D01*
X017419Y011721D02*
X016211Y011721D01*
X016219Y011800D02*
X017498Y011800D01*
X017576Y011878D02*
X016211Y011878D01*
X016179Y011957D02*
X017655Y011957D01*
X017733Y012035D02*
X016107Y012035D01*
X015924Y011800D02*
X013924Y011800D01*
X013629Y011800D02*
X002464Y011800D01*
X002464Y011878D02*
X013637Y011878D01*
X013670Y011957D02*
X005698Y011957D01*
X005775Y012035D02*
X013742Y012035D01*
X013638Y011721D02*
X002464Y011721D01*
X002464Y011643D02*
X013670Y011643D01*
X013743Y011564D02*
X002464Y011564D01*
X002464Y011957D02*
X005351Y011957D01*
X005273Y012035D02*
X002464Y012035D01*
X002464Y012114D02*
X005241Y012114D01*
X005229Y012192D02*
X002464Y012192D01*
X002464Y012271D02*
X005234Y012271D01*
X005267Y012349D02*
X002464Y012349D01*
X002464Y012428D02*
X005335Y012428D01*
X005524Y012200D02*
X017424Y012200D01*
X019624Y014400D01*
X019329Y014390D02*
X014398Y014390D01*
X014419Y014441D02*
X014419Y014559D01*
X014416Y014566D01*
X014891Y015040D01*
X020367Y015040D01*
X020791Y015464D01*
X020884Y015557D01*
X020884Y016134D01*
X022659Y017908D01*
X022666Y017905D01*
X022783Y017905D01*
X022892Y017950D01*
X022974Y018033D01*
X023019Y018141D01*
X023019Y018259D01*
X022974Y018367D01*
X022892Y018450D01*
X022783Y018495D01*
X022666Y018495D01*
X022557Y018450D01*
X022524Y018417D01*
X022442Y018500D01*
X022333Y018545D01*
X022216Y018545D01*
X022107Y018500D01*
X022024Y018417D01*
X021979Y018309D01*
X021979Y018191D01*
X021982Y018184D01*
X020458Y016660D01*
X020364Y016566D01*
X020364Y015977D01*
X020292Y016050D01*
X020284Y016053D01*
X020284Y016166D01*
X020191Y016260D01*
X020191Y016260D01*
X019584Y016866D01*
X019584Y023947D01*
X019592Y023950D01*
X019674Y024033D01*
X019719Y024141D01*
X019719Y024259D01*
X019674Y024367D01*
X019592Y024450D01*
X019483Y024495D01*
X019366Y024495D01*
X019257Y024450D01*
X019174Y024367D01*
X019129Y024259D01*
X019129Y024141D01*
X019174Y024033D01*
X019257Y023950D01*
X019264Y023947D01*
X019264Y016734D01*
X019358Y016640D01*
X019358Y016640D01*
X019953Y016045D01*
X019904Y015997D01*
X019874Y016067D01*
X019792Y016150D01*
X019683Y016195D01*
X019656Y016195D01*
X015584Y020266D01*
X015584Y023947D01*
X015592Y023950D01*
X015674Y024033D01*
X015719Y024141D01*
X015719Y024259D01*
X015674Y024367D01*
X015592Y024450D01*
X015483Y024495D01*
X015366Y024495D01*
X015257Y024450D01*
X015174Y024367D01*
X015129Y024259D01*
X015129Y024141D01*
X015174Y024033D01*
X015257Y023950D01*
X015264Y023947D01*
X015264Y020286D01*
X011596Y023955D01*
X011674Y024033D01*
X011719Y024141D01*
X011719Y024259D01*
X011674Y024367D01*
X011592Y024450D01*
X011483Y024495D01*
X011366Y024495D01*
X011257Y024450D01*
X011174Y024367D01*
X011129Y024259D01*
X011129Y024141D01*
X011174Y024033D01*
X011257Y023950D01*
X011264Y023947D01*
X011264Y023886D01*
X010991Y024160D01*
X007677Y024160D01*
X007674Y024167D01*
X007592Y024250D01*
X007483Y024295D01*
X007366Y024295D01*
X007257Y024250D01*
X007174Y024167D01*
X007129Y024059D01*
X007129Y023941D01*
X007163Y023860D01*
X003677Y023860D01*
X003674Y023867D01*
X003592Y023950D01*
X003483Y023995D01*
X003366Y023995D01*
X003257Y023950D01*
X003174Y023867D01*
X003129Y023759D01*
X003129Y023641D01*
X003174Y023533D01*
X003257Y023450D01*
X003366Y023405D01*
X003483Y023405D01*
X003592Y023450D01*
X003674Y023533D01*
X003677Y023540D01*
X010758Y023540D01*
X017903Y016395D01*
X017874Y016367D01*
X017829Y016259D01*
X017829Y016141D01*
X017874Y016033D01*
X017957Y015950D01*
X018066Y015905D01*
X018183Y015905D01*
X018292Y015950D01*
X018374Y016033D01*
X018457Y015950D01*
X018566Y015905D01*
X018683Y015905D01*
X018792Y015950D01*
X018829Y015988D01*
X018829Y015941D01*
X018874Y015833D01*
X018957Y015750D01*
X019066Y015705D01*
X019183Y015705D01*
X019292Y015750D01*
X019345Y015803D01*
X019345Y015803D01*
X019374Y015733D01*
X019457Y015650D01*
X019566Y015605D01*
X019683Y015605D01*
X019792Y015650D01*
X019845Y015703D01*
X019874Y015633D01*
X019947Y015560D01*
X014258Y015560D01*
X014164Y015466D01*
X013990Y015292D01*
X013983Y015295D01*
X013866Y015295D01*
X013757Y015250D01*
X013674Y015167D01*
X013629Y015059D01*
X013629Y014941D01*
X013674Y014833D01*
X013757Y014750D01*
X013866Y014705D01*
X013912Y014705D01*
X013874Y014667D01*
X013829Y014559D01*
X013829Y014441D01*
X013874Y014333D01*
X013957Y014250D01*
X014066Y014205D01*
X014183Y014205D01*
X014292Y014250D01*
X014374Y014333D01*
X014419Y014441D01*
X014419Y014469D02*
X019333Y014469D01*
X019366Y014547D02*
X014419Y014547D01*
X014476Y014626D02*
X019433Y014626D01*
X019310Y014312D02*
X014353Y014312D01*
X014251Y014233D02*
X019231Y014233D01*
X019153Y014155D02*
X002464Y014155D01*
X002464Y014233D02*
X013998Y014233D01*
X013896Y014312D02*
X002464Y014312D01*
X002464Y014390D02*
X013851Y014390D01*
X013829Y014469D02*
X002464Y014469D01*
X002464Y014547D02*
X013829Y014547D01*
X013857Y014626D02*
X002464Y014626D01*
X002464Y014704D02*
X013911Y014704D01*
X013725Y014783D02*
X002464Y014783D01*
X002464Y014861D02*
X013663Y014861D01*
X013630Y014940D02*
X002464Y014940D01*
X002464Y015018D02*
X013629Y015018D01*
X013645Y015097D02*
X002464Y015097D01*
X002464Y015175D02*
X013682Y015175D01*
X013766Y015254D02*
X002464Y015254D01*
X002464Y015332D02*
X014030Y015332D01*
X014109Y015411D02*
X002464Y015411D01*
X002464Y015489D02*
X014187Y015489D01*
X014324Y015400D02*
X020183Y015400D01*
X020524Y015741D01*
X020524Y016500D01*
X022274Y018250D01*
X021979Y018237D02*
X019584Y018237D01*
X019584Y018315D02*
X021982Y018315D01*
X022015Y018394D02*
X019584Y018394D01*
X019584Y018472D02*
X022079Y018472D01*
X021956Y018158D02*
X019584Y018158D01*
X019584Y018080D02*
X021878Y018080D01*
X021799Y018001D02*
X019584Y018001D01*
X019584Y017923D02*
X021721Y017923D01*
X021642Y017844D02*
X019584Y017844D01*
X019584Y017766D02*
X021564Y017766D01*
X021485Y017687D02*
X019584Y017687D01*
X019584Y017609D02*
X021407Y017609D01*
X021328Y017530D02*
X019584Y017530D01*
X019584Y017452D02*
X021250Y017452D01*
X021171Y017373D02*
X019584Y017373D01*
X019584Y017295D02*
X021093Y017295D01*
X021014Y017216D02*
X019584Y017216D01*
X019584Y017138D02*
X020936Y017138D01*
X020857Y017059D02*
X019584Y017059D01*
X019584Y016981D02*
X020779Y016981D01*
X020700Y016902D02*
X019584Y016902D01*
X019627Y016824D02*
X020622Y016824D01*
X020543Y016745D02*
X019706Y016745D01*
X019784Y016667D02*
X020465Y016667D01*
X020458Y016660D02*
X020458Y016660D01*
X020386Y016588D02*
X019863Y016588D01*
X019941Y016510D02*
X020364Y016510D01*
X020364Y016431D02*
X020020Y016431D01*
X020098Y016353D02*
X020364Y016353D01*
X020364Y016274D02*
X020177Y016274D01*
X020255Y016196D02*
X020364Y016196D01*
X020364Y016117D02*
X020284Y016117D01*
X020303Y016039D02*
X020364Y016039D01*
X020124Y016100D02*
X020124Y015800D01*
X019940Y015568D02*
X002464Y015568D01*
X002464Y015646D02*
X019467Y015646D01*
X019383Y015725D02*
X019230Y015725D01*
X019019Y015725D02*
X002464Y015725D01*
X002464Y015803D02*
X018904Y015803D01*
X018854Y015882D02*
X002464Y015882D01*
X002464Y015960D02*
X017947Y015960D01*
X017872Y016039D02*
X002464Y016039D01*
X002464Y016117D02*
X017839Y016117D01*
X017829Y016196D02*
X002464Y016196D01*
X002464Y016274D02*
X017836Y016274D01*
X017868Y016353D02*
X002464Y016353D01*
X002464Y016431D02*
X017867Y016431D01*
X017789Y016510D02*
X002464Y016510D01*
X002464Y016588D02*
X017710Y016588D01*
X017632Y016667D02*
X002464Y016667D01*
X002464Y016745D02*
X017553Y016745D01*
X017475Y016824D02*
X002464Y016824D01*
X002464Y016902D02*
X017396Y016902D01*
X017318Y016981D02*
X002464Y016981D01*
X002464Y017059D02*
X017239Y017059D01*
X017161Y017138D02*
X002464Y017138D01*
X002464Y017216D02*
X017082Y017216D01*
X017004Y017295D02*
X002464Y017295D01*
X002464Y017373D02*
X016925Y017373D01*
X016847Y017452D02*
X002464Y017452D01*
X002464Y017530D02*
X016768Y017530D01*
X016690Y017609D02*
X002464Y017609D01*
X002464Y017687D02*
X016611Y017687D01*
X016533Y017766D02*
X002464Y017766D01*
X002464Y017844D02*
X016454Y017844D01*
X016376Y017923D02*
X002464Y017923D01*
X002464Y018001D02*
X016297Y018001D01*
X016219Y018080D02*
X002464Y018080D01*
X002464Y018158D02*
X016140Y018158D01*
X016062Y018237D02*
X002464Y018237D01*
X002464Y018315D02*
X015983Y018315D01*
X015905Y018394D02*
X002464Y018394D01*
X002464Y018472D02*
X015826Y018472D01*
X015748Y018551D02*
X002464Y018551D01*
X002464Y018629D02*
X015669Y018629D01*
X015591Y018708D02*
X002464Y018708D01*
X002464Y018786D02*
X015512Y018786D01*
X015434Y018865D02*
X002464Y018865D01*
X002464Y018943D02*
X015355Y018943D01*
X015277Y019022D02*
X002464Y019022D01*
X002464Y019100D02*
X015198Y019100D01*
X015120Y019179D02*
X002464Y019179D01*
X002464Y019257D02*
X015041Y019257D01*
X014963Y019336D02*
X002464Y019336D01*
X002464Y019414D02*
X014884Y019414D01*
X014806Y019493D02*
X002464Y019493D01*
X002464Y019571D02*
X014727Y019571D01*
X014649Y019650D02*
X002464Y019650D01*
X002464Y019728D02*
X014570Y019728D01*
X014492Y019807D02*
X002464Y019807D01*
X002464Y019885D02*
X014413Y019885D01*
X014335Y019964D02*
X002464Y019964D01*
X002464Y020042D02*
X014256Y020042D01*
X014178Y020121D02*
X002464Y020121D01*
X002464Y020199D02*
X014099Y020199D01*
X014021Y020278D02*
X002464Y020278D01*
X002464Y020356D02*
X013942Y020356D01*
X013864Y020435D02*
X002464Y020435D01*
X002464Y020513D02*
X013785Y020513D01*
X013707Y020592D02*
X002464Y020592D01*
X002464Y020670D02*
X013628Y020670D01*
X013550Y020749D02*
X002464Y020749D01*
X002464Y020827D02*
X013471Y020827D01*
X013393Y020906D02*
X002464Y020906D01*
X002464Y020984D02*
X013314Y020984D01*
X013236Y021063D02*
X002464Y021063D01*
X002464Y021141D02*
X013157Y021141D01*
X013079Y021220D02*
X002464Y021220D01*
X002464Y021298D02*
X013000Y021298D01*
X012922Y021377D02*
X002464Y021377D01*
X002464Y021455D02*
X012843Y021455D01*
X012765Y021534D02*
X002464Y021534D01*
X002464Y021612D02*
X012686Y021612D01*
X012608Y021691D02*
X002464Y021691D01*
X002464Y021769D02*
X012529Y021769D01*
X012451Y021848D02*
X002464Y021848D01*
X002464Y021926D02*
X012372Y021926D01*
X012294Y022005D02*
X002464Y022005D01*
X002464Y022083D02*
X012215Y022083D01*
X012137Y022162D02*
X002464Y022162D01*
X002464Y022240D02*
X012058Y022240D01*
X011980Y022319D02*
X002464Y022319D01*
X002464Y022397D02*
X011901Y022397D01*
X011823Y022476D02*
X002464Y022476D01*
X002464Y022554D02*
X011744Y022554D01*
X011666Y022633D02*
X002464Y022633D01*
X002464Y022711D02*
X011587Y022711D01*
X011509Y022790D02*
X002464Y022790D01*
X002464Y022868D02*
X011430Y022868D01*
X011352Y022947D02*
X002464Y022947D01*
X002464Y023025D02*
X011273Y023025D01*
X011195Y023104D02*
X002464Y023104D01*
X002464Y023182D02*
X011116Y023182D01*
X011038Y023261D02*
X002464Y023261D01*
X002464Y023339D02*
X010959Y023339D01*
X010881Y023418D02*
X003513Y023418D01*
X003638Y023496D02*
X010802Y023496D01*
X010824Y023700D02*
X018124Y016400D01*
X018124Y016200D01*
X018302Y015960D02*
X018447Y015960D01*
X018624Y016200D02*
X018624Y016300D01*
X010924Y024000D01*
X007424Y024000D01*
X007151Y023889D02*
X003653Y023889D01*
X003551Y023967D02*
X007129Y023967D01*
X007129Y024046D02*
X002464Y024046D01*
X002464Y024124D02*
X007156Y024124D01*
X007210Y024203D02*
X002464Y024203D01*
X002464Y024281D02*
X007332Y024281D01*
X007517Y024281D02*
X011139Y024281D01*
X011129Y024203D02*
X007639Y024203D01*
X010824Y023700D02*
X003424Y023700D01*
X003151Y023810D02*
X002464Y023810D01*
X002464Y023732D02*
X003129Y023732D01*
X003129Y023653D02*
X002464Y023653D01*
X002464Y023575D02*
X003157Y023575D01*
X003211Y023496D02*
X002464Y023496D01*
X002464Y023418D02*
X003335Y023418D01*
X003196Y023889D02*
X002464Y023889D01*
X002464Y023967D02*
X003298Y023967D01*
X002464Y024360D02*
X011171Y024360D01*
X011245Y024438D02*
X002464Y024438D01*
X002464Y024517D02*
X049824Y024517D01*
X049824Y024595D02*
X002464Y024595D01*
X002464Y024674D02*
X049824Y024674D01*
X049824Y024752D02*
X002464Y024752D01*
X002464Y024831D02*
X049824Y024831D01*
X049824Y024909D02*
X002464Y024909D01*
X002464Y024988D02*
X049824Y024988D01*
X049824Y025066D02*
X002464Y025066D01*
X002464Y025145D02*
X049824Y025145D01*
X049824Y025223D02*
X002464Y025223D01*
X002464Y025302D02*
X049824Y025302D01*
X049824Y025380D02*
X002464Y025380D01*
X002464Y025459D02*
X049824Y025459D01*
X049824Y025537D02*
X002464Y025537D01*
X002464Y025616D02*
X049824Y025616D01*
X049824Y025694D02*
X002464Y025694D01*
X002464Y025773D02*
X049824Y025773D01*
X049824Y025851D02*
X002464Y025851D01*
X002464Y025930D02*
X049824Y025930D01*
X049824Y026008D02*
X002464Y026008D01*
X002464Y026087D02*
X049824Y026087D01*
X049824Y026165D02*
X002464Y026165D01*
X002464Y026244D02*
X049824Y026244D01*
X049824Y026322D02*
X002464Y026322D01*
X002464Y026401D02*
X049824Y026401D01*
X049824Y026479D02*
X002464Y026479D01*
X002464Y026558D02*
X049824Y026558D01*
X049824Y026636D02*
X002464Y026636D01*
X002464Y026715D02*
X049824Y026715D01*
X049824Y026793D02*
X002464Y026793D01*
X002464Y026872D02*
X049824Y026872D01*
X049824Y026950D02*
X002464Y026950D01*
X002464Y027029D02*
X049824Y027029D01*
X049824Y027107D02*
X002464Y027107D01*
X002464Y027186D02*
X049824Y027186D01*
X049824Y027264D02*
X002464Y027264D01*
X002464Y027343D02*
X049824Y027343D01*
X049824Y027421D02*
X002464Y027421D01*
X002464Y027500D02*
X049824Y027500D01*
X049824Y027578D02*
X002464Y027578D01*
X002464Y027657D02*
X049824Y027657D01*
X049824Y027735D02*
X002464Y027735D01*
X002464Y027814D02*
X049824Y027814D01*
X049824Y027892D02*
X002464Y027892D01*
X002464Y027971D02*
X049824Y027971D01*
X049824Y028049D02*
X002464Y028049D01*
X011027Y024124D02*
X011137Y024124D01*
X011105Y024046D02*
X011169Y024046D01*
X011184Y023967D02*
X011240Y023967D01*
X011262Y023889D02*
X011264Y023889D01*
X011424Y023900D02*
X011424Y024200D01*
X011719Y024203D02*
X015129Y024203D01*
X015139Y024281D02*
X011710Y024281D01*
X011678Y024360D02*
X015171Y024360D01*
X015245Y024438D02*
X011604Y024438D01*
X011712Y024124D02*
X015137Y024124D01*
X015169Y024046D02*
X011680Y024046D01*
X011609Y023967D02*
X015240Y023967D01*
X015264Y023889D02*
X011662Y023889D01*
X011741Y023810D02*
X015264Y023810D01*
X015264Y023732D02*
X011819Y023732D01*
X011898Y023653D02*
X015264Y023653D01*
X015264Y023575D02*
X011976Y023575D01*
X012055Y023496D02*
X015264Y023496D01*
X015264Y023418D02*
X012133Y023418D01*
X012212Y023339D02*
X015264Y023339D01*
X015264Y023261D02*
X012290Y023261D01*
X012369Y023182D02*
X015264Y023182D01*
X015264Y023104D02*
X012447Y023104D01*
X012526Y023025D02*
X015264Y023025D01*
X015264Y022947D02*
X012604Y022947D01*
X012683Y022868D02*
X015264Y022868D01*
X015264Y022790D02*
X012761Y022790D01*
X012840Y022711D02*
X015264Y022711D01*
X015264Y022633D02*
X012918Y022633D01*
X012997Y022554D02*
X015264Y022554D01*
X015264Y022476D02*
X013075Y022476D01*
X013154Y022397D02*
X015264Y022397D01*
X015264Y022319D02*
X013232Y022319D01*
X013311Y022240D02*
X015264Y022240D01*
X015264Y022162D02*
X013389Y022162D01*
X013468Y022083D02*
X015264Y022083D01*
X015264Y022005D02*
X013546Y022005D01*
X013625Y021926D02*
X015264Y021926D01*
X015264Y021848D02*
X013703Y021848D01*
X013782Y021769D02*
X015264Y021769D01*
X015264Y021691D02*
X013860Y021691D01*
X013939Y021612D02*
X015264Y021612D01*
X015264Y021534D02*
X014017Y021534D01*
X014096Y021455D02*
X015264Y021455D01*
X015264Y021377D02*
X014174Y021377D01*
X014253Y021298D02*
X015264Y021298D01*
X015264Y021220D02*
X014331Y021220D01*
X014410Y021141D02*
X015264Y021141D01*
X015264Y021063D02*
X014488Y021063D01*
X014567Y020984D02*
X015264Y020984D01*
X015264Y020906D02*
X014645Y020906D01*
X014724Y020827D02*
X015264Y020827D01*
X015264Y020749D02*
X014802Y020749D01*
X014881Y020670D02*
X015264Y020670D01*
X015264Y020592D02*
X014959Y020592D01*
X015038Y020513D02*
X015264Y020513D01*
X015264Y020435D02*
X015116Y020435D01*
X015195Y020356D02*
X015264Y020356D01*
X015424Y020200D02*
X019624Y016000D01*
X019624Y015900D01*
X019825Y016117D02*
X019881Y016117D01*
X019886Y016039D02*
X019946Y016039D01*
X020124Y016100D02*
X019424Y016800D01*
X019424Y024200D01*
X019129Y024203D02*
X015719Y024203D01*
X015710Y024281D02*
X019139Y024281D01*
X019171Y024360D02*
X015678Y024360D01*
X015604Y024438D02*
X019245Y024438D01*
X019137Y024124D02*
X015712Y024124D01*
X015680Y024046D02*
X019169Y024046D01*
X019240Y023967D02*
X015609Y023967D01*
X015584Y023889D02*
X019264Y023889D01*
X019264Y023810D02*
X015584Y023810D01*
X015584Y023732D02*
X019264Y023732D01*
X019264Y023653D02*
X015584Y023653D01*
X015584Y023575D02*
X019264Y023575D01*
X019264Y023496D02*
X015584Y023496D01*
X015584Y023418D02*
X019264Y023418D01*
X019264Y023339D02*
X015584Y023339D01*
X015584Y023261D02*
X019264Y023261D01*
X019264Y023182D02*
X015584Y023182D01*
X015584Y023104D02*
X019264Y023104D01*
X019264Y023025D02*
X015584Y023025D01*
X015584Y022947D02*
X019264Y022947D01*
X019264Y022868D02*
X015584Y022868D01*
X015584Y022790D02*
X019264Y022790D01*
X019264Y022711D02*
X015584Y022711D01*
X015584Y022633D02*
X019264Y022633D01*
X019264Y022554D02*
X015584Y022554D01*
X015584Y022476D02*
X019264Y022476D01*
X019264Y022397D02*
X015584Y022397D01*
X015584Y022319D02*
X019264Y022319D01*
X019264Y022240D02*
X015584Y022240D01*
X015584Y022162D02*
X019264Y022162D01*
X019264Y022083D02*
X015584Y022083D01*
X015584Y022005D02*
X019264Y022005D01*
X019264Y021926D02*
X015584Y021926D01*
X015584Y021848D02*
X019264Y021848D01*
X019264Y021769D02*
X015584Y021769D01*
X015584Y021691D02*
X019264Y021691D01*
X019264Y021612D02*
X015584Y021612D01*
X015584Y021534D02*
X019264Y021534D01*
X019264Y021455D02*
X015584Y021455D01*
X015584Y021377D02*
X019264Y021377D01*
X019264Y021298D02*
X015584Y021298D01*
X015584Y021220D02*
X019264Y021220D01*
X019264Y021141D02*
X015584Y021141D01*
X015584Y021063D02*
X019264Y021063D01*
X019264Y020984D02*
X015584Y020984D01*
X015584Y020906D02*
X019264Y020906D01*
X019264Y020827D02*
X015584Y020827D01*
X015584Y020749D02*
X019264Y020749D01*
X019264Y020670D02*
X015584Y020670D01*
X015584Y020592D02*
X019264Y020592D01*
X019264Y020513D02*
X015584Y020513D01*
X015584Y020435D02*
X019264Y020435D01*
X019264Y020356D02*
X015584Y020356D01*
X015584Y020278D02*
X019264Y020278D01*
X019264Y020199D02*
X015652Y020199D01*
X015730Y020121D02*
X019264Y020121D01*
X019264Y020042D02*
X015809Y020042D01*
X015887Y019964D02*
X019264Y019964D01*
X019264Y019885D02*
X015966Y019885D01*
X016044Y019807D02*
X019264Y019807D01*
X019264Y019728D02*
X016123Y019728D01*
X016201Y019650D02*
X019264Y019650D01*
X019264Y019571D02*
X016280Y019571D01*
X016358Y019493D02*
X019264Y019493D01*
X019264Y019414D02*
X016437Y019414D01*
X016515Y019336D02*
X019264Y019336D01*
X019264Y019257D02*
X016594Y019257D01*
X016672Y019179D02*
X019264Y019179D01*
X019264Y019100D02*
X016751Y019100D01*
X016829Y019022D02*
X019264Y019022D01*
X019264Y018943D02*
X016908Y018943D01*
X016986Y018865D02*
X019264Y018865D01*
X019264Y018786D02*
X017065Y018786D01*
X017143Y018708D02*
X019264Y018708D01*
X019264Y018629D02*
X017222Y018629D01*
X017300Y018551D02*
X019264Y018551D01*
X019264Y018472D02*
X017379Y018472D01*
X017457Y018394D02*
X019264Y018394D01*
X019264Y018315D02*
X017536Y018315D01*
X017614Y018237D02*
X019264Y018237D01*
X019264Y018158D02*
X017693Y018158D01*
X017771Y018080D02*
X019264Y018080D01*
X019264Y018001D02*
X017850Y018001D01*
X017928Y017923D02*
X019264Y017923D01*
X019264Y017844D02*
X018007Y017844D01*
X018085Y017766D02*
X019264Y017766D01*
X019264Y017687D02*
X018164Y017687D01*
X018242Y017609D02*
X019264Y017609D01*
X019264Y017530D02*
X018321Y017530D01*
X018399Y017452D02*
X019264Y017452D01*
X019264Y017373D02*
X018478Y017373D01*
X018556Y017295D02*
X019264Y017295D01*
X019264Y017216D02*
X018635Y017216D01*
X018713Y017138D02*
X019264Y017138D01*
X019264Y017059D02*
X018792Y017059D01*
X018870Y016981D02*
X019264Y016981D01*
X019264Y016902D02*
X018949Y016902D01*
X019027Y016824D02*
X019264Y016824D01*
X019264Y016745D02*
X019106Y016745D01*
X019184Y016667D02*
X019332Y016667D01*
X019263Y016588D02*
X019410Y016588D01*
X019341Y016510D02*
X019489Y016510D01*
X019420Y016431D02*
X019567Y016431D01*
X019498Y016353D02*
X019646Y016353D01*
X019577Y016274D02*
X019724Y016274D01*
X019655Y016196D02*
X019803Y016196D01*
X019782Y015646D02*
X019869Y015646D01*
X020301Y015200D02*
X020724Y015624D01*
X020724Y016200D01*
X022724Y018200D01*
X022610Y018472D02*
X022470Y018472D01*
X022838Y018472D02*
X023264Y018472D01*
X023264Y018394D02*
X022948Y018394D01*
X022996Y018315D02*
X023264Y018315D01*
X023264Y018237D02*
X023019Y018237D01*
X023019Y018158D02*
X023264Y018158D01*
X023264Y018080D02*
X022994Y018080D01*
X022943Y018001D02*
X023264Y018001D01*
X023264Y017923D02*
X022825Y017923D01*
X022595Y017844D02*
X023264Y017844D01*
X023264Y017766D02*
X022516Y017766D01*
X022438Y017687D02*
X023264Y017687D01*
X023264Y017609D02*
X022359Y017609D01*
X022281Y017530D02*
X023228Y017530D01*
X023264Y017566D02*
X022390Y016692D01*
X022383Y016695D01*
X022266Y016695D01*
X022157Y016650D01*
X022074Y016567D01*
X022029Y016459D01*
X022029Y016341D01*
X022074Y016233D01*
X022157Y016150D01*
X022266Y016105D01*
X022383Y016105D01*
X022417Y016119D01*
X022390Y016092D01*
X022383Y016095D01*
X022266Y016095D01*
X022157Y016050D01*
X022074Y015967D01*
X022029Y015859D01*
X022029Y015741D01*
X022074Y015633D01*
X022157Y015550D01*
X022266Y015505D01*
X022383Y015505D01*
X022417Y015519D01*
X022358Y015460D01*
X021758Y015460D01*
X021658Y015360D01*
X021058Y015360D01*
X015358Y009660D01*
X014458Y009660D01*
X013790Y008992D01*
X013783Y008995D01*
X013666Y008995D01*
X013557Y008950D01*
X013474Y008867D01*
X013429Y008759D01*
X013429Y008641D01*
X013474Y008533D01*
X013557Y008450D01*
X013666Y008405D01*
X013783Y008405D01*
X013892Y008450D01*
X013974Y008533D01*
X014019Y008641D01*
X014019Y008759D01*
X014016Y008766D01*
X014591Y009340D01*
X015491Y009340D01*
X015584Y009434D01*
X021191Y015040D01*
X021791Y015040D01*
X021884Y015134D01*
X021891Y015140D01*
X022491Y015140D01*
X022584Y015234D01*
X022791Y015440D01*
X022947Y015440D01*
X022874Y015367D01*
X022829Y015259D01*
X022829Y015160D01*
X022658Y015160D01*
X022219Y014721D01*
X022219Y014759D01*
X022174Y014867D01*
X022092Y014950D01*
X021983Y014995D01*
X021866Y014995D01*
X021757Y014950D01*
X021674Y014867D01*
X021671Y014860D01*
X021258Y014860D01*
X021164Y014766D01*
X015658Y009260D01*
X015058Y009260D01*
X014964Y009166D01*
X013890Y008092D01*
X013883Y008095D01*
X013766Y008095D01*
X013657Y008050D01*
X013574Y007967D01*
X013529Y007859D01*
X013529Y007741D01*
X013574Y007633D01*
X013657Y007550D01*
X013766Y007505D01*
X013883Y007505D01*
X013992Y007550D01*
X014074Y007633D01*
X014119Y007741D01*
X014119Y007859D01*
X014116Y007866D01*
X015191Y008940D01*
X015791Y008940D01*
X021391Y014540D01*
X021671Y014540D01*
X021674Y014533D01*
X021757Y014450D01*
X021866Y014405D01*
X021903Y014405D01*
X015690Y008192D01*
X015683Y008195D01*
X015566Y008195D01*
X015457Y008150D01*
X015374Y008067D01*
X015329Y007959D01*
X015329Y007841D01*
X015374Y007733D01*
X015457Y007650D01*
X015566Y007605D01*
X015683Y007605D01*
X015717Y007619D01*
X015690Y007592D01*
X015683Y007595D01*
X015566Y007595D01*
X015457Y007550D01*
X015374Y007467D01*
X015329Y007359D01*
X015329Y007241D01*
X015374Y007133D01*
X015457Y007050D01*
X015566Y007005D01*
X015683Y007005D01*
X015792Y007050D01*
X015874Y007133D01*
X015919Y007241D01*
X015919Y007359D01*
X015916Y007366D01*
X016484Y007934D01*
X016484Y008234D01*
X016529Y008279D01*
X016529Y008241D01*
X016574Y008133D01*
X016657Y008050D01*
X016766Y008005D01*
X016883Y008005D01*
X016992Y008050D01*
X017074Y008133D01*
X017119Y008241D01*
X017119Y008359D01*
X017116Y008366D01*
X018291Y009540D01*
X018591Y009540D01*
X018684Y009634D01*
X022759Y013708D01*
X022766Y013705D01*
X022803Y013705D01*
X016620Y007522D01*
X016592Y007550D01*
X016483Y007595D01*
X016366Y007595D01*
X016257Y007550D01*
X016174Y007467D01*
X016129Y007359D01*
X016129Y007241D01*
X016174Y007133D01*
X016257Y007050D01*
X016366Y007005D01*
X016483Y007005D01*
X016592Y007050D01*
X016674Y007133D01*
X016677Y007140D01*
X016691Y007140D01*
X016784Y007234D01*
X024859Y015308D01*
X024866Y015305D01*
X024983Y015305D01*
X025092Y015350D01*
X025174Y015433D01*
X025219Y015541D01*
X025219Y015659D01*
X025174Y015767D01*
X025092Y015850D01*
X024983Y015895D01*
X024866Y015895D01*
X024757Y015850D01*
X024674Y015767D01*
X024629Y015659D01*
X024629Y015541D01*
X024632Y015534D01*
X023119Y014021D01*
X023119Y014059D01*
X023074Y014167D01*
X022992Y014250D01*
X022883Y014295D01*
X022766Y014295D01*
X022657Y014250D01*
X022574Y014167D01*
X022529Y014059D01*
X022529Y013941D01*
X022532Y013934D01*
X018458Y009860D01*
X018158Y009860D01*
X018064Y009766D01*
X016890Y008592D01*
X016883Y008595D01*
X016846Y008595D01*
X022891Y014640D01*
X023391Y014640D01*
X023484Y014734D01*
X024391Y015640D01*
X024484Y015734D01*
X024484Y015747D01*
X024492Y015750D01*
X024574Y015833D01*
X024619Y015941D01*
X024619Y016059D01*
X024574Y016167D01*
X024492Y016250D01*
X024383Y016295D01*
X024266Y016295D01*
X024157Y016250D01*
X024074Y016167D01*
X024029Y016059D01*
X024029Y015941D01*
X024074Y015833D01*
X024103Y015805D01*
X023405Y015107D01*
X023419Y015141D01*
X023419Y015259D01*
X023374Y015367D01*
X023302Y015440D01*
X023491Y015440D01*
X023559Y015508D01*
X023566Y015505D01*
X023683Y015505D01*
X023792Y015550D01*
X023874Y015633D01*
X023919Y015741D01*
X023919Y015859D01*
X023874Y015967D01*
X023792Y016050D01*
X023683Y016095D01*
X023566Y016095D01*
X023532Y016081D01*
X031359Y023908D01*
X031366Y023905D01*
X031483Y023905D01*
X031592Y023950D01*
X031674Y024033D01*
X031719Y024141D01*
X031719Y024259D01*
X031674Y024367D01*
X031592Y024450D01*
X031483Y024495D01*
X031366Y024495D01*
X031257Y024450D01*
X031174Y024367D01*
X031129Y024259D01*
X031129Y024141D01*
X031132Y024134D01*
X023320Y016322D01*
X023292Y016350D01*
X023183Y016395D01*
X023146Y016395D01*
X027584Y020834D01*
X027584Y023947D01*
X027592Y023950D01*
X027674Y024033D01*
X027719Y024141D01*
X027719Y024259D01*
X027674Y024367D01*
X027592Y024450D01*
X027483Y024495D01*
X027366Y024495D01*
X027257Y024450D01*
X027174Y024367D01*
X027129Y024259D01*
X027129Y024141D01*
X027174Y024033D01*
X027257Y023950D01*
X027264Y023947D01*
X027264Y020966D01*
X022605Y016307D01*
X022619Y016341D01*
X022619Y016459D01*
X022616Y016466D01*
X023491Y017340D01*
X023584Y017434D01*
X023584Y023947D01*
X023592Y023950D01*
X023674Y024033D01*
X023719Y024141D01*
X023719Y024259D01*
X023674Y024367D01*
X023592Y024450D01*
X023483Y024495D01*
X023366Y024495D01*
X023257Y024450D01*
X023174Y024367D01*
X023129Y024259D01*
X023129Y024141D01*
X023174Y024033D01*
X023257Y023950D01*
X023264Y023947D01*
X023264Y017566D01*
X023150Y017452D02*
X022202Y017452D01*
X022124Y017373D02*
X023071Y017373D01*
X022993Y017295D02*
X022045Y017295D01*
X021967Y017216D02*
X022914Y017216D01*
X022836Y017138D02*
X021888Y017138D01*
X021810Y017059D02*
X022757Y017059D01*
X022679Y016981D02*
X021731Y016981D01*
X021653Y016902D02*
X022600Y016902D01*
X022522Y016824D02*
X021574Y016824D01*
X021496Y016745D02*
X022443Y016745D01*
X022197Y016667D02*
X021417Y016667D01*
X021339Y016588D02*
X022095Y016588D01*
X022050Y016510D02*
X021260Y016510D01*
X021182Y016431D02*
X022029Y016431D01*
X022029Y016353D02*
X021103Y016353D01*
X021025Y016274D02*
X022057Y016274D01*
X022112Y016196D02*
X020946Y016196D01*
X020884Y016117D02*
X022237Y016117D01*
X022146Y016039D02*
X020884Y016039D01*
X020884Y015960D02*
X022071Y015960D01*
X022039Y015882D02*
X020884Y015882D01*
X020884Y015803D02*
X022029Y015803D01*
X022036Y015725D02*
X020884Y015725D01*
X020884Y015646D02*
X022069Y015646D01*
X022140Y015568D02*
X020884Y015568D01*
X020816Y015489D02*
X022387Y015489D01*
X022424Y015300D02*
X021824Y015300D01*
X021724Y015200D01*
X021124Y015200D01*
X015424Y009500D01*
X014524Y009500D01*
X013724Y008700D01*
X013453Y008817D02*
X004724Y008817D01*
X004724Y008895D02*
X013502Y008895D01*
X013614Y008974D02*
X004724Y008974D01*
X004724Y009052D02*
X013850Y009052D01*
X013929Y009131D02*
X004724Y009131D01*
X004724Y009209D02*
X014007Y009209D01*
X014086Y009288D02*
X004724Y009288D01*
X004724Y009366D02*
X014164Y009366D01*
X014243Y009445D02*
X004724Y009445D01*
X004724Y009523D02*
X014321Y009523D01*
X014400Y009602D02*
X004724Y009602D01*
X004724Y009680D02*
X015378Y009680D01*
X015457Y009759D02*
X004724Y009759D01*
X004724Y009837D02*
X015535Y009837D01*
X015614Y009916D02*
X004724Y009916D01*
X004724Y009994D02*
X015692Y009994D01*
X015771Y010073D02*
X004724Y010073D01*
X004724Y010151D02*
X015849Y010151D01*
X015928Y010230D02*
X004724Y010230D01*
X004724Y010308D02*
X016006Y010308D01*
X016223Y010073D02*
X016471Y010073D01*
X016549Y010151D02*
X016302Y010151D01*
X016380Y010230D02*
X016628Y010230D01*
X016706Y010308D02*
X016459Y010308D01*
X016537Y010387D02*
X016785Y010387D01*
X016863Y010465D02*
X016616Y010465D01*
X016694Y010544D02*
X016942Y010544D01*
X017020Y010622D02*
X016773Y010622D01*
X016851Y010701D02*
X017099Y010701D01*
X017177Y010779D02*
X016930Y010779D01*
X017008Y010858D02*
X017256Y010858D01*
X017334Y010936D02*
X017087Y010936D01*
X017165Y011015D02*
X017413Y011015D01*
X017491Y011093D02*
X017244Y011093D01*
X017322Y011172D02*
X017570Y011172D01*
X017648Y011250D02*
X017401Y011250D01*
X017479Y011329D02*
X017727Y011329D01*
X017805Y011407D02*
X017558Y011407D01*
X017636Y011486D02*
X017884Y011486D01*
X017962Y011564D02*
X017715Y011564D01*
X017793Y011643D02*
X018041Y011643D01*
X018119Y011721D02*
X017872Y011721D01*
X017950Y011800D02*
X018198Y011800D01*
X018276Y011878D02*
X018029Y011878D01*
X018107Y011957D02*
X018355Y011957D01*
X018433Y012035D02*
X018186Y012035D01*
X018264Y012114D02*
X018512Y012114D01*
X018590Y012192D02*
X018343Y012192D01*
X018421Y012271D02*
X018669Y012271D01*
X018747Y012349D02*
X018500Y012349D01*
X018578Y012428D02*
X018826Y012428D01*
X018904Y012506D02*
X018657Y012506D01*
X018735Y012585D02*
X018983Y012585D01*
X019061Y012663D02*
X018814Y012663D01*
X018892Y012742D02*
X019140Y012742D01*
X019218Y012820D02*
X018971Y012820D01*
X019049Y012899D02*
X019297Y012899D01*
X019375Y012977D02*
X019128Y012977D01*
X019206Y013056D02*
X019454Y013056D01*
X019532Y013134D02*
X019285Y013134D01*
X019363Y013213D02*
X019611Y013213D01*
X019689Y013291D02*
X019442Y013291D01*
X019520Y013370D02*
X019768Y013370D01*
X019846Y013448D02*
X019599Y013448D01*
X019677Y013527D02*
X019925Y013527D01*
X020003Y013605D02*
X019756Y013605D01*
X019834Y013684D02*
X020082Y013684D01*
X020160Y013762D02*
X019913Y013762D01*
X019991Y013841D02*
X020239Y013841D01*
X020317Y013919D02*
X020070Y013919D01*
X020148Y013998D02*
X020396Y013998D01*
X020474Y014076D02*
X020227Y014076D01*
X020305Y014155D02*
X020553Y014155D01*
X020631Y014233D02*
X020384Y014233D01*
X020462Y014312D02*
X020710Y014312D01*
X020788Y014390D02*
X020541Y014390D01*
X020619Y014469D02*
X020867Y014469D01*
X020945Y014547D02*
X020698Y014547D01*
X020776Y014626D02*
X021024Y014626D01*
X021102Y014704D02*
X020855Y014704D01*
X020933Y014783D02*
X021181Y014783D01*
X021324Y014700D02*
X021924Y014700D01*
X021739Y014469D02*
X021319Y014469D01*
X021241Y014390D02*
X021888Y014390D01*
X021810Y014312D02*
X021162Y014312D01*
X021084Y014233D02*
X021731Y014233D01*
X021653Y014155D02*
X021005Y014155D01*
X020927Y014076D02*
X021574Y014076D01*
X021496Y013998D02*
X020848Y013998D01*
X020770Y013919D02*
X021417Y013919D01*
X021339Y013841D02*
X020691Y013841D01*
X020613Y013762D02*
X021260Y013762D01*
X021182Y013684D02*
X020534Y013684D01*
X020456Y013605D02*
X021103Y013605D01*
X021025Y013527D02*
X020377Y013527D01*
X020299Y013448D02*
X020946Y013448D01*
X020868Y013370D02*
X020220Y013370D01*
X020142Y013291D02*
X020789Y013291D01*
X020711Y013213D02*
X020063Y013213D01*
X019985Y013134D02*
X020632Y013134D01*
X020554Y013056D02*
X019906Y013056D01*
X019828Y012977D02*
X020475Y012977D01*
X020397Y012899D02*
X019749Y012899D01*
X019671Y012820D02*
X020318Y012820D01*
X020240Y012742D02*
X019592Y012742D01*
X019514Y012663D02*
X020161Y012663D01*
X020083Y012585D02*
X019435Y012585D01*
X019357Y012506D02*
X020004Y012506D01*
X019926Y012428D02*
X019278Y012428D01*
X019200Y012349D02*
X019847Y012349D01*
X019769Y012271D02*
X019121Y012271D01*
X019043Y012192D02*
X019690Y012192D01*
X019612Y012114D02*
X018964Y012114D01*
X018886Y012035D02*
X019533Y012035D01*
X019455Y011957D02*
X018807Y011957D01*
X018729Y011878D02*
X019376Y011878D01*
X019298Y011800D02*
X018650Y011800D01*
X018572Y011721D02*
X019219Y011721D01*
X019141Y011643D02*
X018493Y011643D01*
X018415Y011564D02*
X019062Y011564D01*
X018984Y011486D02*
X018336Y011486D01*
X018258Y011407D02*
X018905Y011407D01*
X018827Y011329D02*
X018179Y011329D01*
X018101Y011250D02*
X018748Y011250D01*
X018670Y011172D02*
X018022Y011172D01*
X017944Y011093D02*
X018591Y011093D01*
X018513Y011015D02*
X017865Y011015D01*
X017787Y010936D02*
X018434Y010936D01*
X018356Y010858D02*
X017708Y010858D01*
X017630Y010779D02*
X018277Y010779D01*
X018199Y010701D02*
X017551Y010701D01*
X017473Y010622D02*
X018120Y010622D01*
X018042Y010544D02*
X017394Y010544D01*
X017316Y010465D02*
X017963Y010465D01*
X017885Y010387D02*
X017237Y010387D01*
X017159Y010308D02*
X017806Y010308D01*
X017728Y010230D02*
X017080Y010230D01*
X017002Y010151D02*
X017649Y010151D01*
X017571Y010073D02*
X016923Y010073D01*
X016845Y009994D02*
X017492Y009994D01*
X017414Y009916D02*
X016766Y009916D01*
X016688Y009837D02*
X017335Y009837D01*
X017257Y009759D02*
X016609Y009759D01*
X016531Y009680D02*
X017178Y009680D01*
X017100Y009602D02*
X016452Y009602D01*
X016374Y009523D02*
X017021Y009523D01*
X016943Y009445D02*
X016295Y009445D01*
X016217Y009366D02*
X016864Y009366D01*
X016786Y009288D02*
X016138Y009288D01*
X016060Y009209D02*
X016707Y009209D01*
X016629Y009131D02*
X015981Y009131D01*
X015903Y009052D02*
X016550Y009052D01*
X016472Y008974D02*
X015824Y008974D01*
X015724Y009100D02*
X021324Y014700D01*
X021090Y014940D02*
X021747Y014940D01*
X021672Y014861D02*
X021012Y014861D01*
X021169Y015018D02*
X022516Y015018D01*
X022438Y014940D02*
X022102Y014940D01*
X022177Y014861D02*
X022359Y014861D01*
X022281Y014783D02*
X022210Y014783D01*
X021847Y015097D02*
X022595Y015097D01*
X022526Y015175D02*
X022829Y015175D01*
X022829Y015254D02*
X022604Y015254D01*
X022683Y015332D02*
X022860Y015332D01*
X022918Y015411D02*
X022761Y015411D01*
X022724Y015600D02*
X022424Y015300D01*
X022724Y015000D02*
X015624Y007900D01*
X015724Y007900D01*
X015550Y008189D02*
X014439Y008189D01*
X014518Y008267D02*
X015765Y008267D01*
X015844Y008346D02*
X014596Y008346D01*
X014675Y008424D02*
X015922Y008424D01*
X016001Y008503D02*
X014753Y008503D01*
X014832Y008581D02*
X016079Y008581D01*
X016158Y008660D02*
X014910Y008660D01*
X014989Y008738D02*
X016236Y008738D01*
X016315Y008817D02*
X015067Y008817D01*
X015146Y008895D02*
X016393Y008895D01*
X016910Y008660D02*
X016958Y008660D01*
X016989Y008738D02*
X017036Y008738D01*
X017067Y008817D02*
X017115Y008817D01*
X017146Y008895D02*
X017193Y008895D01*
X017224Y008974D02*
X017272Y008974D01*
X017303Y009052D02*
X017350Y009052D01*
X017381Y009131D02*
X017429Y009131D01*
X017460Y009209D02*
X017507Y009209D01*
X017538Y009288D02*
X017586Y009288D01*
X017617Y009366D02*
X017664Y009366D01*
X017695Y009445D02*
X017743Y009445D01*
X017774Y009523D02*
X017821Y009523D01*
X017852Y009602D02*
X017900Y009602D01*
X017931Y009680D02*
X017978Y009680D01*
X018009Y009759D02*
X018057Y009759D01*
X018064Y009766D02*
X018064Y009766D01*
X018088Y009837D02*
X018135Y009837D01*
X018166Y009916D02*
X018514Y009916D01*
X018592Y009994D02*
X018245Y009994D01*
X018323Y010073D02*
X018671Y010073D01*
X018749Y010151D02*
X018402Y010151D01*
X018480Y010230D02*
X018828Y010230D01*
X018906Y010308D02*
X018559Y010308D01*
X018637Y010387D02*
X018985Y010387D01*
X019063Y010465D02*
X018716Y010465D01*
X018794Y010544D02*
X019142Y010544D01*
X019220Y010622D02*
X018873Y010622D01*
X018951Y010701D02*
X019299Y010701D01*
X019377Y010779D02*
X019030Y010779D01*
X019108Y010858D02*
X019456Y010858D01*
X019534Y010936D02*
X019187Y010936D01*
X019265Y011015D02*
X019613Y011015D01*
X019691Y011093D02*
X019344Y011093D01*
X019422Y011172D02*
X019770Y011172D01*
X019848Y011250D02*
X019501Y011250D01*
X019579Y011329D02*
X019927Y011329D01*
X020005Y011407D02*
X019658Y011407D01*
X019736Y011486D02*
X020084Y011486D01*
X020162Y011564D02*
X019815Y011564D01*
X019893Y011643D02*
X020241Y011643D01*
X020319Y011721D02*
X019972Y011721D01*
X020050Y011800D02*
X020398Y011800D01*
X020476Y011878D02*
X020129Y011878D01*
X020207Y011957D02*
X020555Y011957D01*
X020633Y012035D02*
X020286Y012035D01*
X020364Y012114D02*
X020712Y012114D01*
X020790Y012192D02*
X020443Y012192D01*
X020521Y012271D02*
X020869Y012271D01*
X020947Y012349D02*
X020600Y012349D01*
X020678Y012428D02*
X021026Y012428D01*
X021104Y012506D02*
X020757Y012506D01*
X020835Y012585D02*
X021183Y012585D01*
X021261Y012663D02*
X020914Y012663D01*
X020992Y012742D02*
X021340Y012742D01*
X021418Y012820D02*
X021071Y012820D01*
X021149Y012899D02*
X021497Y012899D01*
X021575Y012977D02*
X021228Y012977D01*
X021306Y013056D02*
X021654Y013056D01*
X021732Y013134D02*
X021385Y013134D01*
X021463Y013213D02*
X021811Y013213D01*
X021889Y013291D02*
X021542Y013291D01*
X021620Y013370D02*
X021968Y013370D01*
X022046Y013448D02*
X021699Y013448D01*
X021777Y013527D02*
X022125Y013527D01*
X022203Y013605D02*
X021856Y013605D01*
X021934Y013684D02*
X022282Y013684D01*
X022360Y013762D02*
X022013Y013762D01*
X022091Y013841D02*
X022439Y013841D01*
X022517Y013919D02*
X022170Y013919D01*
X022248Y013998D02*
X022529Y013998D01*
X022537Y014076D02*
X022327Y014076D01*
X022405Y014155D02*
X022569Y014155D01*
X022640Y014233D02*
X022484Y014233D01*
X022562Y014312D02*
X023410Y014312D01*
X023488Y014390D02*
X022641Y014390D01*
X022719Y014469D02*
X023567Y014469D01*
X023645Y014547D02*
X022798Y014547D01*
X022876Y014626D02*
X023724Y014626D01*
X023802Y014704D02*
X023455Y014704D01*
X023484Y014734D02*
X023484Y014734D01*
X023533Y014783D02*
X023881Y014783D01*
X023959Y014861D02*
X023612Y014861D01*
X023690Y014940D02*
X024038Y014940D01*
X024116Y015018D02*
X023769Y015018D01*
X023847Y015097D02*
X024195Y015097D01*
X024273Y015175D02*
X023926Y015175D01*
X024004Y015254D02*
X024352Y015254D01*
X024430Y015332D02*
X024083Y015332D01*
X024161Y015411D02*
X024509Y015411D01*
X024587Y015489D02*
X024240Y015489D01*
X024318Y015568D02*
X024629Y015568D01*
X024629Y015646D02*
X024397Y015646D01*
X024475Y015725D02*
X024657Y015725D01*
X024710Y015803D02*
X024545Y015803D01*
X024595Y015882D02*
X024833Y015882D01*
X025016Y015882D02*
X025980Y015882D01*
X026058Y015960D02*
X024619Y015960D01*
X024619Y016039D02*
X026137Y016039D01*
X026215Y016117D02*
X024595Y016117D01*
X024546Y016196D02*
X026294Y016196D01*
X026372Y016274D02*
X024434Y016274D01*
X024215Y016274D02*
X023725Y016274D01*
X023803Y016353D02*
X026451Y016353D01*
X026529Y016431D02*
X023882Y016431D01*
X023960Y016510D02*
X026608Y016510D01*
X026686Y016588D02*
X024039Y016588D01*
X024117Y016667D02*
X026765Y016667D01*
X026843Y016745D02*
X024196Y016745D01*
X024274Y016824D02*
X026922Y016824D01*
X027000Y016902D02*
X024353Y016902D01*
X024431Y016981D02*
X027079Y016981D01*
X027157Y017059D02*
X024510Y017059D01*
X024588Y017138D02*
X027236Y017138D01*
X027314Y017216D02*
X024667Y017216D01*
X024745Y017295D02*
X027393Y017295D01*
X027471Y017373D02*
X024824Y017373D01*
X024902Y017452D02*
X027550Y017452D01*
X027628Y017530D02*
X024981Y017530D01*
X025059Y017609D02*
X027707Y017609D01*
X027785Y017687D02*
X025138Y017687D01*
X025216Y017766D02*
X027864Y017766D01*
X027942Y017844D02*
X025295Y017844D01*
X025373Y017923D02*
X028021Y017923D01*
X028099Y018001D02*
X025452Y018001D01*
X025530Y018080D02*
X028178Y018080D01*
X028256Y018158D02*
X025609Y018158D01*
X025687Y018237D02*
X028335Y018237D01*
X028413Y018315D02*
X025766Y018315D01*
X025844Y018394D02*
X028492Y018394D01*
X028570Y018472D02*
X025923Y018472D01*
X026001Y018551D02*
X028649Y018551D01*
X028727Y018629D02*
X026080Y018629D01*
X026158Y018708D02*
X028806Y018708D01*
X028884Y018786D02*
X026237Y018786D01*
X026315Y018865D02*
X028963Y018865D01*
X029041Y018943D02*
X026394Y018943D01*
X026472Y019022D02*
X029120Y019022D01*
X029198Y019100D02*
X026551Y019100D01*
X026629Y019179D02*
X029277Y019179D01*
X029355Y019257D02*
X026708Y019257D01*
X026786Y019336D02*
X029434Y019336D01*
X029512Y019414D02*
X026865Y019414D01*
X026943Y019493D02*
X029591Y019493D01*
X029669Y019571D02*
X027022Y019571D01*
X027100Y019650D02*
X029748Y019650D01*
X029826Y019728D02*
X027179Y019728D01*
X027257Y019807D02*
X029905Y019807D01*
X029983Y019885D02*
X027336Y019885D01*
X027414Y019964D02*
X030062Y019964D01*
X030140Y020042D02*
X027493Y020042D01*
X027571Y020121D02*
X030219Y020121D01*
X030297Y020199D02*
X027650Y020199D01*
X027728Y020278D02*
X030376Y020278D01*
X030454Y020356D02*
X027807Y020356D01*
X027885Y020435D02*
X030533Y020435D01*
X030611Y020513D02*
X027964Y020513D01*
X028042Y020592D02*
X030690Y020592D01*
X030768Y020670D02*
X028121Y020670D01*
X028199Y020749D02*
X030847Y020749D01*
X030858Y020760D02*
X023190Y013092D01*
X023183Y013095D01*
X023066Y013095D01*
X022957Y013050D01*
X022874Y012967D01*
X022829Y012859D01*
X022829Y012741D01*
X022832Y012734D01*
X022058Y011960D01*
X021964Y011866D01*
X021964Y009953D01*
X021957Y009950D01*
X021874Y009867D01*
X021829Y009759D01*
X021829Y009641D01*
X021874Y009533D01*
X021957Y009450D01*
X022066Y009405D01*
X022183Y009405D01*
X022292Y009450D01*
X022374Y009533D01*
X022419Y009641D01*
X022419Y009759D01*
X022374Y009867D01*
X022292Y009950D01*
X022284Y009953D01*
X022284Y010229D01*
X022324Y010133D01*
X022407Y010050D01*
X022516Y010005D01*
X022633Y010005D01*
X022742Y010050D01*
X022824Y010133D01*
X022864Y010229D01*
X022864Y009753D01*
X022857Y009750D01*
X022774Y009667D01*
X022729Y009559D01*
X022729Y009441D01*
X022774Y009333D01*
X022857Y009250D01*
X022966Y009205D01*
X023083Y009205D01*
X023192Y009250D01*
X023274Y009333D01*
X023319Y009441D01*
X023319Y009559D01*
X023300Y009605D01*
X023383Y009605D01*
X023464Y009639D01*
X023464Y009353D01*
X023457Y009350D01*
X023374Y009267D01*
X023329Y009159D01*
X023329Y009041D01*
X023374Y008933D01*
X023457Y008850D01*
X023566Y008805D01*
X023683Y008805D01*
X023792Y008850D01*
X023874Y008933D01*
X023919Y009041D01*
X023919Y009159D01*
X023874Y009267D01*
X023792Y009350D01*
X023784Y009353D01*
X023784Y011147D01*
X023792Y011150D01*
X023874Y011233D01*
X023919Y011341D01*
X023919Y011459D01*
X023874Y011567D01*
X023792Y011650D01*
X023683Y011695D01*
X023566Y011695D01*
X023457Y011650D01*
X023374Y011567D01*
X023329Y011459D01*
X023329Y011341D01*
X023349Y011295D01*
X023319Y011295D01*
X023319Y011409D01*
X023274Y011517D01*
X023192Y011600D01*
X023083Y011645D01*
X022966Y011645D01*
X022857Y011600D01*
X022774Y011517D01*
X022745Y011447D01*
X022742Y011450D01*
X022633Y011495D01*
X022516Y011495D01*
X022407Y011450D01*
X022324Y011367D01*
X022284Y011271D01*
X022284Y011734D01*
X023059Y012508D01*
X023066Y012505D01*
X023183Y012505D01*
X023292Y012550D01*
X023374Y012633D01*
X023419Y012741D01*
X023419Y012859D01*
X023416Y012866D01*
X030991Y020440D01*
X033510Y020440D01*
X033559Y020322D01*
X033697Y020185D01*
X033877Y020110D01*
X034072Y020110D01*
X034252Y020185D01*
X034390Y020322D01*
X034464Y020503D01*
X034464Y020697D01*
X034390Y020878D01*
X034252Y021015D01*
X034072Y021090D01*
X033877Y021090D01*
X033697Y021015D01*
X033559Y020878D01*
X033510Y020760D01*
X030858Y020760D01*
X030924Y020600D02*
X023124Y012800D01*
X022124Y011800D01*
X022124Y009700D01*
X021923Y009916D02*
X019466Y009916D01*
X019545Y009994D02*
X021964Y009994D01*
X021964Y010073D02*
X019623Y010073D01*
X019702Y010151D02*
X021964Y010151D01*
X021964Y010230D02*
X019780Y010230D01*
X019859Y010308D02*
X021964Y010308D01*
X021964Y010387D02*
X019937Y010387D01*
X020016Y010465D02*
X021964Y010465D01*
X021964Y010544D02*
X020094Y010544D01*
X020173Y010622D02*
X021964Y010622D01*
X021964Y010701D02*
X020251Y010701D01*
X020330Y010779D02*
X021964Y010779D01*
X021964Y010858D02*
X020408Y010858D01*
X020487Y010936D02*
X021964Y010936D01*
X021964Y011015D02*
X020565Y011015D01*
X020644Y011093D02*
X021964Y011093D01*
X021964Y011172D02*
X020722Y011172D01*
X020801Y011250D02*
X021964Y011250D01*
X021964Y011329D02*
X020879Y011329D01*
X020958Y011407D02*
X021964Y011407D01*
X021964Y011486D02*
X021036Y011486D01*
X021115Y011564D02*
X021964Y011564D01*
X021964Y011643D02*
X021193Y011643D01*
X021272Y011721D02*
X021964Y011721D01*
X021964Y011800D02*
X021350Y011800D01*
X021429Y011878D02*
X021976Y011878D01*
X022055Y011957D02*
X021507Y011957D01*
X021586Y012035D02*
X022133Y012035D01*
X022212Y012114D02*
X021664Y012114D01*
X021743Y012192D02*
X022290Y012192D01*
X022369Y012271D02*
X021821Y012271D01*
X021900Y012349D02*
X022447Y012349D01*
X022526Y012428D02*
X021978Y012428D01*
X022057Y012506D02*
X022604Y012506D01*
X022683Y012585D02*
X022135Y012585D01*
X022214Y012663D02*
X022761Y012663D01*
X022829Y012742D02*
X022292Y012742D01*
X022371Y012820D02*
X022829Y012820D01*
X022846Y012899D02*
X022449Y012899D01*
X022528Y012977D02*
X022884Y012977D01*
X022970Y013056D02*
X022606Y013056D01*
X022685Y013134D02*
X023232Y013134D01*
X023311Y013213D02*
X022763Y013213D01*
X022842Y013291D02*
X023389Y013291D01*
X023468Y013370D02*
X022920Y013370D01*
X022999Y013448D02*
X023546Y013448D01*
X023625Y013527D02*
X023077Y013527D01*
X023156Y013605D02*
X023703Y013605D01*
X023782Y013684D02*
X023234Y013684D01*
X023313Y013762D02*
X023860Y013762D01*
X023939Y013841D02*
X023391Y013841D01*
X023470Y013919D02*
X024017Y013919D01*
X024096Y013998D02*
X023548Y013998D01*
X023627Y014076D02*
X024174Y014076D01*
X024253Y014155D02*
X023705Y014155D01*
X023784Y014233D02*
X024331Y014233D01*
X024410Y014312D02*
X023862Y014312D01*
X023941Y014390D02*
X024488Y014390D01*
X024567Y014469D02*
X024019Y014469D01*
X024098Y014547D02*
X024645Y014547D01*
X024724Y014626D02*
X024176Y014626D01*
X024255Y014704D02*
X024802Y014704D01*
X024881Y014783D02*
X024333Y014783D01*
X024412Y014861D02*
X024959Y014861D01*
X025038Y014940D02*
X024490Y014940D01*
X024569Y015018D02*
X025116Y015018D01*
X025195Y015097D02*
X024647Y015097D01*
X024726Y015175D02*
X025273Y015175D01*
X025352Y015254D02*
X024804Y015254D01*
X025048Y015332D02*
X025430Y015332D01*
X025509Y015411D02*
X025152Y015411D01*
X025198Y015489D02*
X025587Y015489D01*
X025666Y015568D02*
X025219Y015568D01*
X025219Y015646D02*
X025744Y015646D01*
X025823Y015725D02*
X025192Y015725D01*
X025139Y015803D02*
X025901Y015803D01*
X026118Y015568D02*
X048319Y015568D01*
X048394Y015646D02*
X026197Y015646D01*
X026275Y015725D02*
X048469Y015725D01*
X048545Y015803D02*
X026354Y015803D01*
X026432Y015882D02*
X048620Y015882D01*
X048695Y015960D02*
X026511Y015960D01*
X026589Y016039D02*
X048770Y016039D01*
X048845Y016117D02*
X034089Y016117D01*
X034072Y016110D02*
X034252Y016185D01*
X034390Y016322D01*
X034464Y016503D01*
X034464Y016697D01*
X034390Y016878D01*
X034252Y017015D01*
X034072Y017090D01*
X033877Y017090D01*
X033697Y017015D01*
X033559Y016878D01*
X033484Y016697D01*
X033484Y016503D01*
X033559Y016322D01*
X033697Y016185D01*
X033877Y016110D01*
X034072Y016110D01*
X034263Y016196D02*
X048920Y016196D01*
X048995Y016274D02*
X034341Y016274D01*
X034402Y016353D02*
X049071Y016353D01*
X049146Y016431D02*
X034435Y016431D01*
X034464Y016510D02*
X049221Y016510D01*
X049296Y016588D02*
X034464Y016588D01*
X034464Y016667D02*
X049371Y016667D01*
X049446Y016745D02*
X034445Y016745D01*
X034412Y016824D02*
X049521Y016824D01*
X049597Y016902D02*
X034365Y016902D01*
X034287Y016981D02*
X049672Y016981D01*
X049747Y017059D02*
X034147Y017059D01*
X034152Y017185D02*
X034290Y017322D01*
X034364Y017503D01*
X034364Y017697D01*
X034290Y017878D01*
X034152Y018015D01*
X033972Y018090D01*
X033777Y018090D01*
X033597Y018015D01*
X033459Y017878D01*
X033384Y017697D01*
X033384Y017503D01*
X033459Y017322D01*
X033597Y017185D01*
X033777Y017110D01*
X033972Y017110D01*
X034152Y017185D01*
X034183Y017216D02*
X049824Y017216D01*
X049822Y017138D02*
X034038Y017138D01*
X033802Y017059D02*
X027610Y017059D01*
X027688Y017138D02*
X033710Y017138D01*
X033565Y017216D02*
X027767Y017216D01*
X027845Y017295D02*
X033487Y017295D01*
X033438Y017373D02*
X027924Y017373D01*
X028002Y017452D02*
X033406Y017452D01*
X033384Y017530D02*
X028081Y017530D01*
X028159Y017609D02*
X033384Y017609D01*
X033384Y017687D02*
X028238Y017687D01*
X028316Y017766D02*
X033413Y017766D01*
X033445Y017844D02*
X028395Y017844D01*
X028473Y017923D02*
X033504Y017923D01*
X033582Y018001D02*
X028552Y018001D01*
X028630Y018080D02*
X033752Y018080D01*
X033761Y018158D02*
X028709Y018158D01*
X028787Y018237D02*
X033645Y018237D01*
X033697Y018185D02*
X033877Y018110D01*
X034072Y018110D01*
X034252Y018185D01*
X034390Y018322D01*
X034464Y018503D01*
X034464Y018697D01*
X034390Y018878D01*
X034252Y019015D01*
X034072Y019090D01*
X033877Y019090D01*
X033697Y019015D01*
X033559Y018878D01*
X033484Y018697D01*
X033484Y018503D01*
X033559Y018322D01*
X033697Y018185D01*
X033566Y018315D02*
X028866Y018315D01*
X028944Y018394D02*
X033530Y018394D01*
X033497Y018472D02*
X029023Y018472D01*
X029101Y018551D02*
X033484Y018551D01*
X033484Y018629D02*
X029180Y018629D01*
X029258Y018708D02*
X033489Y018708D01*
X033521Y018786D02*
X029337Y018786D01*
X029415Y018865D02*
X033554Y018865D01*
X033624Y018943D02*
X029494Y018943D01*
X029572Y019022D02*
X033712Y019022D01*
X033755Y019103D02*
X033834Y019090D01*
X033834Y019090D01*
X033834Y019560D01*
X033364Y019560D01*
X033364Y019560D01*
X033377Y019481D01*
X033402Y019404D01*
X033438Y019333D01*
X033485Y019268D01*
X033542Y019211D01*
X033607Y019164D01*
X033679Y019127D01*
X033755Y019103D01*
X033771Y019100D02*
X029651Y019100D01*
X029729Y019179D02*
X033587Y019179D01*
X033496Y019257D02*
X029808Y019257D01*
X029886Y019336D02*
X033437Y019336D01*
X033399Y019414D02*
X029965Y019414D01*
X030043Y019493D02*
X033375Y019493D01*
X033364Y019640D02*
X033834Y019640D01*
X033834Y019560D01*
X033914Y019560D01*
X033914Y019090D01*
X033915Y019090D01*
X033994Y019103D01*
X034070Y019127D01*
X034142Y019164D01*
X034207Y019211D01*
X034263Y019268D01*
X034311Y019333D01*
X034347Y019404D01*
X034372Y019481D01*
X034384Y019560D01*
X033914Y019560D01*
X033914Y019640D01*
X033834Y019640D01*
X033834Y020110D01*
X033755Y020097D01*
X033679Y020073D01*
X033607Y020036D01*
X033542Y019989D01*
X033485Y019932D01*
X033438Y019867D01*
X033402Y019796D01*
X033377Y019719D01*
X033364Y019640D01*
X033364Y019640D01*
X033366Y019650D02*
X030200Y019650D01*
X030279Y019728D02*
X033380Y019728D01*
X033407Y019807D02*
X030357Y019807D01*
X030436Y019885D02*
X033451Y019885D01*
X033517Y019964D02*
X030514Y019964D01*
X030593Y020042D02*
X033619Y020042D01*
X033682Y020199D02*
X030750Y020199D01*
X030828Y020278D02*
X033604Y020278D01*
X033545Y020356D02*
X030907Y020356D01*
X030985Y020435D02*
X033513Y020435D01*
X033538Y020827D02*
X028278Y020827D01*
X028356Y020906D02*
X033587Y020906D01*
X033666Y020984D02*
X028435Y020984D01*
X028513Y021063D02*
X033811Y021063D01*
X034138Y021063D02*
X045584Y021063D01*
X045584Y021053D02*
X045697Y020781D01*
X045905Y020573D01*
X046177Y020460D01*
X046472Y020460D01*
X046744Y020573D01*
X046952Y020781D01*
X047064Y021053D01*
X047064Y021347D01*
X046952Y021619D01*
X046744Y021827D01*
X046472Y021940D01*
X046177Y021940D01*
X045905Y021827D01*
X045697Y021619D01*
X045584Y021347D01*
X045584Y021053D01*
X045613Y020984D02*
X040767Y020984D01*
X040794Y020973D02*
X040632Y021040D01*
X039817Y021040D01*
X039655Y020973D01*
X039531Y020849D01*
X039464Y020688D01*
X039464Y020512D01*
X039531Y020351D01*
X039655Y020227D01*
X039817Y020160D01*
X040632Y020160D01*
X040794Y020227D01*
X040917Y020351D01*
X040984Y020512D01*
X040984Y020688D01*
X040917Y020849D01*
X040794Y020973D01*
X040861Y020906D02*
X045645Y020906D01*
X045678Y020827D02*
X040927Y020827D01*
X040959Y020749D02*
X045729Y020749D01*
X045808Y020670D02*
X040984Y020670D01*
X040984Y020592D02*
X045886Y020592D01*
X046049Y020513D02*
X040984Y020513D01*
X040952Y020435D02*
X049824Y020435D01*
X049824Y020513D02*
X046600Y020513D01*
X046762Y020592D02*
X049824Y020592D01*
X049824Y020670D02*
X046841Y020670D01*
X046919Y020749D02*
X049824Y020749D01*
X049824Y020827D02*
X046971Y020827D01*
X047003Y020906D02*
X049824Y020906D01*
X049824Y020984D02*
X047036Y020984D01*
X047064Y021063D02*
X049824Y021063D01*
X049824Y021141D02*
X047064Y021141D01*
X047064Y021220D02*
X049824Y021220D01*
X049824Y021298D02*
X047064Y021298D01*
X047052Y021377D02*
X049824Y021377D01*
X049824Y021455D02*
X047020Y021455D01*
X046987Y021534D02*
X049824Y021534D01*
X049824Y021612D02*
X046955Y021612D01*
X046880Y021691D02*
X049824Y021691D01*
X049824Y021769D02*
X046802Y021769D01*
X046695Y021848D02*
X049824Y021848D01*
X049824Y021926D02*
X046505Y021926D01*
X046144Y021926D02*
X029377Y021926D01*
X029455Y022005D02*
X049824Y022005D01*
X049824Y022083D02*
X029534Y022083D01*
X029612Y022162D02*
X049824Y022162D01*
X049824Y022240D02*
X029691Y022240D01*
X029769Y022319D02*
X049824Y022319D01*
X049824Y022397D02*
X029848Y022397D01*
X029926Y022476D02*
X049824Y022476D01*
X049824Y022554D02*
X030005Y022554D01*
X030083Y022633D02*
X049824Y022633D01*
X049824Y022711D02*
X030162Y022711D01*
X030240Y022790D02*
X049824Y022790D01*
X049824Y022868D02*
X030319Y022868D01*
X030397Y022947D02*
X049824Y022947D01*
X049824Y023025D02*
X030476Y023025D01*
X030554Y023104D02*
X049824Y023104D01*
X049824Y023182D02*
X030633Y023182D01*
X030711Y023261D02*
X049824Y023261D01*
X049824Y023339D02*
X030790Y023339D01*
X030868Y023418D02*
X049824Y023418D01*
X049824Y023496D02*
X030947Y023496D01*
X031025Y023575D02*
X049824Y023575D01*
X049824Y023653D02*
X031104Y023653D01*
X031182Y023732D02*
X049824Y023732D01*
X049824Y023810D02*
X031261Y023810D01*
X031339Y023889D02*
X049824Y023889D01*
X049824Y023967D02*
X031609Y023967D01*
X031680Y024046D02*
X049824Y024046D01*
X049824Y024124D02*
X031712Y024124D01*
X031719Y024203D02*
X049824Y024203D01*
X049824Y024281D02*
X031710Y024281D01*
X031678Y024360D02*
X049824Y024360D01*
X049824Y024438D02*
X031604Y024438D01*
X031424Y024200D02*
X023324Y016100D01*
X023124Y016100D01*
X023286Y016353D02*
X023351Y016353D01*
X023429Y016431D02*
X023182Y016431D01*
X023260Y016510D02*
X023508Y016510D01*
X023586Y016588D02*
X023339Y016588D01*
X023417Y016667D02*
X023665Y016667D01*
X023743Y016745D02*
X023496Y016745D01*
X023574Y016824D02*
X023822Y016824D01*
X023900Y016902D02*
X023653Y016902D01*
X023731Y016981D02*
X023979Y016981D01*
X024057Y017059D02*
X023810Y017059D01*
X023888Y017138D02*
X024136Y017138D01*
X024214Y017216D02*
X023967Y017216D01*
X024045Y017295D02*
X024293Y017295D01*
X024371Y017373D02*
X024124Y017373D01*
X024202Y017452D02*
X024450Y017452D01*
X024528Y017530D02*
X024281Y017530D01*
X024359Y017609D02*
X024607Y017609D01*
X024685Y017687D02*
X024438Y017687D01*
X024516Y017766D02*
X024764Y017766D01*
X024842Y017844D02*
X024595Y017844D01*
X024673Y017923D02*
X024921Y017923D01*
X024999Y018001D02*
X024752Y018001D01*
X024830Y018080D02*
X025078Y018080D01*
X025156Y018158D02*
X024909Y018158D01*
X024987Y018237D02*
X025235Y018237D01*
X025313Y018315D02*
X025066Y018315D01*
X025144Y018394D02*
X025392Y018394D01*
X025470Y018472D02*
X025223Y018472D01*
X025301Y018551D02*
X025549Y018551D01*
X025627Y018629D02*
X025380Y018629D01*
X025458Y018708D02*
X025706Y018708D01*
X025784Y018786D02*
X025537Y018786D01*
X025615Y018865D02*
X025863Y018865D01*
X025941Y018943D02*
X025694Y018943D01*
X025772Y019022D02*
X026020Y019022D01*
X026098Y019100D02*
X025851Y019100D01*
X025929Y019179D02*
X026177Y019179D01*
X026255Y019257D02*
X026008Y019257D01*
X026086Y019336D02*
X026334Y019336D01*
X026412Y019414D02*
X026165Y019414D01*
X026243Y019493D02*
X026491Y019493D01*
X026569Y019571D02*
X026322Y019571D01*
X026400Y019650D02*
X026648Y019650D01*
X026726Y019728D02*
X026479Y019728D01*
X026557Y019807D02*
X026805Y019807D01*
X026883Y019885D02*
X026636Y019885D01*
X026714Y019964D02*
X026962Y019964D01*
X027040Y020042D02*
X026793Y020042D01*
X026871Y020121D02*
X027119Y020121D01*
X027197Y020199D02*
X026950Y020199D01*
X027028Y020278D02*
X027276Y020278D01*
X027354Y020356D02*
X027107Y020356D01*
X027185Y020435D02*
X027433Y020435D01*
X027511Y020513D02*
X027264Y020513D01*
X027342Y020592D02*
X027590Y020592D01*
X027668Y020670D02*
X027421Y020670D01*
X027499Y020749D02*
X027747Y020749D01*
X027825Y020827D02*
X027578Y020827D01*
X027584Y020906D02*
X027904Y020906D01*
X027982Y020984D02*
X027584Y020984D01*
X027584Y021063D02*
X028061Y021063D01*
X028139Y021141D02*
X027584Y021141D01*
X027584Y021220D02*
X028218Y021220D01*
X028296Y021298D02*
X027584Y021298D01*
X027584Y021377D02*
X028375Y021377D01*
X028453Y021455D02*
X027584Y021455D01*
X027584Y021534D02*
X028532Y021534D01*
X028610Y021612D02*
X027584Y021612D01*
X027584Y021691D02*
X028689Y021691D01*
X028767Y021769D02*
X027584Y021769D01*
X027584Y021848D02*
X028846Y021848D01*
X028924Y021926D02*
X027584Y021926D01*
X027584Y022005D02*
X029003Y022005D01*
X029081Y022083D02*
X027584Y022083D01*
X027584Y022162D02*
X029160Y022162D01*
X029238Y022240D02*
X027584Y022240D01*
X027584Y022319D02*
X029317Y022319D01*
X029395Y022397D02*
X027584Y022397D01*
X027584Y022476D02*
X029474Y022476D01*
X029552Y022554D02*
X027584Y022554D01*
X027584Y022633D02*
X029631Y022633D01*
X029709Y022711D02*
X027584Y022711D01*
X027584Y022790D02*
X029788Y022790D01*
X029866Y022868D02*
X027584Y022868D01*
X027584Y022947D02*
X029945Y022947D01*
X030023Y023025D02*
X027584Y023025D01*
X027584Y023104D02*
X030102Y023104D01*
X030180Y023182D02*
X027584Y023182D01*
X027584Y023261D02*
X030259Y023261D01*
X030337Y023339D02*
X027584Y023339D01*
X027584Y023418D02*
X030416Y023418D01*
X030494Y023496D02*
X027584Y023496D01*
X027584Y023575D02*
X030573Y023575D01*
X030651Y023653D02*
X027584Y023653D01*
X027584Y023732D02*
X030730Y023732D01*
X030808Y023810D02*
X027584Y023810D01*
X027584Y023889D02*
X030887Y023889D01*
X030965Y023967D02*
X027609Y023967D01*
X027680Y024046D02*
X031044Y024046D01*
X031122Y024124D02*
X027712Y024124D01*
X027719Y024203D02*
X031129Y024203D01*
X031139Y024281D02*
X027710Y024281D01*
X027678Y024360D02*
X031171Y024360D01*
X031245Y024438D02*
X027604Y024438D01*
X027424Y024200D02*
X027424Y020900D01*
X022324Y015800D01*
X022412Y016117D02*
X022415Y016117D01*
X022324Y016400D02*
X023424Y017500D01*
X023424Y024200D01*
X023129Y024203D02*
X019719Y024203D01*
X019710Y024281D02*
X023139Y024281D01*
X023171Y024360D02*
X019678Y024360D01*
X019604Y024438D02*
X023245Y024438D01*
X023137Y024124D02*
X019712Y024124D01*
X019680Y024046D02*
X023169Y024046D01*
X023240Y023967D02*
X019609Y023967D01*
X019584Y023889D02*
X023264Y023889D01*
X023264Y023810D02*
X019584Y023810D01*
X019584Y023732D02*
X023264Y023732D01*
X023264Y023653D02*
X019584Y023653D01*
X019584Y023575D02*
X023264Y023575D01*
X023264Y023496D02*
X019584Y023496D01*
X019584Y023418D02*
X023264Y023418D01*
X023264Y023339D02*
X019584Y023339D01*
X019584Y023261D02*
X023264Y023261D01*
X023264Y023182D02*
X019584Y023182D01*
X019584Y023104D02*
X023264Y023104D01*
X023264Y023025D02*
X019584Y023025D01*
X019584Y022947D02*
X023264Y022947D01*
X023264Y022868D02*
X019584Y022868D01*
X019584Y022790D02*
X023264Y022790D01*
X023264Y022711D02*
X019584Y022711D01*
X019584Y022633D02*
X023264Y022633D01*
X023264Y022554D02*
X019584Y022554D01*
X019584Y022476D02*
X023264Y022476D01*
X023264Y022397D02*
X019584Y022397D01*
X019584Y022319D02*
X023264Y022319D01*
X023264Y022240D02*
X019584Y022240D01*
X019584Y022162D02*
X023264Y022162D01*
X023264Y022083D02*
X019584Y022083D01*
X019584Y022005D02*
X023264Y022005D01*
X023264Y021926D02*
X019584Y021926D01*
X019584Y021848D02*
X023264Y021848D01*
X023264Y021769D02*
X019584Y021769D01*
X019584Y021691D02*
X023264Y021691D01*
X023264Y021612D02*
X019584Y021612D01*
X019584Y021534D02*
X023264Y021534D01*
X023264Y021455D02*
X019584Y021455D01*
X019584Y021377D02*
X023264Y021377D01*
X023264Y021298D02*
X019584Y021298D01*
X019584Y021220D02*
X023264Y021220D01*
X023264Y021141D02*
X019584Y021141D01*
X019584Y021063D02*
X023264Y021063D01*
X023264Y020984D02*
X019584Y020984D01*
X019584Y020906D02*
X023264Y020906D01*
X023264Y020827D02*
X019584Y020827D01*
X019584Y020749D02*
X023264Y020749D01*
X023264Y020670D02*
X019584Y020670D01*
X019584Y020592D02*
X023264Y020592D01*
X023264Y020513D02*
X019584Y020513D01*
X019584Y020435D02*
X023264Y020435D01*
X023264Y020356D02*
X019584Y020356D01*
X019584Y020278D02*
X023264Y020278D01*
X023264Y020199D02*
X019584Y020199D01*
X019584Y020121D02*
X023264Y020121D01*
X023264Y020042D02*
X019584Y020042D01*
X019584Y019964D02*
X023264Y019964D01*
X023264Y019885D02*
X019584Y019885D01*
X019584Y019807D02*
X023264Y019807D01*
X023264Y019728D02*
X019584Y019728D01*
X019584Y019650D02*
X023264Y019650D01*
X023264Y019571D02*
X019584Y019571D01*
X019584Y019493D02*
X023264Y019493D01*
X023264Y019414D02*
X019584Y019414D01*
X019584Y019336D02*
X023264Y019336D01*
X023264Y019257D02*
X019584Y019257D01*
X019584Y019179D02*
X023264Y019179D01*
X023264Y019100D02*
X019584Y019100D01*
X019584Y019022D02*
X023264Y019022D01*
X023264Y018943D02*
X019584Y018943D01*
X019584Y018865D02*
X023264Y018865D01*
X023264Y018786D02*
X019584Y018786D01*
X019584Y018708D02*
X023264Y018708D01*
X023264Y018629D02*
X019584Y018629D01*
X019584Y018551D02*
X023264Y018551D01*
X023584Y018551D02*
X024849Y018551D01*
X024927Y018629D02*
X023584Y018629D01*
X023584Y018708D02*
X025006Y018708D01*
X025084Y018786D02*
X023584Y018786D01*
X023584Y018865D02*
X025163Y018865D01*
X025241Y018943D02*
X023584Y018943D01*
X023584Y019022D02*
X025320Y019022D01*
X025398Y019100D02*
X023584Y019100D01*
X023584Y019179D02*
X025477Y019179D01*
X025555Y019257D02*
X023584Y019257D01*
X023584Y019336D02*
X025634Y019336D01*
X025712Y019414D02*
X023584Y019414D01*
X023584Y019493D02*
X025791Y019493D01*
X025869Y019571D02*
X023584Y019571D01*
X023584Y019650D02*
X025948Y019650D01*
X026026Y019728D02*
X023584Y019728D01*
X023584Y019807D02*
X026105Y019807D01*
X026183Y019885D02*
X023584Y019885D01*
X023584Y019964D02*
X026262Y019964D01*
X026340Y020042D02*
X023584Y020042D01*
X023584Y020121D02*
X026419Y020121D01*
X026497Y020199D02*
X023584Y020199D01*
X023584Y020278D02*
X026576Y020278D01*
X026654Y020356D02*
X023584Y020356D01*
X023584Y020435D02*
X026733Y020435D01*
X026811Y020513D02*
X023584Y020513D01*
X023584Y020592D02*
X026890Y020592D01*
X026968Y020670D02*
X023584Y020670D01*
X023584Y020749D02*
X027047Y020749D01*
X027125Y020827D02*
X023584Y020827D01*
X023584Y020906D02*
X027204Y020906D01*
X027264Y020984D02*
X023584Y020984D01*
X023584Y021063D02*
X027264Y021063D01*
X027264Y021141D02*
X023584Y021141D01*
X023584Y021220D02*
X027264Y021220D01*
X027264Y021298D02*
X023584Y021298D01*
X023584Y021377D02*
X027264Y021377D01*
X027264Y021455D02*
X023584Y021455D01*
X023584Y021534D02*
X027264Y021534D01*
X027264Y021612D02*
X023584Y021612D01*
X023584Y021691D02*
X027264Y021691D01*
X027264Y021769D02*
X023584Y021769D01*
X023584Y021848D02*
X027264Y021848D01*
X027264Y021926D02*
X023584Y021926D01*
X023584Y022005D02*
X027264Y022005D01*
X027264Y022083D02*
X023584Y022083D01*
X023584Y022162D02*
X027264Y022162D01*
X027264Y022240D02*
X023584Y022240D01*
X023584Y022319D02*
X027264Y022319D01*
X027264Y022397D02*
X023584Y022397D01*
X023584Y022476D02*
X027264Y022476D01*
X027264Y022554D02*
X023584Y022554D01*
X023584Y022633D02*
X027264Y022633D01*
X027264Y022711D02*
X023584Y022711D01*
X023584Y022790D02*
X027264Y022790D01*
X027264Y022868D02*
X023584Y022868D01*
X023584Y022947D02*
X027264Y022947D01*
X027264Y023025D02*
X023584Y023025D01*
X023584Y023104D02*
X027264Y023104D01*
X027264Y023182D02*
X023584Y023182D01*
X023584Y023261D02*
X027264Y023261D01*
X027264Y023339D02*
X023584Y023339D01*
X023584Y023418D02*
X027264Y023418D01*
X027264Y023496D02*
X023584Y023496D01*
X023584Y023575D02*
X027264Y023575D01*
X027264Y023653D02*
X023584Y023653D01*
X023584Y023732D02*
X027264Y023732D01*
X027264Y023810D02*
X023584Y023810D01*
X023584Y023889D02*
X027264Y023889D01*
X027240Y023967D02*
X023609Y023967D01*
X023680Y024046D02*
X027169Y024046D01*
X027137Y024124D02*
X023712Y024124D01*
X023719Y024203D02*
X027129Y024203D01*
X027139Y024281D02*
X023710Y024281D01*
X023678Y024360D02*
X027171Y024360D01*
X027245Y024438D02*
X023604Y024438D01*
X028592Y021141D02*
X045584Y021141D01*
X045584Y021220D02*
X028670Y021220D01*
X028749Y021298D02*
X045584Y021298D01*
X045597Y021377D02*
X028827Y021377D01*
X028906Y021455D02*
X045629Y021455D01*
X045662Y021534D02*
X028984Y021534D01*
X029063Y021612D02*
X045694Y021612D01*
X045768Y021691D02*
X029141Y021691D01*
X029220Y021769D02*
X045847Y021769D01*
X045954Y021848D02*
X029298Y021848D01*
X030924Y020600D02*
X033974Y020600D01*
X034464Y020592D02*
X039464Y020592D01*
X039464Y020670D02*
X034464Y020670D01*
X034443Y020749D02*
X039490Y020749D01*
X039522Y020827D02*
X034411Y020827D01*
X034362Y020906D02*
X039588Y020906D01*
X039682Y020984D02*
X034283Y020984D01*
X034464Y020513D02*
X039464Y020513D01*
X039497Y020435D02*
X034436Y020435D01*
X034404Y020356D02*
X039529Y020356D01*
X039605Y020278D02*
X034345Y020278D01*
X034266Y020199D02*
X039723Y020199D01*
X039817Y020040D02*
X039655Y019973D01*
X039531Y019849D01*
X039464Y019688D01*
X039464Y019512D01*
X039531Y019351D01*
X039655Y019227D01*
X039817Y019160D01*
X040632Y019160D01*
X040794Y019227D01*
X040917Y019351D01*
X040984Y019512D01*
X040984Y019688D01*
X040917Y019849D01*
X040794Y019973D01*
X040632Y020040D01*
X039817Y020040D01*
X039646Y019964D02*
X034232Y019964D01*
X034207Y019989D02*
X034142Y020036D01*
X034070Y020073D01*
X033994Y020097D01*
X033915Y020110D01*
X033914Y020110D01*
X033914Y019640D01*
X034384Y019640D01*
X034384Y019640D01*
X034372Y019719D01*
X034347Y019796D01*
X034311Y019867D01*
X034263Y019932D01*
X034207Y019989D01*
X034130Y020042D02*
X049824Y020042D01*
X049824Y019964D02*
X040803Y019964D01*
X040882Y019885D02*
X049824Y019885D01*
X049824Y019807D02*
X040935Y019807D01*
X040968Y019728D02*
X049824Y019728D01*
X049824Y019650D02*
X040984Y019650D01*
X040984Y019571D02*
X049824Y019571D01*
X049824Y019493D02*
X040976Y019493D01*
X040944Y019414D02*
X049824Y019414D01*
X049824Y019336D02*
X040902Y019336D01*
X040824Y019257D02*
X049824Y019257D01*
X049824Y019179D02*
X040677Y019179D01*
X040632Y019040D02*
X040794Y018973D01*
X040917Y018849D01*
X040984Y018688D01*
X040984Y018512D01*
X040917Y018351D01*
X040794Y018227D01*
X040632Y018160D01*
X039817Y018160D01*
X039655Y018227D01*
X039531Y018351D01*
X039464Y018512D01*
X039464Y018688D01*
X039531Y018849D01*
X039655Y018973D01*
X039817Y019040D01*
X040632Y019040D01*
X040676Y019022D02*
X049824Y019022D01*
X049824Y019100D02*
X033978Y019100D01*
X033914Y019100D02*
X033834Y019100D01*
X033834Y019179D02*
X033914Y019179D01*
X033914Y019257D02*
X033834Y019257D01*
X033834Y019336D02*
X033914Y019336D01*
X033914Y019414D02*
X033834Y019414D01*
X033834Y019493D02*
X033914Y019493D01*
X033914Y019571D02*
X039464Y019571D01*
X039464Y019650D02*
X034383Y019650D01*
X034369Y019728D02*
X039481Y019728D01*
X039514Y019807D02*
X034342Y019807D01*
X034298Y019885D02*
X039567Y019885D01*
X039473Y019493D02*
X034374Y019493D01*
X034384Y019560D02*
X034384Y019560D01*
X034350Y019414D02*
X039505Y019414D01*
X039547Y019336D02*
X034312Y019336D01*
X034253Y019257D02*
X039625Y019257D01*
X039772Y019179D02*
X034162Y019179D01*
X034237Y019022D02*
X039772Y019022D01*
X039625Y018943D02*
X034324Y018943D01*
X034395Y018865D02*
X039547Y018865D01*
X039505Y018786D02*
X034428Y018786D01*
X034460Y018708D02*
X039473Y018708D01*
X039464Y018629D02*
X034464Y018629D01*
X034464Y018551D02*
X039464Y018551D01*
X039481Y018472D02*
X034452Y018472D01*
X034419Y018394D02*
X039514Y018394D01*
X039567Y018315D02*
X034382Y018315D01*
X034304Y018237D02*
X039646Y018237D01*
X040803Y018237D02*
X045584Y018237D01*
X045584Y018315D02*
X040882Y018315D01*
X040935Y018394D02*
X045584Y018394D01*
X045584Y018472D02*
X040968Y018472D01*
X040984Y018551D02*
X045628Y018551D01*
X045584Y018507D02*
X045584Y017893D01*
X046018Y017460D01*
X046631Y017460D01*
X047064Y017893D01*
X047064Y018507D01*
X046631Y018940D01*
X046018Y018940D01*
X045584Y018507D01*
X045707Y018629D02*
X040984Y018629D01*
X040976Y018708D02*
X045785Y018708D01*
X045864Y018786D02*
X040944Y018786D01*
X040902Y018865D02*
X045942Y018865D01*
X046706Y018865D02*
X049824Y018865D01*
X049824Y018943D02*
X040824Y018943D01*
X040726Y020199D02*
X049824Y020199D01*
X049824Y020121D02*
X034097Y020121D01*
X033914Y020042D02*
X033834Y020042D01*
X033834Y020110D02*
X033834Y020110D01*
X033851Y020121D02*
X030671Y020121D01*
X030122Y019571D02*
X033834Y019571D01*
X033834Y019650D02*
X033914Y019650D01*
X033914Y019728D02*
X033834Y019728D01*
X033834Y019807D02*
X033914Y019807D01*
X033914Y019885D02*
X033834Y019885D01*
X033834Y019964D02*
X033914Y019964D01*
X034188Y018158D02*
X045584Y018158D01*
X045584Y018080D02*
X033997Y018080D01*
X034166Y018001D02*
X045584Y018001D01*
X045584Y017923D02*
X034245Y017923D01*
X034304Y017844D02*
X045634Y017844D01*
X045712Y017766D02*
X034336Y017766D01*
X034364Y017687D02*
X045791Y017687D01*
X045869Y017609D02*
X034364Y017609D01*
X034364Y017530D02*
X045948Y017530D01*
X046701Y017530D02*
X049824Y017530D01*
X049824Y017452D02*
X034343Y017452D01*
X034311Y017373D02*
X049824Y017373D01*
X049824Y017295D02*
X034262Y017295D01*
X033662Y016981D02*
X027531Y016981D01*
X027453Y016902D02*
X033583Y016902D01*
X033537Y016824D02*
X027374Y016824D01*
X027296Y016745D02*
X033504Y016745D01*
X033484Y016667D02*
X027217Y016667D01*
X027139Y016588D02*
X033484Y016588D01*
X033484Y016510D02*
X027060Y016510D01*
X026982Y016431D02*
X033514Y016431D01*
X033547Y016353D02*
X026903Y016353D01*
X026825Y016274D02*
X033607Y016274D01*
X033686Y016196D02*
X026746Y016196D01*
X026668Y016117D02*
X033860Y016117D01*
X040844Y020278D02*
X049824Y020278D01*
X049824Y020356D02*
X040920Y020356D01*
X046785Y018786D02*
X049824Y018786D01*
X049824Y018708D02*
X046863Y018708D01*
X046942Y018629D02*
X049824Y018629D01*
X049824Y018551D02*
X047020Y018551D01*
X047064Y018472D02*
X049824Y018472D01*
X049824Y018394D02*
X047064Y018394D01*
X047064Y018315D02*
X049824Y018315D01*
X049824Y018237D02*
X047064Y018237D01*
X047064Y018158D02*
X049824Y018158D01*
X049824Y018080D02*
X047064Y018080D01*
X047064Y018001D02*
X049824Y018001D01*
X049824Y017923D02*
X047064Y017923D01*
X047015Y017844D02*
X049824Y017844D01*
X049824Y017766D02*
X046936Y017766D01*
X046858Y017687D02*
X049824Y017687D01*
X049824Y017609D02*
X046779Y017609D01*
X048244Y015489D02*
X026040Y015489D01*
X025961Y015411D02*
X048169Y015411D01*
X048094Y015332D02*
X025883Y015332D01*
X025804Y015254D02*
X048018Y015254D01*
X047943Y015175D02*
X025726Y015175D01*
X025647Y015097D02*
X047868Y015097D01*
X047793Y015018D02*
X025569Y015018D01*
X025490Y014940D02*
X047718Y014940D01*
X047643Y014861D02*
X025412Y014861D01*
X025333Y014783D02*
X044324Y014783D01*
X044324Y014704D02*
X025255Y014704D01*
X025176Y014626D02*
X044324Y014626D01*
X044324Y014547D02*
X025098Y014547D01*
X025019Y014469D02*
X044324Y014469D01*
X044324Y014390D02*
X024941Y014390D01*
X024862Y014312D02*
X044324Y014312D01*
X044324Y014233D02*
X024784Y014233D01*
X024705Y014155D02*
X044324Y014155D01*
X044324Y014076D02*
X024627Y014076D01*
X024548Y013998D02*
X044324Y013998D01*
X044324Y013919D02*
X024470Y013919D01*
X024391Y013841D02*
X044324Y013841D01*
X044324Y013762D02*
X024313Y013762D01*
X024234Y013684D02*
X044324Y013684D01*
X044324Y013605D02*
X024156Y013605D01*
X024077Y013527D02*
X044324Y013527D01*
X044324Y013448D02*
X023999Y013448D01*
X023920Y013370D02*
X044324Y013370D01*
X044324Y013291D02*
X023842Y013291D01*
X023763Y013213D02*
X044324Y013213D01*
X044324Y013134D02*
X025210Y013134D01*
X025183Y013145D02*
X025066Y013145D01*
X024957Y013100D01*
X024874Y013017D01*
X024829Y012909D01*
X024829Y012791D01*
X024874Y012683D01*
X024957Y012600D01*
X024964Y012597D01*
X024964Y010477D01*
X024892Y010550D01*
X024884Y010553D01*
X024884Y012666D01*
X024791Y012760D01*
X024766Y012784D01*
X024769Y012791D01*
X024769Y012909D01*
X024724Y013017D01*
X024642Y013100D01*
X024533Y013145D01*
X024416Y013145D01*
X024307Y013100D01*
X024224Y013017D01*
X024142Y013100D01*
X024033Y013145D01*
X023916Y013145D01*
X023807Y013100D01*
X023724Y013017D01*
X023679Y012909D01*
X023679Y012791D01*
X023724Y012683D01*
X023807Y012600D01*
X023916Y012555D01*
X024033Y012555D01*
X024040Y012558D01*
X024264Y012334D01*
X024264Y008553D01*
X024257Y008550D01*
X024174Y008467D01*
X024129Y008359D01*
X024129Y008241D01*
X024174Y008133D01*
X024257Y008050D01*
X024366Y008005D01*
X024483Y008005D01*
X024592Y008050D01*
X024674Y008133D01*
X024719Y008241D01*
X024719Y008359D01*
X024674Y008467D01*
X024592Y008550D01*
X024584Y008553D01*
X024584Y010039D01*
X024666Y010005D01*
X024783Y010005D01*
X024892Y010050D01*
X024964Y010123D01*
X024964Y008953D01*
X024957Y008950D01*
X024874Y008867D01*
X024829Y008759D01*
X024829Y008641D01*
X024874Y008533D01*
X024957Y008450D01*
X025066Y008405D01*
X025183Y008405D01*
X025292Y008450D01*
X025374Y008533D01*
X025419Y008641D01*
X025419Y008759D01*
X025374Y008867D01*
X025292Y008950D01*
X025284Y008953D01*
X025284Y012597D01*
X025292Y012600D01*
X025374Y012683D01*
X025419Y012791D01*
X025419Y012909D01*
X025374Y013017D01*
X025292Y013100D01*
X025183Y013145D01*
X025039Y013134D02*
X024560Y013134D01*
X024686Y013056D02*
X024913Y013056D01*
X024858Y012977D02*
X024741Y012977D01*
X024769Y012899D02*
X024829Y012899D01*
X024829Y012820D02*
X024769Y012820D01*
X024809Y012742D02*
X024850Y012742D01*
X024884Y012663D02*
X024894Y012663D01*
X024884Y012585D02*
X024964Y012585D01*
X024964Y012506D02*
X024884Y012506D01*
X024884Y012428D02*
X024964Y012428D01*
X024964Y012349D02*
X024884Y012349D01*
X024884Y012271D02*
X024964Y012271D01*
X024964Y012192D02*
X024884Y012192D01*
X024884Y012114D02*
X024964Y012114D01*
X024964Y012035D02*
X024884Y012035D01*
X024884Y011957D02*
X024964Y011957D01*
X024964Y011878D02*
X024884Y011878D01*
X024884Y011800D02*
X024964Y011800D01*
X024964Y011721D02*
X024884Y011721D01*
X024884Y011643D02*
X024964Y011643D01*
X024964Y011564D02*
X024884Y011564D01*
X024884Y011486D02*
X024964Y011486D01*
X024964Y011407D02*
X024884Y011407D01*
X024884Y011329D02*
X024964Y011329D01*
X024964Y011250D02*
X024884Y011250D01*
X024884Y011172D02*
X024964Y011172D01*
X024964Y011093D02*
X024884Y011093D01*
X024884Y011015D02*
X024964Y011015D01*
X024964Y010936D02*
X024884Y010936D01*
X024884Y010858D02*
X024964Y010858D01*
X024964Y010779D02*
X024884Y010779D01*
X024884Y010701D02*
X024964Y010701D01*
X024964Y010622D02*
X024884Y010622D01*
X024898Y010544D02*
X024964Y010544D01*
X025284Y010544D02*
X044324Y010544D01*
X044324Y010622D02*
X025284Y010622D01*
X025284Y010701D02*
X044324Y010701D01*
X044324Y010779D02*
X025284Y010779D01*
X025284Y010858D02*
X044324Y010858D01*
X044324Y010936D02*
X025284Y010936D01*
X025284Y011015D02*
X044324Y011015D01*
X044324Y011093D02*
X025284Y011093D01*
X025284Y011172D02*
X044324Y011172D01*
X044324Y011250D02*
X025284Y011250D01*
X025284Y011329D02*
X044324Y011329D01*
X044324Y011407D02*
X025284Y011407D01*
X025284Y011486D02*
X044324Y011486D01*
X044324Y011564D02*
X025284Y011564D01*
X025284Y011643D02*
X044324Y011643D01*
X044324Y011721D02*
X025284Y011721D01*
X025284Y011800D02*
X044324Y011800D01*
X044324Y011878D02*
X025284Y011878D01*
X025284Y011957D02*
X044324Y011957D01*
X044324Y012035D02*
X025284Y012035D01*
X025284Y012114D02*
X044324Y012114D01*
X044324Y012192D02*
X025284Y012192D01*
X025284Y012271D02*
X044324Y012271D01*
X044324Y012349D02*
X025284Y012349D01*
X025284Y012428D02*
X044324Y012428D01*
X044324Y012506D02*
X025284Y012506D01*
X025284Y012585D02*
X044324Y012585D01*
X044324Y012663D02*
X025355Y012663D01*
X025399Y012742D02*
X044324Y012742D01*
X044324Y012820D02*
X025419Y012820D01*
X025419Y012899D02*
X044324Y012899D01*
X044324Y012977D02*
X025391Y012977D01*
X025336Y013056D02*
X044324Y013056D01*
X044324Y010465D02*
X025284Y010465D01*
X025284Y010387D02*
X044324Y010387D01*
X044324Y010308D02*
X025284Y010308D01*
X025284Y010230D02*
X044324Y010230D01*
X044324Y010151D02*
X025284Y010151D01*
X025284Y010073D02*
X044324Y010073D01*
X044324Y009994D02*
X025284Y009994D01*
X025284Y009916D02*
X044324Y009916D01*
X044324Y009837D02*
X025284Y009837D01*
X025284Y009759D02*
X044324Y009759D01*
X044324Y009680D02*
X025284Y009680D01*
X025284Y009602D02*
X044324Y009602D01*
X044324Y009523D02*
X025284Y009523D01*
X025284Y009445D02*
X044324Y009445D01*
X044324Y009366D02*
X025284Y009366D01*
X025284Y009288D02*
X044324Y009288D01*
X044324Y009209D02*
X025284Y009209D01*
X025284Y009131D02*
X044324Y009131D01*
X044324Y009052D02*
X025284Y009052D01*
X025284Y008974D02*
X044324Y008974D01*
X044324Y008895D02*
X025347Y008895D01*
X025395Y008817D02*
X044324Y008817D01*
X044324Y008738D02*
X025419Y008738D01*
X025419Y008660D02*
X044324Y008660D01*
X044324Y008581D02*
X025394Y008581D01*
X025344Y008503D02*
X044324Y008503D01*
X044324Y008424D02*
X025229Y008424D01*
X025020Y008424D02*
X024692Y008424D01*
X024719Y008346D02*
X044324Y008346D01*
X044324Y008267D02*
X024719Y008267D01*
X024698Y008189D02*
X044324Y008189D01*
X044324Y008110D02*
X024652Y008110D01*
X024547Y008032D02*
X044324Y008032D01*
X044324Y007953D02*
X017504Y007953D01*
X017582Y008032D02*
X024302Y008032D01*
X024197Y008110D02*
X017661Y008110D01*
X017739Y008189D02*
X024151Y008189D01*
X024129Y008267D02*
X017818Y008267D01*
X017896Y008346D02*
X024129Y008346D01*
X024156Y008424D02*
X017975Y008424D01*
X018053Y008503D02*
X024210Y008503D01*
X024264Y008581D02*
X018132Y008581D01*
X018210Y008660D02*
X024264Y008660D01*
X024264Y008738D02*
X018289Y008738D01*
X018367Y008817D02*
X023538Y008817D01*
X023412Y008895D02*
X018446Y008895D01*
X018524Y008974D02*
X023357Y008974D01*
X023329Y009052D02*
X018603Y009052D01*
X018681Y009131D02*
X023329Y009131D01*
X023350Y009209D02*
X023093Y009209D01*
X022956Y009209D02*
X018760Y009209D01*
X018838Y009288D02*
X022820Y009288D01*
X022761Y009366D02*
X018917Y009366D01*
X018995Y009445D02*
X021970Y009445D01*
X021884Y009523D02*
X019074Y009523D01*
X019152Y009602D02*
X021846Y009602D01*
X021829Y009680D02*
X019231Y009680D01*
X019309Y009759D02*
X021829Y009759D01*
X021862Y009837D02*
X019388Y009837D01*
X019171Y010073D02*
X019123Y010073D01*
X019092Y009994D02*
X019045Y009994D01*
X019014Y009916D02*
X018966Y009916D01*
X018935Y009837D02*
X018888Y009837D01*
X018857Y009759D02*
X018809Y009759D01*
X018778Y009680D02*
X018731Y009680D01*
X018700Y009602D02*
X018652Y009602D01*
X018621Y009523D02*
X018274Y009523D01*
X018195Y009445D02*
X018543Y009445D01*
X018464Y009366D02*
X018117Y009366D01*
X018038Y009288D02*
X018386Y009288D01*
X018307Y009209D02*
X017960Y009209D01*
X017881Y009131D02*
X018229Y009131D01*
X018150Y009052D02*
X017803Y009052D01*
X017724Y008974D02*
X018072Y008974D01*
X017993Y008895D02*
X017646Y008895D01*
X017567Y008817D02*
X017915Y008817D01*
X017836Y008738D02*
X017489Y008738D01*
X017410Y008660D02*
X017758Y008660D01*
X017679Y008581D02*
X017332Y008581D01*
X017253Y008503D02*
X017601Y008503D01*
X017522Y008424D02*
X017175Y008424D01*
X017119Y008346D02*
X017444Y008346D01*
X017365Y008267D02*
X017119Y008267D01*
X017098Y008189D02*
X017287Y008189D01*
X017208Y008110D02*
X017052Y008110D01*
X017130Y008032D02*
X016947Y008032D01*
X017051Y007953D02*
X016484Y007953D01*
X016484Y008032D02*
X016702Y008032D01*
X016597Y008110D02*
X016484Y008110D01*
X016484Y008189D02*
X016551Y008189D01*
X016529Y008267D02*
X016518Y008267D01*
X016324Y008300D02*
X016324Y008000D01*
X015624Y007300D01*
X015418Y007090D02*
X010124Y007090D01*
X010124Y007168D02*
X015360Y007168D01*
X015329Y007247D02*
X010124Y007247D01*
X010124Y007325D02*
X015329Y007325D01*
X015348Y007404D02*
X010124Y007404D01*
X010124Y007482D02*
X015389Y007482D01*
X015482Y007561D02*
X014002Y007561D01*
X014077Y007639D02*
X015484Y007639D01*
X015390Y007718D02*
X014110Y007718D01*
X014119Y007796D02*
X015348Y007796D01*
X015329Y007875D02*
X014125Y007875D01*
X014204Y007953D02*
X015329Y007953D01*
X015360Y008032D02*
X014282Y008032D01*
X014361Y008110D02*
X015417Y008110D01*
X016033Y007482D02*
X016189Y007482D01*
X016148Y007404D02*
X015954Y007404D01*
X015919Y007325D02*
X016129Y007325D01*
X016129Y007247D02*
X015919Y007247D01*
X015889Y007168D02*
X016160Y007168D01*
X016218Y007090D02*
X015831Y007090D01*
X015698Y007011D02*
X016351Y007011D01*
X016498Y007011D02*
X044324Y007011D01*
X044324Y006933D02*
X010124Y006933D01*
X010124Y007011D02*
X015551Y007011D01*
X016111Y007561D02*
X016282Y007561D01*
X016190Y007639D02*
X016737Y007639D01*
X016659Y007561D02*
X016566Y007561D01*
X016624Y007300D02*
X016424Y007300D01*
X016624Y007300D02*
X024924Y015600D01*
X024324Y015800D02*
X024324Y016000D01*
X024324Y015800D02*
X023324Y014800D01*
X022824Y014800D01*
X016324Y008300D01*
X016425Y007875D02*
X016973Y007875D01*
X016894Y007796D02*
X016347Y007796D01*
X016268Y007718D02*
X016816Y007718D01*
X017033Y007482D02*
X044324Y007482D01*
X044324Y007404D02*
X016954Y007404D01*
X016876Y007325D02*
X044324Y007325D01*
X044324Y007247D02*
X016797Y007247D01*
X016719Y007168D02*
X044324Y007168D01*
X044324Y007090D02*
X016631Y007090D01*
X017111Y007561D02*
X044324Y007561D01*
X044324Y007639D02*
X017190Y007639D01*
X017268Y007718D02*
X044324Y007718D01*
X044324Y007796D02*
X017347Y007796D01*
X017425Y007875D02*
X044324Y007875D01*
X044324Y006854D02*
X010124Y006854D01*
X010124Y006776D02*
X044324Y006776D01*
X044324Y006697D02*
X010124Y006697D01*
X010124Y006619D02*
X044324Y006619D01*
X044324Y006540D02*
X010124Y006540D01*
X010124Y006462D02*
X044324Y006462D01*
X044324Y006383D02*
X010124Y006383D01*
X010124Y006305D02*
X044324Y006305D01*
X044324Y006226D02*
X010124Y006226D01*
X010124Y006148D02*
X044324Y006148D01*
X044324Y006069D02*
X010124Y006069D01*
X010124Y005991D02*
X044324Y005991D01*
X044324Y005912D02*
X010124Y005912D01*
X010124Y005834D02*
X044324Y005834D01*
X044324Y005755D02*
X043266Y005755D01*
X043272Y005752D02*
X043120Y005816D01*
X042954Y005816D01*
X042802Y005752D01*
X042685Y005635D01*
X042621Y005483D01*
X042621Y005317D01*
X042685Y005165D01*
X042802Y005048D01*
X042954Y004984D01*
X043120Y004984D01*
X043272Y005048D01*
X043389Y005165D01*
X043453Y005317D01*
X043453Y005483D01*
X043389Y005635D01*
X043272Y005752D01*
X043348Y005677D02*
X044324Y005677D01*
X044324Y005598D02*
X043405Y005598D01*
X043437Y005520D02*
X044324Y005520D01*
X044324Y005441D02*
X043453Y005441D01*
X043453Y005363D02*
X044324Y005363D01*
X044324Y005284D02*
X043439Y005284D01*
X043406Y005206D02*
X044324Y005206D01*
X044324Y005127D02*
X043352Y005127D01*
X043273Y005049D02*
X044324Y005049D01*
X044324Y004970D02*
X010124Y004970D01*
X010124Y004892D02*
X044324Y004892D01*
X044324Y004813D02*
X010124Y004813D01*
X010124Y004735D02*
X044324Y004735D01*
X044324Y004656D02*
X010124Y004656D01*
X010124Y004578D02*
X044324Y004578D01*
X044324Y004499D02*
X010124Y004499D01*
X010124Y004421D02*
X044324Y004421D01*
X044324Y004342D02*
X010124Y004342D01*
X010124Y004264D02*
X044324Y004264D01*
X044324Y004185D02*
X010124Y004185D01*
X010124Y004107D02*
X044324Y004107D01*
X044324Y004028D02*
X010124Y004028D01*
X010124Y003950D02*
X044324Y003950D01*
X044324Y003871D02*
X010124Y003871D01*
X010124Y003793D02*
X044324Y003793D01*
X044324Y003714D02*
X010124Y003714D01*
X010124Y003636D02*
X044324Y003636D01*
X044324Y003557D02*
X010124Y003557D01*
X010124Y005049D02*
X033376Y005049D01*
X033376Y005048D02*
X033529Y004984D01*
X033694Y004984D01*
X033847Y005048D01*
X033964Y005165D01*
X034027Y005317D01*
X034027Y005483D01*
X033964Y005635D01*
X033847Y005752D01*
X033694Y005816D01*
X033529Y005816D01*
X033376Y005752D01*
X033259Y005635D01*
X033196Y005483D01*
X033196Y005317D01*
X033259Y005165D01*
X033376Y005048D01*
X033297Y005127D02*
X010124Y005127D01*
X010124Y005206D02*
X015040Y005206D01*
X015095Y005183D02*
X014979Y005231D01*
X014889Y005320D01*
X014841Y005437D01*
X014841Y005563D01*
X014889Y005680D01*
X014979Y005769D01*
X015095Y005817D01*
X015221Y005817D01*
X015338Y005769D01*
X015427Y005680D01*
X015475Y005563D01*
X015475Y005437D01*
X015427Y005320D01*
X015338Y005231D01*
X015221Y005183D01*
X015095Y005183D01*
X015276Y005206D02*
X016773Y005206D01*
X016827Y005183D02*
X016711Y005231D01*
X016622Y005320D01*
X016573Y005437D01*
X016573Y005563D01*
X016622Y005680D01*
X016711Y005769D01*
X016827Y005817D01*
X016954Y005817D01*
X017070Y005769D01*
X017159Y005680D01*
X017208Y005563D01*
X017208Y005437D01*
X017159Y005320D01*
X017070Y005231D01*
X016954Y005183D01*
X016827Y005183D01*
X017008Y005206D02*
X033243Y005206D01*
X033210Y005284D02*
X017123Y005284D01*
X017177Y005363D02*
X033196Y005363D01*
X033196Y005441D02*
X017208Y005441D01*
X017208Y005520D02*
X033211Y005520D01*
X033244Y005598D02*
X017193Y005598D01*
X017161Y005677D02*
X033301Y005677D01*
X033383Y005755D02*
X017084Y005755D01*
X016697Y005755D02*
X015352Y005755D01*
X015428Y005677D02*
X016620Y005677D01*
X016588Y005598D02*
X015461Y005598D01*
X015475Y005520D02*
X016573Y005520D01*
X016573Y005441D02*
X015475Y005441D01*
X015445Y005363D02*
X016604Y005363D01*
X016658Y005284D02*
X015391Y005284D01*
X014926Y005284D02*
X010124Y005284D01*
X010124Y005363D02*
X014872Y005363D01*
X014841Y005441D02*
X010124Y005441D01*
X010124Y005520D02*
X014841Y005520D01*
X014856Y005598D02*
X010124Y005598D01*
X010124Y005677D02*
X014888Y005677D01*
X014965Y005755D02*
X010124Y005755D01*
X010124Y007561D02*
X013647Y007561D01*
X013572Y007639D02*
X010124Y007639D01*
X010124Y007718D02*
X013539Y007718D01*
X013529Y007796D02*
X010124Y007796D01*
X010124Y007875D02*
X013536Y007875D01*
X013568Y007953D02*
X010124Y007953D01*
X010124Y008032D02*
X013639Y008032D01*
X013908Y008110D02*
X004724Y008110D01*
X004724Y008189D02*
X013987Y008189D01*
X014065Y008267D02*
X004724Y008267D01*
X004724Y008346D02*
X014144Y008346D01*
X014222Y008424D02*
X013829Y008424D01*
X013944Y008503D02*
X014301Y008503D01*
X014379Y008581D02*
X013994Y008581D01*
X014019Y008660D02*
X014458Y008660D01*
X014536Y008738D02*
X014019Y008738D01*
X014067Y008817D02*
X014615Y008817D01*
X014693Y008895D02*
X014146Y008895D01*
X014224Y008974D02*
X014772Y008974D01*
X014850Y009052D02*
X014303Y009052D01*
X014381Y009131D02*
X014929Y009131D01*
X015007Y009209D02*
X014460Y009209D01*
X014538Y009288D02*
X015686Y009288D01*
X015764Y009366D02*
X015517Y009366D01*
X015595Y009445D02*
X015843Y009445D01*
X015921Y009523D02*
X015674Y009523D01*
X015752Y009602D02*
X016000Y009602D01*
X016078Y009680D02*
X015831Y009680D01*
X015909Y009759D02*
X016157Y009759D01*
X016235Y009837D02*
X015988Y009837D01*
X016066Y009916D02*
X016314Y009916D01*
X016392Y009994D02*
X016145Y009994D01*
X015724Y009100D02*
X015124Y009100D01*
X013824Y007800D01*
X013620Y008424D02*
X004724Y008424D01*
X004724Y008503D02*
X013505Y008503D01*
X013454Y008581D02*
X004724Y008581D01*
X004724Y008660D02*
X013429Y008660D01*
X013429Y008738D02*
X004724Y008738D01*
X005724Y008800D02*
X005724Y009200D01*
X005714Y012428D02*
X017426Y012428D01*
X017504Y012506D02*
X002464Y012506D01*
X002464Y012585D02*
X017583Y012585D01*
X017661Y012663D02*
X002464Y012663D01*
X002464Y012742D02*
X017740Y012742D01*
X017818Y012820D02*
X002464Y012820D01*
X002464Y012899D02*
X017897Y012899D01*
X017975Y012977D02*
X002464Y012977D01*
X002464Y013056D02*
X018054Y013056D01*
X018132Y013134D02*
X002464Y013134D01*
X002464Y013213D02*
X018211Y013213D01*
X018289Y013291D02*
X002464Y013291D01*
X002464Y013370D02*
X018368Y013370D01*
X018446Y013448D02*
X002464Y013448D01*
X002464Y013527D02*
X018525Y013527D01*
X018603Y013605D02*
X002464Y013605D01*
X002464Y013684D02*
X018682Y013684D01*
X018760Y013762D02*
X002464Y013762D01*
X002464Y013841D02*
X018839Y013841D01*
X018917Y013919D02*
X002464Y013919D01*
X002464Y013998D02*
X018996Y013998D01*
X019074Y014076D02*
X002464Y014076D01*
X002824Y018500D02*
X002924Y018500D01*
X007324Y018500D02*
X007424Y018500D01*
X010824Y017200D02*
X010824Y016900D01*
X013924Y015000D02*
X014324Y015400D01*
X014824Y015200D02*
X020301Y015200D01*
X020424Y015097D02*
X020795Y015097D01*
X020873Y015175D02*
X020502Y015175D01*
X020581Y015254D02*
X020952Y015254D01*
X021030Y015332D02*
X020659Y015332D01*
X020738Y015411D02*
X021709Y015411D01*
X022724Y015600D02*
X023424Y015600D01*
X023624Y015800D01*
X023919Y015803D02*
X024101Y015803D01*
X024054Y015882D02*
X023910Y015882D01*
X023877Y015960D02*
X024029Y015960D01*
X024029Y016039D02*
X023803Y016039D01*
X023646Y016196D02*
X024103Y016196D01*
X024054Y016117D02*
X023568Y016117D01*
X023912Y015725D02*
X024023Y015725D01*
X023944Y015646D02*
X023880Y015646D01*
X023866Y015568D02*
X023809Y015568D01*
X023787Y015489D02*
X023540Y015489D01*
X023630Y015332D02*
X023389Y015332D01*
X023419Y015254D02*
X023552Y015254D01*
X023473Y015175D02*
X023419Y015175D01*
X023331Y015411D02*
X023709Y015411D01*
X023124Y015200D02*
X022924Y015000D01*
X022724Y015000D01*
X023009Y014233D02*
X023331Y014233D01*
X023253Y014155D02*
X023080Y014155D01*
X023112Y014076D02*
X023174Y014076D01*
X022824Y014000D02*
X018524Y009700D01*
X018224Y009700D01*
X016824Y008300D01*
X019202Y010151D02*
X019249Y010151D01*
X019280Y010230D02*
X019328Y010230D01*
X019359Y010308D02*
X019406Y010308D01*
X019437Y010387D02*
X019485Y010387D01*
X019516Y010465D02*
X019563Y010465D01*
X019594Y010544D02*
X019642Y010544D01*
X019673Y010622D02*
X019720Y010622D01*
X019751Y010701D02*
X019799Y010701D01*
X019830Y010779D02*
X019877Y010779D01*
X019908Y010858D02*
X019956Y010858D01*
X019987Y010936D02*
X020034Y010936D01*
X020065Y011015D02*
X020113Y011015D01*
X020144Y011093D02*
X020191Y011093D01*
X020222Y011172D02*
X020270Y011172D01*
X020301Y011250D02*
X020348Y011250D01*
X020379Y011329D02*
X020427Y011329D01*
X020458Y011407D02*
X020505Y011407D01*
X020536Y011486D02*
X020584Y011486D01*
X020615Y011564D02*
X020662Y011564D01*
X020693Y011643D02*
X020741Y011643D01*
X020772Y011721D02*
X020819Y011721D01*
X020850Y011800D02*
X020898Y011800D01*
X020929Y011878D02*
X020976Y011878D01*
X021007Y011957D02*
X021055Y011957D01*
X021086Y012035D02*
X021133Y012035D01*
X021164Y012114D02*
X021212Y012114D01*
X021243Y012192D02*
X021290Y012192D01*
X021321Y012271D02*
X021369Y012271D01*
X021400Y012349D02*
X021447Y012349D01*
X021478Y012428D02*
X021526Y012428D01*
X021557Y012506D02*
X021604Y012506D01*
X021635Y012585D02*
X021683Y012585D01*
X021714Y012663D02*
X021761Y012663D01*
X021792Y012742D02*
X021840Y012742D01*
X021871Y012820D02*
X021918Y012820D01*
X021949Y012899D02*
X021997Y012899D01*
X022028Y012977D02*
X022075Y012977D01*
X022106Y013056D02*
X022154Y013056D01*
X022185Y013134D02*
X022232Y013134D01*
X022263Y013213D02*
X022311Y013213D01*
X022342Y013291D02*
X022389Y013291D01*
X022420Y013370D02*
X022468Y013370D01*
X022499Y013448D02*
X022546Y013448D01*
X022577Y013527D02*
X022625Y013527D01*
X022656Y013605D02*
X022703Y013605D01*
X022734Y013684D02*
X022782Y013684D01*
X022524Y012750D02*
X022524Y012700D01*
X022900Y012349D02*
X024249Y012349D01*
X024264Y012271D02*
X022821Y012271D01*
X022743Y012192D02*
X024264Y012192D01*
X024264Y012114D02*
X022664Y012114D01*
X022586Y012035D02*
X024264Y012035D01*
X024264Y011957D02*
X022507Y011957D01*
X022429Y011878D02*
X024264Y011878D01*
X024264Y011800D02*
X022350Y011800D01*
X022284Y011721D02*
X024264Y011721D01*
X024264Y011643D02*
X023799Y011643D01*
X023876Y011564D02*
X024264Y011564D01*
X024264Y011486D02*
X023908Y011486D01*
X023919Y011407D02*
X024264Y011407D01*
X024264Y011329D02*
X023914Y011329D01*
X023882Y011250D02*
X024264Y011250D01*
X024264Y011172D02*
X023813Y011172D01*
X023784Y011093D02*
X024264Y011093D01*
X024264Y011015D02*
X023784Y011015D01*
X023824Y011000D02*
X023924Y011000D01*
X023784Y010936D02*
X024264Y010936D01*
X024264Y010858D02*
X023784Y010858D01*
X023784Y010779D02*
X024264Y010779D01*
X024264Y010701D02*
X023784Y010701D01*
X023784Y010622D02*
X024264Y010622D01*
X024264Y010544D02*
X023784Y010544D01*
X023784Y010465D02*
X024264Y010465D01*
X024264Y010387D02*
X023784Y010387D01*
X023784Y010308D02*
X024264Y010308D01*
X024264Y010230D02*
X023784Y010230D01*
X023784Y010151D02*
X024264Y010151D01*
X024264Y010073D02*
X023784Y010073D01*
X023784Y009994D02*
X024264Y009994D01*
X024264Y009916D02*
X023784Y009916D01*
X023784Y009837D02*
X024264Y009837D01*
X024264Y009759D02*
X023784Y009759D01*
X023784Y009680D02*
X024264Y009680D01*
X024264Y009602D02*
X023784Y009602D01*
X023784Y009523D02*
X024264Y009523D01*
X024264Y009445D02*
X023784Y009445D01*
X023784Y009366D02*
X024264Y009366D01*
X024264Y009288D02*
X023854Y009288D01*
X023899Y009209D02*
X024264Y009209D01*
X024264Y009131D02*
X023919Y009131D01*
X023919Y009052D02*
X024264Y009052D01*
X024264Y008974D02*
X023891Y008974D01*
X023837Y008895D02*
X024264Y008895D01*
X024264Y008817D02*
X023711Y008817D01*
X023624Y009100D02*
X023624Y011400D01*
X023329Y011407D02*
X023319Y011407D01*
X023319Y011329D02*
X023335Y011329D01*
X023341Y011486D02*
X023288Y011486D01*
X023228Y011564D02*
X023373Y011564D01*
X023450Y011643D02*
X023089Y011643D01*
X022960Y011643D02*
X022284Y011643D01*
X022284Y011564D02*
X022821Y011564D01*
X022761Y011486D02*
X022656Y011486D01*
X022493Y011486D02*
X022284Y011486D01*
X022284Y011407D02*
X022364Y011407D01*
X022308Y011329D02*
X022284Y011329D01*
X022574Y011200D02*
X022574Y010300D01*
X022385Y010073D02*
X022284Y010073D01*
X022284Y010151D02*
X022317Y010151D01*
X022284Y009994D02*
X022864Y009994D01*
X022864Y009916D02*
X022326Y009916D01*
X022387Y009837D02*
X022864Y009837D01*
X022864Y009759D02*
X022419Y009759D01*
X022419Y009680D02*
X022787Y009680D01*
X022747Y009602D02*
X022403Y009602D01*
X022365Y009523D02*
X022729Y009523D01*
X022729Y009445D02*
X022278Y009445D01*
X023024Y009500D02*
X023024Y011350D01*
X023324Y011000D02*
X023324Y009900D01*
X023302Y009602D02*
X023464Y009602D01*
X023464Y009523D02*
X023319Y009523D01*
X023319Y009445D02*
X023464Y009445D01*
X023464Y009366D02*
X023288Y009366D01*
X023229Y009288D02*
X023395Y009288D01*
X022864Y010073D02*
X022764Y010073D01*
X022832Y010151D02*
X022864Y010151D01*
X024584Y009994D02*
X024964Y009994D01*
X024964Y009916D02*
X024584Y009916D01*
X024584Y009837D02*
X024964Y009837D01*
X024964Y009759D02*
X024584Y009759D01*
X024584Y009680D02*
X024964Y009680D01*
X024964Y009602D02*
X024584Y009602D01*
X024584Y009523D02*
X024964Y009523D01*
X024964Y009445D02*
X024584Y009445D01*
X024584Y009366D02*
X024964Y009366D01*
X024964Y009288D02*
X024584Y009288D01*
X024584Y009209D02*
X024964Y009209D01*
X024964Y009131D02*
X024584Y009131D01*
X024584Y009052D02*
X024964Y009052D01*
X024964Y008974D02*
X024584Y008974D01*
X024584Y008895D02*
X024902Y008895D01*
X024853Y008817D02*
X024584Y008817D01*
X024584Y008738D02*
X024829Y008738D01*
X024829Y008660D02*
X024584Y008660D01*
X024584Y008581D02*
X024854Y008581D01*
X024905Y008503D02*
X024639Y008503D01*
X024424Y008300D02*
X024424Y012400D01*
X023974Y012850D01*
X023700Y012742D02*
X023419Y012742D01*
X023419Y012820D02*
X023679Y012820D01*
X023679Y012899D02*
X023449Y012899D01*
X023528Y012977D02*
X023708Y012977D01*
X023763Y013056D02*
X023606Y013056D01*
X023685Y013134D02*
X023889Y013134D01*
X024060Y013134D02*
X024389Y013134D01*
X024263Y013056D02*
X024186Y013056D01*
X024474Y012850D02*
X024724Y012600D01*
X024724Y010300D01*
X024914Y010073D02*
X024964Y010073D01*
X025124Y008700D02*
X025124Y012850D01*
X024171Y012428D02*
X022978Y012428D01*
X023057Y012506D02*
X023063Y012506D01*
X023186Y012506D02*
X024092Y012506D01*
X023844Y012585D02*
X023326Y012585D01*
X023387Y012663D02*
X023744Y012663D01*
X020716Y015018D02*
X014869Y015018D01*
X014790Y014940D02*
X020638Y014940D01*
X020559Y014861D02*
X014712Y014861D01*
X014633Y014783D02*
X020481Y014783D01*
X020402Y014704D02*
X014555Y014704D01*
X014124Y014500D02*
X014824Y015200D01*
X018035Y012585D02*
X018283Y012585D01*
X018361Y012663D02*
X018114Y012663D01*
X018192Y012742D02*
X018440Y012742D01*
X018518Y012820D02*
X018271Y012820D01*
X018349Y012899D02*
X018597Y012899D01*
X018675Y012977D02*
X018428Y012977D01*
X018506Y013056D02*
X018754Y013056D01*
X018832Y013134D02*
X018585Y013134D01*
X018663Y013213D02*
X018911Y013213D01*
X018989Y013291D02*
X018742Y013291D01*
X018820Y013370D02*
X019068Y013370D01*
X019146Y013448D02*
X018899Y013448D01*
X018977Y013527D02*
X019225Y013527D01*
X019303Y013605D02*
X019056Y013605D01*
X019134Y013684D02*
X019382Y013684D01*
X019460Y013762D02*
X019213Y013762D01*
X019291Y013841D02*
X019539Y013841D01*
X019617Y013919D02*
X019370Y013919D01*
X019448Y013998D02*
X019696Y013998D01*
X019774Y014076D02*
X019527Y014076D01*
X019796Y014155D02*
X019853Y014155D01*
X019875Y014233D02*
X019931Y014233D01*
X019907Y014312D02*
X020010Y014312D01*
X020088Y014390D02*
X019919Y014390D01*
X019915Y014469D02*
X020167Y014469D01*
X020245Y014547D02*
X019883Y014547D01*
X019816Y014626D02*
X020324Y014626D01*
X019124Y014800D02*
X019024Y014700D01*
X018829Y015960D02*
X018802Y015960D01*
X019124Y016000D02*
X019124Y016200D01*
X011424Y023900D01*
X011624Y021400D02*
X011824Y021400D01*
X015424Y020200D02*
X015424Y024200D01*
X023584Y018472D02*
X024770Y018472D01*
X024692Y018394D02*
X023584Y018394D01*
X023584Y018315D02*
X024613Y018315D01*
X024535Y018237D02*
X023584Y018237D01*
X023584Y018158D02*
X024456Y018158D01*
X024378Y018080D02*
X023584Y018080D01*
X023584Y018001D02*
X024299Y018001D01*
X024221Y017923D02*
X023584Y017923D01*
X023584Y017844D02*
X024142Y017844D01*
X024064Y017766D02*
X023584Y017766D01*
X023584Y017687D02*
X023985Y017687D01*
X023907Y017609D02*
X023584Y017609D01*
X023584Y017530D02*
X023828Y017530D01*
X023750Y017452D02*
X023584Y017452D01*
X023524Y017373D02*
X023671Y017373D01*
X023593Y017295D02*
X023445Y017295D01*
X023514Y017216D02*
X023367Y017216D01*
X023436Y017138D02*
X023288Y017138D01*
X023357Y017059D02*
X023210Y017059D01*
X023279Y016981D02*
X023131Y016981D01*
X023200Y016902D02*
X023053Y016902D01*
X023122Y016824D02*
X022974Y016824D01*
X023043Y016745D02*
X022896Y016745D01*
X022965Y016667D02*
X022817Y016667D01*
X022886Y016588D02*
X022739Y016588D01*
X022808Y016510D02*
X022660Y016510D01*
X022619Y016431D02*
X022729Y016431D01*
X022651Y016353D02*
X022619Y016353D01*
X026524Y018400D02*
X026524Y018500D01*
X018204Y012506D02*
X017957Y012506D01*
X017878Y012428D02*
X018126Y012428D01*
X018047Y012349D02*
X017800Y012349D01*
X017721Y012271D02*
X017969Y012271D01*
X017890Y012192D02*
X017643Y012192D01*
X017584Y012134D02*
X017584Y012134D01*
X017564Y012114D02*
X017812Y012114D01*
X015743Y011564D02*
X014106Y011564D01*
X033841Y005755D02*
X042808Y005755D01*
X042726Y005677D02*
X033923Y005677D01*
X033980Y005598D02*
X042669Y005598D01*
X042637Y005520D02*
X034012Y005520D01*
X034027Y005441D02*
X042621Y005441D01*
X042621Y005363D02*
X034027Y005363D01*
X034014Y005284D02*
X042635Y005284D01*
X042668Y005206D02*
X033981Y005206D01*
X033927Y005127D02*
X042722Y005127D01*
X042801Y005049D02*
X033848Y005049D01*
D18*
X010824Y017200D03*
D19*
X011024Y032400D02*
X011024Y033267D01*
X012524Y034767D01*
X015557Y037800D01*
X015557Y041800D01*
X013557Y041800D02*
X013557Y037800D01*
X012057Y036300D01*
X010924Y036300D01*
X007024Y032400D01*
X003024Y032400D02*
X003024Y032600D01*
X008224Y037800D01*
X011557Y037800D01*
X011557Y041800D01*
X017557Y041800D02*
X017557Y037800D01*
X017557Y034933D01*
X015024Y032400D01*
X019024Y032400D02*
X019657Y033033D01*
X019657Y037800D01*
X019657Y041800D01*
X021657Y041800D02*
X021657Y037800D01*
X023024Y036433D01*
X023024Y032400D01*
X027124Y032400D02*
X027124Y034333D01*
X023657Y037800D01*
X023657Y041800D01*
X025657Y041800D02*
X025657Y037800D01*
X031024Y032433D01*
X031024Y032400D01*
X033157Y032400D02*
X027757Y037800D01*
X027757Y041800D01*
X029757Y041800D02*
X029757Y037800D01*
X033457Y034100D01*
X037324Y034100D01*
X039024Y032400D01*
X040424Y035000D02*
X034557Y035000D01*
X031757Y037800D01*
X031757Y041800D01*
X033757Y041800D02*
X033757Y037800D01*
X035557Y036000D01*
X043424Y036000D01*
X047024Y032400D01*
X043024Y032400D02*
X040424Y035000D01*
X035024Y032400D02*
X033157Y032400D01*
X036824Y019000D02*
X036824Y018600D01*
X046024Y010800D02*
X047775Y010800D01*
X048675Y009900D01*
D20*
X048675Y009700D01*
X048675Y006613D01*
X047494Y005431D01*
X046824Y005431D01*
X048675Y009700D02*
X051424Y012450D01*
X051424Y035300D01*
X048924Y037800D01*
X041857Y037800D01*
X039857Y037800D01*
X039857Y041800D01*
X041857Y041800D01*
X039857Y041800D02*
X037857Y041800D01*
X035857Y041800D01*
X035857Y037800D02*
X037857Y037800D01*
X039857Y037800D01*
D21*
X046024Y010800D03*
M02*
